<mxfile host="Electron" modified="2023-05-05T09:43:39.241Z" agent="Mozilla/5.0 (Windows NT 10.0; Win64; x64) AppleWebKit/537.36 (KHTML, like Gecko) draw.io/21.2.1 Chrome/112.0.5615.87 Electron/24.1.2 Safari/537.36" etag="KNDUy6TTfqrqmKMoJtmK" version="21.2.1" type="device">
  <diagram name="Page-1" id="b5b7bab2-c9e2-2cf4-8b2a-24fd1a2a6d21">
    <mxGraphModel dx="845" dy="969" grid="1" gridSize="10" guides="1" tooltips="1" connect="1" arrows="1" fold="1" page="1" pageScale="1" pageWidth="827" pageHeight="1169" background="none" math="0" shadow="0">
      <root>
        <mxCell id="0" />
        <mxCell id="1" parent="0" />
        <mxCell id="qsE9WDBoIMnog5az0jkp-30" value="" style="rounded=0;whiteSpace=wrap;html=1;strokeColor=none;" vertex="1" parent="1">
          <mxGeometry x="1880.5" y="930.35" width="109.5" height="109.65" as="geometry" />
        </mxCell>
        <mxCell id="VyL4msLL5mBvCgvJJlau-7" value="" style="rounded=0;whiteSpace=wrap;html=1;fillColor=#000000;fontColor=#333333;strokeColor=none;" parent="1" vertex="1">
          <mxGeometry x="1470" y="960" width="10" height="50" as="geometry" />
        </mxCell>
        <mxCell id="a-lxkenw6U9x66Lslpul-57" value="" style="rounded=1;whiteSpace=wrap;html=1;fillColor=#647687;fontColor=#ffffff;strokeColor=#314354;" parent="1" vertex="1">
          <mxGeometry x="2000" y="1393.65" width="20" height="70" as="geometry" />
        </mxCell>
        <mxCell id="a-lxkenw6U9x66Lslpul-58" value="" style="rounded=1;whiteSpace=wrap;html=1;fillColor=#647687;fontColor=#ffffff;strokeColor=#314354;" parent="1" vertex="1">
          <mxGeometry x="2020" y="1393.65" width="20" height="70" as="geometry" />
        </mxCell>
        <mxCell id="a-lxkenw6U9x66Lslpul-52" value="" style="rounded=1;whiteSpace=wrap;html=1;fillColor=#647687;fontColor=#ffffff;strokeColor=#314354;" parent="1" vertex="1">
          <mxGeometry x="1420" y="930" width="20" height="110" as="geometry" />
        </mxCell>
        <mxCell id="a-lxkenw6U9x66Lslpul-53" value="" style="rounded=1;whiteSpace=wrap;html=1;fillColor=#647687;fontColor=#ffffff;strokeColor=#314354;" parent="1" vertex="1">
          <mxGeometry x="1440" y="930" width="20" height="110" as="geometry" />
        </mxCell>
        <mxCell id="nTul7E7G8EDoIA5eJWGi-176" value="&lt;p style=&quot;margin:0px;margin-top:4px;margin-left:10px;text-align:left;&quot;&gt;&lt;b&gt;ラダー部&lt;/b&gt;&lt;br&gt;&lt;/p&gt;" style="html=1;shape=mxgraph.sysml.package;html=1;overflow=fill;whiteSpace=wrap;labelX=69.19;" parent="1" vertex="1">
          <mxGeometry x="1720" y="640" width="120" height="160" as="geometry" />
        </mxCell>
        <mxCell id="nTul7E7G8EDoIA5eJWGi-175" value="&lt;p style=&quot;margin:0px;margin-top:4px;margin-left:10px;text-align:left;&quot;&gt;&lt;b&gt;エアデータ電装部(左)&lt;/b&gt;&lt;/p&gt;" style="html=1;shape=mxgraph.sysml.package;html=1;overflow=fill;whiteSpace=wrap;labelX=139.88;" parent="1" vertex="1">
          <mxGeometry x="1320" y="40" width="360" height="240" as="geometry" />
        </mxCell>
        <mxCell id="nTul7E7G8EDoIA5eJWGi-174" value="&lt;p style=&quot;margin:0px;margin-top:4px;margin-left:10px;text-align:left;&quot;&gt;&lt;b&gt;機体下電装部&lt;/b&gt;&lt;br&gt;&lt;/p&gt;" style="html=1;shape=mxgraph.sysml.package;html=1;overflow=fill;whiteSpace=wrap;labelX=88.6;" parent="1" vertex="1">
          <mxGeometry x="880" y="40" width="360" height="240" as="geometry" />
        </mxCell>
        <mxCell id="nTul7E7G8EDoIA5eJWGi-172" value="&lt;p style=&quot;margin:0px;margin-top:4px;margin-left:10px;text-align:left;&quot;&gt;&lt;b&gt;ジョイスティック電装部&lt;/b&gt;&lt;br&gt;&lt;/p&gt;" style="html=1;shape=mxgraph.sysml.package;html=1;overflow=fill;whiteSpace=wrap;labelX=149;" parent="1" vertex="1">
          <mxGeometry x="880" y="520" width="240" height="200" as="geometry" />
        </mxCell>
        <mxCell id="nTul7E7G8EDoIA5eJWGi-171" value="&lt;p style=&quot;margin:0px;margin-top:4px;margin-left:10px;text-align:left;&quot;&gt;&lt;b&gt;スピーカー部&lt;/b&gt;&lt;br&gt;&lt;/p&gt;" style="html=1;shape=mxgraph.sysml.package;html=1;overflow=fill;whiteSpace=wrap;labelX=92.2;" parent="1" vertex="1">
          <mxGeometry x="1020" y="320" width="100" height="160" as="geometry" />
        </mxCell>
        <mxCell id="nTul7E7G8EDoIA5eJWGi-167" value="" style="group" parent="1" connectable="0" vertex="1">
          <mxGeometry x="915" y="560" width="185" height="120" as="geometry" />
        </mxCell>
        <mxCell id="nTul7E7G8EDoIA5eJWGi-1" value="　操舵マイコン&#xa;　  　(XIAO)&#xa;" style="whiteSpace=wrap;align=left;fillColor=#ffe6cc;strokeColor=#d79b00;" parent="nTul7E7G8EDoIA5eJWGi-167" vertex="1">
          <mxGeometry width="169.99965859820423" height="120" as="geometry" />
        </mxCell>
        <mxCell id="nTul7E7G8EDoIA5eJWGi-5" value="サーボTX" style="html=1;shape=mxgraph.sysml.port;html=1;resizable=0;sysMLPortType=flowE;labelPosition=left;verticalLabelPosition=middle;align=right;verticalAlign=middle;fillOpacity=100;" parent="nTul7E7G8EDoIA5eJWGi-1" vertex="1">
          <mxGeometry x="1" width="20" height="20" relative="1" as="geometry">
            <mxPoint x="-10" y="10" as="offset" />
          </mxGeometry>
        </mxCell>
        <mxCell id="nTul7E7G8EDoIA5eJWGi-6" value="サーボRX" style="html=1;shape=mxgraph.sysml.port;html=1;resizable=0;sysMLPortType=flowW;labelPosition=left;verticalLabelPosition=middle;align=right;verticalAlign=middle;" parent="nTul7E7G8EDoIA5eJWGi-1" vertex="1">
          <mxGeometry x="1" y="1" width="20" height="20" relative="1" as="geometry">
            <mxPoint x="-10" y="-47" as="offset" />
          </mxGeometry>
        </mxCell>
        <mxCell id="nTul7E7G8EDoIA5eJWGi-10" style="edgeStyle=orthogonalEdgeStyle;rounded=0;orthogonalLoop=1;jettySize=auto;html=1;exitX=1;exitY=0.5;exitDx=0;exitDy=0;exitPerimeter=0;entryX=0;entryY=0.5;entryDx=0;entryDy=0;entryPerimeter=0;" parent="nTul7E7G8EDoIA5eJWGi-1" source="nTul7E7G8EDoIA5eJWGi-5" edge="1">
          <mxGeometry relative="1" as="geometry" />
        </mxCell>
        <mxCell id="nTul7E7G8EDoIA5eJWGi-11" style="edgeStyle=orthogonalEdgeStyle;rounded=0;orthogonalLoop=1;jettySize=auto;html=1;exitX=1;exitY=0.5;exitDx=0;exitDy=0;exitPerimeter=0;entryX=0;entryY=0.5;entryDx=0;entryDy=0;entryPerimeter=0;" parent="nTul7E7G8EDoIA5eJWGi-1" source="nTul7E7G8EDoIA5eJWGi-6" edge="1">
          <mxGeometry relative="1" as="geometry" />
        </mxCell>
        <mxCell id="nTul7E7G8EDoIA5eJWGi-12" style="edgeStyle=orthogonalEdgeStyle;rounded=0;orthogonalLoop=1;jettySize=auto;html=1;exitX=1;exitY=0.5;exitDx=0;exitDy=0;exitPerimeter=0;entryX=0;entryY=0.5;entryDx=0;entryDy=0;entryPerimeter=0;" parent="nTul7E7G8EDoIA5eJWGi-1" source="nTul7E7G8EDoIA5eJWGi-6" edge="1">
          <mxGeometry relative="1" as="geometry" />
        </mxCell>
        <mxCell id="nTul7E7G8EDoIA5eJWGi-162" value="&lt;span style=&quot;text-align: center;&quot;&gt;サーボEN&lt;/span&gt;" style="html=1;shape=mxgraph.sysml.port;html=1;resizable=0;sysMLPortType=flowE;labelPosition=left;verticalLabelPosition=middle;align=right;verticalAlign=middle;fillOpacity=100;" parent="nTul7E7G8EDoIA5eJWGi-167" vertex="1">
          <mxGeometry x="159.99943099700707" y="42.4" width="20" height="20" as="geometry" />
        </mxCell>
        <mxCell id="nTul7E7G8EDoIA5eJWGi-13" value="&lt;p style=&quot;margin:0px;margin-top:4px;margin-left:10px;text-align:left;&quot;&gt;&lt;b&gt;メイン電装部&lt;/b&gt;&lt;/p&gt;" style="html=1;shape=mxgraph.sysml.package;labelX=100;align=left;spacingLeft=10;html=1;overflow=fill;whiteSpace=wrap;recursiveResize=0;" parent="1" vertex="1">
          <mxGeometry x="1160" y="320" width="520" height="400" as="geometry" />
        </mxCell>
        <mxCell id="nTul7E7G8EDoIA5eJWGi-28" value="メインマイコン (Arduino Due)" style="whiteSpace=wrap;align=center;fillColor=#47978e;strokeColor=#82b366;fontColor=#FFFFFF;verticalAlign=middle;" parent="1" vertex="1">
          <mxGeometry x="1310" y="360" width="240" height="160" as="geometry" />
        </mxCell>
        <mxCell id="nTul7E7G8EDoIA5eJWGi-29" value="&lt;span style=&quot;text-align: left;&quot;&gt;Alt Data (UART)&lt;/span&gt;" style="html=1;shape=mxgraph.sysml.port;html=1;resizable=0;sysMLPortType=flowS;labelPosition=center;verticalLabelPosition=bottom;align=center;verticalAlign=top;" parent="nTul7E7G8EDoIA5eJWGi-28" vertex="1">
          <mxGeometry width="20" height="20" relative="1" as="geometry">
            <mxPoint x="50" y="-10" as="offset" />
          </mxGeometry>
        </mxCell>
        <mxCell id="nTul7E7G8EDoIA5eJWGi-30" value="Air Data (UART)" style="html=1;shape=mxgraph.sysml.port;html=1;resizable=0;sysMLPortType=flowS;labelPosition=center;verticalLabelPosition=bottom;align=center;verticalAlign=top;" parent="nTul7E7G8EDoIA5eJWGi-28" vertex="1">
          <mxGeometry x="1" width="20" height="20" relative="1" as="geometry">
            <mxPoint x="-70" y="-10" as="offset" />
          </mxGeometry>
        </mxCell>
        <mxCell id="nTul7E7G8EDoIA5eJWGi-31" value="音声(I2C1)" style="html=1;shape=mxgraph.sysml.port;html=1;resizable=0;sysMLPortType=flowW;labelPosition=right;verticalLabelPosition=middle;align=left;verticalAlign=middle;" parent="nTul7E7G8EDoIA5eJWGi-28" vertex="1">
          <mxGeometry width="20" height="20" relative="1" as="geometry">
            <mxPoint x="-10" y="40" as="offset" />
          </mxGeometry>
        </mxCell>
        <mxCell id="nTul7E7G8EDoIA5eJWGi-159" style="edgeStyle=orthogonalEdgeStyle;rounded=0;orthogonalLoop=1;jettySize=auto;html=1;exitX=0;exitY=0.5;exitDx=0;exitDy=0;exitPerimeter=0;entryX=1;entryY=0.5;entryDx=0;entryDy=0;strokeColor=#000000;fontColor=#CCCCCC;" parent="nTul7E7G8EDoIA5eJWGi-28" source="nTul7E7G8EDoIA5eJWGi-31" target="nTul7E7G8EDoIA5eJWGi-145" edge="1">
          <mxGeometry relative="1" as="geometry" />
        </mxCell>
        <mxCell id="nTul7E7G8EDoIA5eJWGi-158" style="edgeStyle=orthogonalEdgeStyle;rounded=0;orthogonalLoop=1;jettySize=auto;html=1;exitX=1;exitY=0.5;exitDx=0;exitDy=0;exitPerimeter=0;entryX=0;entryY=0.5;entryDx=0;entryDy=0;strokeColor=#000000;fontColor=#CCCCCC;" parent="nTul7E7G8EDoIA5eJWGi-28" source="nTul7E7G8EDoIA5eJWGi-33" target="nTul7E7G8EDoIA5eJWGi-143" edge="1">
          <mxGeometry relative="1" as="geometry" />
        </mxCell>
        <mxCell id="nTul7E7G8EDoIA5eJWGi-32" value="ラダー操作(UART)" style="html=1;shape=mxgraph.sysml.port;html=1;resizable=0;sysMLPortType=flowE;labelPosition=right;verticalLabelPosition=middle;align=left;verticalAlign=middle;" parent="nTul7E7G8EDoIA5eJWGi-28" vertex="1">
          <mxGeometry y="1" width="20" height="20" relative="1" as="geometry">
            <mxPoint x="-10" y="-60" as="offset" />
          </mxGeometry>
        </mxCell>
        <mxCell id="nTul7E7G8EDoIA5eJWGi-33" value="SD(SPI)" style="html=1;shape=mxgraph.sysml.port;html=1;resizable=0;sysMLPortType=flowE;labelPosition=left;verticalLabelPosition=middle;align=right;verticalAlign=middle;fillOpacity=100;" parent="nTul7E7G8EDoIA5eJWGi-28" vertex="1">
          <mxGeometry x="1" width="20" height="20" relative="1" as="geometry">
            <mxPoint x="-10" y="40" as="offset" />
          </mxGeometry>
        </mxCell>
        <mxCell id="nTul7E7G8EDoIA5eJWGi-34" value="&lt;span style=&quot;text-align: center;&quot;&gt;IMU(I2C0)&lt;/span&gt;" style="html=1;shape=mxgraph.sysml.port;html=1;resizable=0;sysMLPortType=flowW;labelPosition=left;verticalLabelPosition=middle;align=right;verticalAlign=middle;" parent="nTul7E7G8EDoIA5eJWGi-28" vertex="1">
          <mxGeometry x="1" y="1" width="20" height="20" relative="1" as="geometry">
            <mxPoint x="-10" y="-60" as="offset" />
          </mxGeometry>
        </mxCell>
        <mxCell id="nTul7E7G8EDoIA5eJWGi-35" value="気圧(I2C0)" style="html=1;shape=mxgraph.sysml.port;html=1;resizable=0;sysMLPortType=flowW;labelPosition=center;verticalLabelPosition=top;align=center;verticalAlign=bottom;direction=south;" parent="nTul7E7G8EDoIA5eJWGi-28" vertex="1">
          <mxGeometry y="1" width="20" height="20" relative="1" as="geometry">
            <mxPoint x="50" y="-10" as="offset" />
          </mxGeometry>
        </mxCell>
        <mxCell id="nTul7E7G8EDoIA5eJWGi-36" value="GPS・テレメトリ(UART)　　" style="html=1;shape=mxgraph.sysml.port;html=1;resizable=0;sysMLPortType=flowN;labelPosition=center;verticalLabelPosition=top;align=center;verticalAlign=bottom;" parent="nTul7E7G8EDoIA5eJWGi-28" vertex="1">
          <mxGeometry x="1" y="1" width="20" height="20" relative="1" as="geometry">
            <mxPoint x="-70" y="-10" as="offset" />
          </mxGeometry>
        </mxCell>
        <mxCell id="nTul7E7G8EDoIA5eJWGi-38" value="エアデータマイコン (XIAO)" style="whiteSpace=wrap;align=center;fillColor=#fff2cc;strokeColor=#d6b656;" parent="1" vertex="1">
          <mxGeometry x="1410" y="80" width="180" height="160" as="geometry" />
        </mxCell>
        <mxCell id="nTul7E7G8EDoIA5eJWGi-41" value="&lt;span style=&quot;text-align: center;&quot;&gt;差圧 (I2C)&lt;/span&gt;" style="html=1;shape=mxgraph.sysml.port;html=1;resizable=0;sysMLPortType=flowE;labelPosition=right;verticalLabelPosition=middle;align=left;verticalAlign=middle;" parent="nTul7E7G8EDoIA5eJWGi-38" vertex="1">
          <mxGeometry width="20" height="20" relative="1" as="geometry">
            <mxPoint x="-10" y="40" as="offset" />
          </mxGeometry>
        </mxCell>
        <mxCell id="nTul7E7G8EDoIA5eJWGi-42" value="気圧 (I2C)" style="html=1;shape=mxgraph.sysml.port;html=1;resizable=0;sysMLPortType=flowE;labelPosition=right;verticalLabelPosition=middle;align=left;verticalAlign=middle;" parent="nTul7E7G8EDoIA5eJWGi-38" vertex="1">
          <mxGeometry y="1" width="20" height="20" relative="1" as="geometry">
            <mxPoint x="-10" y="-60" as="offset" />
          </mxGeometry>
        </mxCell>
        <mxCell id="nTul7E7G8EDoIA5eJWGi-46" value="データ入出力 (UART)" style="html=1;shape=mxgraph.sysml.port;html=1;resizable=0;sysMLPortType=flowS;labelPosition=center;verticalLabelPosition=top;align=center;verticalAlign=bottom;" parent="nTul7E7G8EDoIA5eJWGi-38" vertex="1">
          <mxGeometry x="1" y="1" width="20" height="20" relative="1" as="geometry">
            <mxPoint x="-70" y="-10" as="offset" />
          </mxGeometry>
        </mxCell>
        <mxCell id="nTul7E7G8EDoIA5eJWGi-182" style="edgeStyle=orthogonalEdgeStyle;rounded=0;orthogonalLoop=1;jettySize=auto;html=1;exitX=0.5;exitY=1;exitDx=0;exitDy=0;exitPerimeter=0;entryX=0.5;entryY=0;entryDx=0;entryDy=0;entryPerimeter=0;strokeColor=#000000;fontColor=#CCCCCC;startArrow=none;startFill=0;" parent="nTul7E7G8EDoIA5eJWGi-38" source="nTul7E7G8EDoIA5eJWGi-46" target="nTul7E7G8EDoIA5eJWGi-30" edge="1">
          <mxGeometry relative="1" as="geometry" />
        </mxCell>
        <mxCell id="GCRpYfJjYsDpDZ8tQqii-14" value="SD(SPI)" style="html=1;shape=mxgraph.sysml.port;html=1;resizable=0;sysMLPortType=flowE;labelPosition=left;verticalLabelPosition=middle;align=right;verticalAlign=middle;fillOpacity=100;" parent="nTul7E7G8EDoIA5eJWGi-38" vertex="1">
          <mxGeometry x="162.85714285714286" y="40" width="20" height="20" as="geometry" />
        </mxCell>
        <mxCell id="nTul7E7G8EDoIA5eJWGi-72" value="機体下マイコン (XIAO)" style="whiteSpace=wrap;align=center;fillColor=#dae8fc;strokeColor=#6c8ebf;" parent="1" vertex="1">
          <mxGeometry x="970" y="80" width="180" height="160" as="geometry" />
        </mxCell>
        <mxCell id="nTul7E7G8EDoIA5eJWGi-75" value="&lt;span style=&quot;text-align: center;&quot;&gt;高度 (ロジック)&lt;/span&gt;" style="html=1;shape=mxgraph.sysml.port;html=1;resizable=0;sysMLPortType=flowE;labelPosition=right;verticalLabelPosition=middle;align=left;verticalAlign=middle;" parent="nTul7E7G8EDoIA5eJWGi-72" vertex="1">
          <mxGeometry width="20" height="20" relative="1" as="geometry">
            <mxPoint x="-10" y="40" as="offset" />
          </mxGeometry>
        </mxCell>
        <mxCell id="nTul7E7G8EDoIA5eJWGi-76" value="気圧 (I2C)" style="html=1;shape=mxgraph.sysml.port;html=1;resizable=0;sysMLPortType=flowE;labelPosition=right;verticalLabelPosition=middle;align=left;verticalAlign=middle;" parent="nTul7E7G8EDoIA5eJWGi-72" vertex="1">
          <mxGeometry y="1" width="20" height="20" relative="1" as="geometry">
            <mxPoint x="-10" y="-60" as="offset" />
          </mxGeometry>
        </mxCell>
        <mxCell id="nTul7E7G8EDoIA5eJWGi-154" style="edgeStyle=orthogonalEdgeStyle;rounded=0;orthogonalLoop=1;jettySize=auto;html=1;exitX=0.5;exitY=0;exitDx=0;exitDy=0;entryX=1;entryY=0.5;entryDx=0;entryDy=0;entryPerimeter=0;strokeColor=#000000;fontColor=#CCCCCC;" parent="1" source="nTul7E7G8EDoIA5eJWGi-141" target="nTul7E7G8EDoIA5eJWGi-35" edge="1">
          <mxGeometry relative="1" as="geometry" />
        </mxCell>
        <mxCell id="nTul7E7G8EDoIA5eJWGi-141" value="DPS310" style="rounded=1;whiteSpace=wrap;html=1;fillColor=#cce5ff;strokeColor=#36393d;" parent="1" vertex="1">
          <mxGeometry x="1345" y="548" width="50" height="20" as="geometry" />
        </mxCell>
        <mxCell id="nTul7E7G8EDoIA5eJWGi-143" value="micro SD" style="rounded=1;whiteSpace=wrap;html=1;fontColor=#ffffff;fillColor=#54b2eb;strokeColor=#006EAF;" parent="1" vertex="1">
          <mxGeometry x="1590" y="400" width="60" height="20" as="geometry" />
        </mxCell>
        <mxCell id="nTul7E7G8EDoIA5eJWGi-183" style="edgeStyle=orthogonalEdgeStyle;rounded=0;orthogonalLoop=1;jettySize=auto;html=1;exitX=0;exitY=0.5;exitDx=0;exitDy=0;entryX=1;entryY=0.5;entryDx=0;entryDy=0;strokeColor=#000000;fontColor=#CCCCCC;startArrow=none;startFill=0;" parent="1" source="nTul7E7G8EDoIA5eJWGi-145" target="nTul7E7G8EDoIA5eJWGi-148" edge="1">
          <mxGeometry relative="1" as="geometry" />
        </mxCell>
        <mxCell id="nTul7E7G8EDoIA5eJWGi-145" value="ATP3012F6-PU" style="rounded=1;whiteSpace=wrap;html=1;fontColor=#ffffff;fillColor=#343637;strokeColor=#314354;" parent="1" vertex="1">
          <mxGeometry x="1181" y="400" width="99" height="20" as="geometry" />
        </mxCell>
        <mxCell id="nTul7E7G8EDoIA5eJWGi-157" style="edgeStyle=orthogonalEdgeStyle;rounded=0;orthogonalLoop=1;jettySize=auto;html=1;exitX=0;exitY=0.5;exitDx=0;exitDy=0;entryX=1;entryY=0.5;entryDx=0;entryDy=0;entryPerimeter=0;strokeColor=#000000;fontColor=#CCCCCC;" parent="1" source="nTul7E7G8EDoIA5eJWGi-146" target="nTul7E7G8EDoIA5eJWGi-34" edge="1">
          <mxGeometry relative="1" as="geometry" />
        </mxCell>
        <mxCell id="nTul7E7G8EDoIA5eJWGi-146" value="BNO055" style="rounded=1;whiteSpace=wrap;html=1;fontColor=#ffffff;fillColor=#6fad6d;strokeColor=#2D7600;" parent="1" vertex="1">
          <mxGeometry x="1590" y="460" width="60" height="20" as="geometry" />
        </mxCell>
        <mxCell id="nTul7E7G8EDoIA5eJWGi-148" value="スピーカー" style="rounded=1;whiteSpace=wrap;html=1;fontColor=#ffffff;fillColor=#3a3e32;strokeColor=#314354;" parent="1" vertex="1">
          <mxGeometry x="1035" y="400" width="70" height="20" as="geometry" />
        </mxCell>
        <mxCell id="GCRpYfJjYsDpDZ8tQqii-79" style="edgeStyle=orthogonalEdgeStyle;rounded=0;orthogonalLoop=1;jettySize=auto;html=1;exitX=0.5;exitY=0;exitDx=0;exitDy=0;entryX=1;entryY=0.5;entryDx=0;entryDy=0;entryPerimeter=0;fontSize=8;endArrow=classic;endFill=1;" parent="1" source="nTul7E7G8EDoIA5eJWGi-149" target="GCRpYfJjYsDpDZ8tQqii-77" edge="1">
          <mxGeometry relative="1" as="geometry" />
        </mxCell>
        <mxCell id="nTul7E7G8EDoIA5eJWGi-149" value="ジョイスティック" style="rounded=1;whiteSpace=wrap;html=1;fontColor=#ffffff;fillColor=#8f8f8f;strokeColor=#314354;" parent="1" vertex="1">
          <mxGeometry x="940" y="750" width="120" height="20" as="geometry" />
        </mxCell>
        <mxCell id="nTul7E7G8EDoIA5eJWGi-152" value="サーボモーター&lt;br&gt;KRS4034" style="rounded=1;whiteSpace=wrap;html=1;fontColor=#ffffff;fillColor=#4c4b4e;strokeColor=#314354;" parent="1" vertex="1">
          <mxGeometry x="1735" y="700" width="90" height="60" as="geometry" />
        </mxCell>
        <mxCell id="nTul7E7G8EDoIA5eJWGi-165" style="edgeStyle=orthogonalEdgeStyle;rounded=0;orthogonalLoop=1;jettySize=auto;html=1;exitX=1;exitY=0.5;exitDx=0;exitDy=0;exitPerimeter=0;entryX=0;entryY=0.5;entryDx=0;entryDy=0;entryPerimeter=0;strokeColor=#000000;fontColor=#CCCCCC;" parent="1" source="nTul7E7G8EDoIA5eJWGi-162" target="nTul7E7G8EDoIA5eJWGi-163" edge="1">
          <mxGeometry relative="1" as="geometry" />
        </mxCell>
        <mxCell id="nTul7E7G8EDoIA5eJWGi-164" style="edgeStyle=orthogonalEdgeStyle;rounded=0;orthogonalLoop=1;jettySize=auto;html=1;exitX=1;exitY=0.5;exitDx=0;exitDy=0;exitPerimeter=0;entryX=0;entryY=0.5;entryDx=0;entryDy=0;entryPerimeter=0;strokeColor=#000000;fontColor=#CCCCCC;" parent="1" source="nTul7E7G8EDoIA5eJWGi-5" target="nTul7E7G8EDoIA5eJWGi-22" edge="1">
          <mxGeometry relative="1" as="geometry" />
        </mxCell>
        <mxCell id="nTul7E7G8EDoIA5eJWGi-166" style="edgeStyle=orthogonalEdgeStyle;rounded=0;orthogonalLoop=1;jettySize=auto;html=1;exitX=0;exitY=0.5;exitDx=0;exitDy=0;exitPerimeter=0;entryX=1;entryY=0.5;entryDx=0;entryDy=0;entryPerimeter=0;strokeColor=#000000;fontColor=#CCCCCC;" parent="1" source="nTul7E7G8EDoIA5eJWGi-23" target="nTul7E7G8EDoIA5eJWGi-6" edge="1">
          <mxGeometry relative="1" as="geometry" />
        </mxCell>
        <mxCell id="nTul7E7G8EDoIA5eJWGi-173" style="edgeStyle=orthogonalEdgeStyle;rounded=0;orthogonalLoop=1;jettySize=auto;html=1;exitX=1;exitY=0.5;exitDx=0;exitDy=0;exitPerimeter=0;entryX=0;entryY=0.5;entryDx=0;entryDy=0;entryPerimeter=0;strokeColor=#000000;fontColor=#CCCCCC;" parent="1" source="nTul7E7G8EDoIA5eJWGi-5" target="nTul7E7G8EDoIA5eJWGi-32" edge="1">
          <mxGeometry relative="1" as="geometry">
            <Array as="points">
              <mxPoint x="1230" y="580" />
              <mxPoint x="1230" y="470" />
            </Array>
          </mxGeometry>
        </mxCell>
        <mxCell id="TobsCmHazJvZWz-I_Zsi-1" value="&lt;p style=&quot;margin:0px;margin-top:4px;margin-left:10px;text-align:left;&quot;&gt;&lt;b&gt;カメラ&lt;/b&gt;&lt;/p&gt;" style="html=1;shape=mxgraph.sysml.package;html=1;overflow=fill;whiteSpace=wrap;labelX=57.64;" parent="1" vertex="1">
          <mxGeometry x="880" y="320" width="120" height="160" as="geometry" />
        </mxCell>
        <mxCell id="TobsCmHazJvZWz-I_Zsi-3" value="" style="ellipse;whiteSpace=wrap;html=1;aspect=fixed;strokeColor=#B3B3B3;fillColor=#B3B3B3;" parent="1" vertex="1">
          <mxGeometry x="920" y="385" width="40" height="40" as="geometry" />
        </mxCell>
        <mxCell id="TobsCmHazJvZWz-I_Zsi-2" value="JOY700" style="whiteSpace=wrap;html=1;fillColor=#3B3B3B;strokeColor=#314354;fontColor=#ffffff;" parent="1" vertex="1">
          <mxGeometry x="915" y="405" width="50" height="30" as="geometry" />
        </mxCell>
        <mxCell id="GCRpYfJjYsDpDZ8tQqii-2" value="&lt;p style=&quot;margin:0px;margin-top:4px;margin-left:10px;text-align:left;&quot;&gt;&lt;b&gt;無線ハブ&lt;/b&gt;&lt;/p&gt;" style="html=1;shape=mxgraph.sysml.package;html=1;overflow=fill;whiteSpace=wrap;labelX=70.36;" parent="1" vertex="1">
          <mxGeometry x="1720" y="440" width="120" height="160" as="geometry" />
        </mxCell>
        <mxCell id="GCRpYfJjYsDpDZ8tQqii-7" style="edgeStyle=orthogonalEdgeStyle;rounded=0;orthogonalLoop=1;jettySize=auto;html=1;exitX=0.5;exitY=1;exitDx=0;exitDy=0;fontSize=9;endArrow=none;endFill=0;" parent="1" source="GCRpYfJjYsDpDZ8tQqii-3" target="GCRpYfJjYsDpDZ8tQqii-4" edge="1">
          <mxGeometry relative="1" as="geometry" />
        </mxCell>
        <mxCell id="GCRpYfJjYsDpDZ8tQqii-3" value="TWELITE" style="rounded=1;whiteSpace=wrap;html=1;fontColor=#ffffff;fillColor=#d80073;strokeColor=#A50040;" parent="1" vertex="1">
          <mxGeometry x="1730" y="470" width="100" height="40" as="geometry" />
        </mxCell>
        <mxCell id="GCRpYfJjYsDpDZ8tQqii-4" value="GPS&lt;br&gt;&lt;font style=&quot;font-size: 9px;&quot;&gt;GT-902PMGG&lt;/font&gt;" style="rounded=1;whiteSpace=wrap;html=1;fontColor=#ffffff;fillColor=#383b3b;strokeColor=#314354;" parent="1" vertex="1">
          <mxGeometry x="1730" y="551" width="100" height="39" as="geometry" />
        </mxCell>
        <mxCell id="nTul7E7G8EDoIA5eJWGi-155" style="edgeStyle=orthogonalEdgeStyle;rounded=0;orthogonalLoop=1;jettySize=auto;html=1;exitX=0.5;exitY=0;exitDx=0;exitDy=0;entryX=0.5;entryY=1;entryDx=0;entryDy=0;entryPerimeter=0;strokeColor=#000000;fontColor=#CCCCCC;" parent="1" source="GCRpYfJjYsDpDZ8tQqii-4" target="nTul7E7G8EDoIA5eJWGi-36" edge="1">
          <mxGeometry relative="1" as="geometry">
            <mxPoint x="1570" y="550" as="sourcePoint" />
            <Array as="points">
              <mxPoint x="1780" y="540" />
              <mxPoint x="1490" y="540" />
            </Array>
          </mxGeometry>
        </mxCell>
        <mxCell id="GCRpYfJjYsDpDZ8tQqii-8" value="TX" style="text;html=1;strokeColor=none;fillColor=none;align=center;verticalAlign=middle;whiteSpace=wrap;rounded=0;fontSize=9;" parent="1" vertex="1">
          <mxGeometry x="1780" y="510" width="20" height="15" as="geometry" />
        </mxCell>
        <mxCell id="GCRpYfJjYsDpDZ8tQqii-9" value="RX" style="text;html=1;strokeColor=none;fillColor=none;align=center;verticalAlign=middle;whiteSpace=wrap;rounded=0;fontSize=9;" parent="1" vertex="1">
          <mxGeometry x="1780" y="536" width="20" height="15" as="geometry" />
        </mxCell>
        <mxCell id="GCRpYfJjYsDpDZ8tQqii-10" style="edgeStyle=orthogonalEdgeStyle;rounded=0;orthogonalLoop=1;jettySize=auto;html=1;exitX=1;exitY=0.5;exitDx=0;exitDy=0;exitPerimeter=0;entryX=0;entryY=0.5;entryDx=0;entryDy=0;strokeColor=#000000;fontColor=#CCCCCC;" parent="1" source="GCRpYfJjYsDpDZ8tQqii-11" target="GCRpYfJjYsDpDZ8tQqii-12" edge="1">
          <mxGeometry relative="1" as="geometry" />
        </mxCell>
        <mxCell id="GCRpYfJjYsDpDZ8tQqii-11" value="SD(SPI)" style="html=1;shape=mxgraph.sysml.port;html=1;resizable=0;sysMLPortType=flowE;labelPosition=left;verticalLabelPosition=middle;align=right;verticalAlign=middle;fillOpacity=100;" parent="1" vertex="1">
          <mxGeometry x="1140" y="120" width="20" height="20" as="geometry" />
        </mxCell>
        <mxCell id="GCRpYfJjYsDpDZ8tQqii-12" value="micro SD" style="rounded=1;whiteSpace=wrap;html=1;fontColor=#ffffff;fillColor=#54b2eb;strokeColor=#006EAF;" parent="1" vertex="1">
          <mxGeometry x="1175" y="120" width="60" height="20" as="geometry" />
        </mxCell>
        <mxCell id="GCRpYfJjYsDpDZ8tQqii-15" value="micro SD" style="rounded=1;whiteSpace=wrap;html=1;fontColor=#ffffff;fillColor=#54b2eb;strokeColor=#006EAF;" parent="1" vertex="1">
          <mxGeometry x="1610" y="120" width="60" height="20" as="geometry" />
        </mxCell>
        <mxCell id="GCRpYfJjYsDpDZ8tQqii-24" style="edgeStyle=orthogonalEdgeStyle;rounded=0;orthogonalLoop=1;jettySize=auto;html=1;exitX=1;exitY=0.5;exitDx=0;exitDy=0;entryX=0;entryY=0.5;entryDx=0;entryDy=0;entryPerimeter=0;fontSize=9;endArrow=classic;endFill=1;" parent="1" source="GCRpYfJjYsDpDZ8tQqii-21" target="nTul7E7G8EDoIA5eJWGi-76" edge="1">
          <mxGeometry relative="1" as="geometry" />
        </mxCell>
        <mxCell id="GCRpYfJjYsDpDZ8tQqii-21" value="DPS310" style="rounded=1;whiteSpace=wrap;html=1;fillColor=#cce5ff;strokeColor=#36393d;" parent="1" vertex="1">
          <mxGeometry x="890" y="180" width="50" height="20" as="geometry" />
        </mxCell>
        <mxCell id="GCRpYfJjYsDpDZ8tQqii-23" style="edgeStyle=orthogonalEdgeStyle;rounded=0;orthogonalLoop=1;jettySize=auto;html=1;exitX=1;exitY=0.5;exitDx=0;exitDy=0;entryX=0;entryY=0.5;entryDx=0;entryDy=0;entryPerimeter=0;fontSize=9;endArrow=classic;endFill=1;" parent="1" source="GCRpYfJjYsDpDZ8tQqii-22" target="nTul7E7G8EDoIA5eJWGi-75" edge="1">
          <mxGeometry relative="1" as="geometry" />
        </mxCell>
        <mxCell id="GCRpYfJjYsDpDZ8tQqii-22" value="URM37" style="rounded=1;whiteSpace=wrap;html=1;fillColor=#647687;strokeColor=#314354;fontColor=#ffffff;" parent="1" vertex="1">
          <mxGeometry x="890" y="120" width="50" height="20" as="geometry" />
        </mxCell>
        <mxCell id="GCRpYfJjYsDpDZ8tQqii-28" style="edgeStyle=orthogonalEdgeStyle;rounded=0;orthogonalLoop=1;jettySize=auto;html=1;exitX=1;exitY=0.5;exitDx=0;exitDy=0;entryX=0;entryY=0.5;entryDx=0;entryDy=0;entryPerimeter=0;fontSize=9;endArrow=classic;endFill=1;" parent="1" source="GCRpYfJjYsDpDZ8tQqii-25" target="nTul7E7G8EDoIA5eJWGi-42" edge="1">
          <mxGeometry relative="1" as="geometry" />
        </mxCell>
        <mxCell id="GCRpYfJjYsDpDZ8tQqii-25" value="DPS310" style="rounded=1;whiteSpace=wrap;html=1;fillColor=#cce5ff;strokeColor=#36393d;" parent="1" vertex="1">
          <mxGeometry x="1330" y="180" width="50" height="20" as="geometry" />
        </mxCell>
        <mxCell id="GCRpYfJjYsDpDZ8tQqii-27" style="edgeStyle=orthogonalEdgeStyle;rounded=0;orthogonalLoop=1;jettySize=auto;html=1;exitX=1;exitY=0.5;exitDx=0;exitDy=0;entryX=0;entryY=0.5;entryDx=0;entryDy=0;entryPerimeter=0;fontSize=9;endArrow=classic;endFill=1;" parent="1" source="GCRpYfJjYsDpDZ8tQqii-26" target="nTul7E7G8EDoIA5eJWGi-41" edge="1">
          <mxGeometry relative="1" as="geometry" />
        </mxCell>
        <mxCell id="GCRpYfJjYsDpDZ8tQqii-26" value="SDP810" style="rounded=1;whiteSpace=wrap;html=1;fillColor=#647687;strokeColor=#314354;fontColor=#ffffff;" parent="1" vertex="1">
          <mxGeometry x="1330" y="120" width="50" height="20" as="geometry" />
        </mxCell>
        <mxCell id="GCRpYfJjYsDpDZ8tQqii-30" style="edgeStyle=orthogonalEdgeStyle;rounded=0;orthogonalLoop=1;jettySize=auto;html=1;exitX=1;exitY=0.5;exitDx=0;exitDy=0;exitPerimeter=0;entryX=0;entryY=0.5;entryDx=0;entryDy=0;fontSize=9;endArrow=classic;endFill=1;" parent="1" source="GCRpYfJjYsDpDZ8tQqii-14" target="GCRpYfJjYsDpDZ8tQqii-15" edge="1">
          <mxGeometry relative="1" as="geometry" />
        </mxCell>
        <mxCell id="GCRpYfJjYsDpDZ8tQqii-39" value="右エアデータ&#xa;マイコン&#xa;(XIAO nRF Sense)&#xa;" style="whiteSpace=wrap;align=center;fontSize=9;fillColor=#e1d5e7;strokeColor=#9673a6;" parent="1" vertex="1">
          <mxGeometry x="1730" y="120" width="100" height="140" as="geometry" />
        </mxCell>
        <mxCell id="GCRpYfJjYsDpDZ8tQqii-40" value="気圧(I2C)　" style="html=1;shape=mxgraph.sysml.port;html=1;resizable=0;sysMLPortType=flowS;labelPosition=center;verticalLabelPosition=bottom;align=center;verticalAlign=top;fontSize=9;" parent="GCRpYfJjYsDpDZ8tQqii-39" vertex="1">
          <mxGeometry width="20" height="20" relative="1" as="geometry">
            <mxPoint x="70" y="-10" as="offset" />
          </mxGeometry>
        </mxCell>
        <mxCell id="GCRpYfJjYsDpDZ8tQqii-41" value="　差圧(I2C)" style="html=1;shape=mxgraph.sysml.port;html=1;resizable=0;sysMLPortType=empty;labelPosition=center;verticalLabelPosition=bottom;align=center;verticalAlign=top;fontSize=9;" parent="GCRpYfJjYsDpDZ8tQqii-39" vertex="1">
          <mxGeometry x="1" width="20" height="20" relative="1" as="geometry">
            <mxPoint x="-90" y="-10" as="offset" />
          </mxGeometry>
        </mxCell>
        <mxCell id="GCRpYfJjYsDpDZ8tQqii-46" value="&lt;span style=&quot;font-size: 12px; text-align: right;&quot;&gt;SD(SPI)　&lt;br&gt;&lt;/span&gt;" style="html=1;shape=mxgraph.sysml.port;html=1;resizable=0;sysMLPortType=flowN;labelPosition=center;verticalLabelPosition=top;align=center;verticalAlign=bottom;fontSize=9;" parent="GCRpYfJjYsDpDZ8tQqii-39" vertex="1">
          <mxGeometry y="1" width="20" height="20" relative="1" as="geometry">
            <mxPoint x="70" y="-10" as="offset" />
          </mxGeometry>
        </mxCell>
        <mxCell id="GCRpYfJjYsDpDZ8tQqii-47" value="電源" style="html=1;shape=mxgraph.sysml.port;html=1;resizable=0;sysMLPortType=doubleV;labelPosition=center;verticalLabelPosition=top;align=center;verticalAlign=bottom;fontSize=9;" parent="GCRpYfJjYsDpDZ8tQqii-39" vertex="1">
          <mxGeometry x="1" y="1" width="20" height="20" relative="1" as="geometry">
            <mxPoint x="-90" y="-10" as="offset" />
          </mxGeometry>
        </mxCell>
        <mxCell id="GCRpYfJjYsDpDZ8tQqii-50" value="" style="html=1;shape=mxgraph.sysml.port;html=1;resizable=0;sysMLPortType=flowS;labelPosition=center;verticalLabelPosition=bottom;align=center;verticalAlign=top;fontSize=9;" parent="GCRpYfJjYsDpDZ8tQqii-39" vertex="1">
          <mxGeometry x="10" y="-10" width="20" height="20" as="geometry" />
        </mxCell>
        <mxCell id="GCRpYfJjYsDpDZ8tQqii-70" value="内蔵IMU" style="rounded=1;whiteSpace=wrap;html=1;fillColor=#d5e8d4;strokeColor=#82b366;" parent="GCRpYfJjYsDpDZ8tQqii-39" vertex="1">
          <mxGeometry x="20" y="90" width="60" height="20" as="geometry" />
        </mxCell>
        <mxCell id="GCRpYfJjYsDpDZ8tQqii-55" style="edgeStyle=orthogonalEdgeStyle;rounded=0;orthogonalLoop=1;jettySize=auto;html=1;exitX=0.5;exitY=1;exitDx=0;exitDy=0;entryX=0.5;entryY=0;entryDx=0;entryDy=0;entryPerimeter=0;fontSize=9;endArrow=classic;endFill=1;" parent="1" source="GCRpYfJjYsDpDZ8tQqii-48" target="GCRpYfJjYsDpDZ8tQqii-50" edge="1">
          <mxGeometry relative="1" as="geometry" />
        </mxCell>
        <mxCell id="GCRpYfJjYsDpDZ8tQqii-48" value="SDP810" style="rounded=1;whiteSpace=wrap;html=1;fillColor=#647687;strokeColor=#314354;fontColor=#ffffff;" parent="1" vertex="1">
          <mxGeometry x="1727" y="70" width="50" height="20" as="geometry" />
        </mxCell>
        <mxCell id="GCRpYfJjYsDpDZ8tQqii-56" style="edgeStyle=orthogonalEdgeStyle;rounded=0;orthogonalLoop=1;jettySize=auto;html=1;exitX=0.5;exitY=1;exitDx=0;exitDy=0;entryX=0.5;entryY=0;entryDx=0;entryDy=0;entryPerimeter=0;fontSize=9;endArrow=classic;endFill=1;" parent="1" source="GCRpYfJjYsDpDZ8tQqii-49" target="GCRpYfJjYsDpDZ8tQqii-40" edge="1">
          <mxGeometry relative="1" as="geometry" />
        </mxCell>
        <mxCell id="GCRpYfJjYsDpDZ8tQqii-49" value="DPS310" style="rounded=1;whiteSpace=wrap;html=1;fillColor=#cce5ff;strokeColor=#36393d;" parent="1" vertex="1">
          <mxGeometry x="1783" y="70" width="50" height="20" as="geometry" />
        </mxCell>
        <mxCell id="GCRpYfJjYsDpDZ8tQqii-54" style="edgeStyle=orthogonalEdgeStyle;rounded=0;orthogonalLoop=1;jettySize=auto;html=1;exitX=0.75;exitY=0;exitDx=0;exitDy=0;entryX=0.5;entryY=1;entryDx=0;entryDy=0;entryPerimeter=0;fontSize=9;endArrow=classic;endFill=1;" parent="1" source="GCRpYfJjYsDpDZ8tQqii-51" target="GCRpYfJjYsDpDZ8tQqii-46" edge="1">
          <mxGeometry relative="1" as="geometry">
            <Array as="points">
              <mxPoint x="1810" y="290" />
            </Array>
          </mxGeometry>
        </mxCell>
        <mxCell id="GCRpYfJjYsDpDZ8tQqii-51" value="micro SD" style="rounded=1;whiteSpace=wrap;html=1;fontColor=#ffffff;fillColor=#54b2eb;strokeColor=#006EAF;" parent="1" vertex="1">
          <mxGeometry x="1782" y="290" width="57" height="20" as="geometry" />
        </mxCell>
        <mxCell id="GCRpYfJjYsDpDZ8tQqii-65" style="edgeStyle=orthogonalEdgeStyle;rounded=0;orthogonalLoop=1;jettySize=auto;html=1;exitX=0.25;exitY=0;exitDx=0;exitDy=0;entryX=0.25;entryY=1;entryDx=0;entryDy=0;fontSize=9;endArrow=classic;endFill=1;" parent="1" source="GCRpYfJjYsDpDZ8tQqii-57" target="GCRpYfJjYsDpDZ8tQqii-58" edge="1">
          <mxGeometry relative="1" as="geometry">
            <Array as="points">
              <mxPoint x="1736" y="370" />
              <mxPoint x="1736" y="340" />
            </Array>
          </mxGeometry>
        </mxCell>
        <mxCell id="GCRpYfJjYsDpDZ8tQqii-57" value="LiPo 1S" style="rounded=1;whiteSpace=wrap;html=1;fillColor=#d0494d;strokeColor=#B20000;fontColor=#ffffff;" parent="1" vertex="1">
          <mxGeometry x="1730" y="370" width="100" height="20" as="geometry" />
        </mxCell>
        <mxCell id="GCRpYfJjYsDpDZ8tQqii-62" style="edgeStyle=orthogonalEdgeStyle;rounded=0;orthogonalLoop=1;jettySize=auto;html=1;exitX=0.25;exitY=0;exitDx=0;exitDy=0;entryX=0.5;entryY=1;entryDx=0;entryDy=0;entryPerimeter=0;fontSize=9;endArrow=classic;endFill=1;" parent="1" source="GCRpYfJjYsDpDZ8tQqii-58" target="GCRpYfJjYsDpDZ8tQqii-61" edge="1">
          <mxGeometry relative="1" as="geometry">
            <Array as="points">
              <mxPoint x="1750" y="290" />
            </Array>
          </mxGeometry>
        </mxCell>
        <mxCell id="GCRpYfJjYsDpDZ8tQqii-58" value="電源回路" style="rounded=1;whiteSpace=wrap;html=1;fillColor=#fff2cc;strokeColor=#d6b656;" parent="1" vertex="1">
          <mxGeometry x="1721.5" y="290" width="58.5" height="20" as="geometry" />
        </mxCell>
        <mxCell id="GCRpYfJjYsDpDZ8tQqii-61" value="" style="html=1;shape=mxgraph.sysml.port;html=1;resizable=0;sysMLPortType=flowN;labelPosition=center;verticalLabelPosition=top;align=center;verticalAlign=bottom;fontSize=9;" parent="1" vertex="1">
          <mxGeometry x="1740" y="250" width="20" height="20" as="geometry" />
        </mxCell>
        <mxCell id="GCRpYfJjYsDpDZ8tQqii-66" style="edgeStyle=orthogonalEdgeStyle;rounded=0;orthogonalLoop=1;jettySize=auto;html=1;exitX=0.25;exitY=0;exitDx=0;exitDy=0;entryX=0.75;entryY=1;entryDx=0;entryDy=0;fontSize=9;endArrow=classic;endFill=1;" parent="1" source="GCRpYfJjYsDpDZ8tQqii-64" target="GCRpYfJjYsDpDZ8tQqii-58" edge="1">
          <mxGeometry relative="1" as="geometry" />
        </mxCell>
        <mxCell id="GCRpYfJjYsDpDZ8tQqii-64" value="フライトピン" style="rounded=1;whiteSpace=wrap;html=1;fontColor=#333333;fillColor=#f5f5f5;strokeColor=#666666;" parent="1" vertex="1">
          <mxGeometry x="1760" y="330" width="77" height="20" as="geometry" />
        </mxCell>
        <mxCell id="GCRpYfJjYsDpDZ8tQqii-67" value="" style="html=1;shape=mxgraph.sysml.port;html=1;resizable=0;sysMLPortType=flowS;labelPosition=center;verticalLabelPosition=bottom;align=center;verticalAlign=top;fontSize=9;" parent="1" vertex="1">
          <mxGeometry x="1800" y="250" width="20" height="20" as="geometry" />
        </mxCell>
        <mxCell id="nTul7E7G8EDoIA5eJWGi-19" value="ICS変換基板  " style="whiteSpace=wrap;align=right;fillColor=#f5f5f5;fontColor=#333333;strokeColor=#666666;" parent="1" vertex="1">
          <mxGeometry x="1435" y="560" width="160" height="100" as="geometry" />
        </mxCell>
        <mxCell id="nTul7E7G8EDoIA5eJWGi-137" style="edgeStyle=orthogonalEdgeStyle;rounded=0;orthogonalLoop=1;jettySize=auto;html=1;exitX=0.5;exitY=1;exitDx=0;exitDy=0;exitPerimeter=0;entryX=0;entryY=0.5;entryDx=0;entryDy=0;entryPerimeter=0;fontColor=#CCCCCC;strokeColor=#B3B3B3;" parent="nTul7E7G8EDoIA5eJWGi-19" source="nTul7E7G8EDoIA5eJWGi-21" target="nTul7E7G8EDoIA5eJWGi-24" edge="1">
          <mxGeometry relative="1" as="geometry">
            <Array as="points">
              <mxPoint x="80" y="78.57142857142857" />
            </Array>
          </mxGeometry>
        </mxCell>
        <mxCell id="nTul7E7G8EDoIA5eJWGi-21" value="" style="html=1;shape=mxgraph.sysml.port;html=1;resizable=0;sysMLPortType=flowS;labelPosition=center;verticalLabelPosition=bottom;align=center;verticalAlign=top;fillOpacity=100;" parent="nTul7E7G8EDoIA5eJWGi-19" vertex="1">
          <mxGeometry x="1" width="20" height="20" relative="1" as="geometry">
            <mxPoint x="-90" y="90" as="offset" />
          </mxGeometry>
        </mxCell>
        <mxCell id="nTul7E7G8EDoIA5eJWGi-24" value="POWER" style="html=1;shape=mxgraph.sysml.port;html=1;resizable=0;sysMLPortType=flowE;labelPosition=left;verticalLabelPosition=middle;align=right;verticalAlign=middle;fillOpacity=100;" parent="nTul7E7G8EDoIA5eJWGi-19" vertex="1">
          <mxGeometry x="1" width="20" height="20" relative="1" as="geometry">
            <mxPoint x="-5" y="70" as="offset" />
          </mxGeometry>
        </mxCell>
        <mxCell id="nTul7E7G8EDoIA5eJWGi-25" value="ICS-SIG" style="html=1;shape=mxgraph.sysml.port;html=1;resizable=0;sysMLPortType=doubleH;labelPosition=left;verticalLabelPosition=middle;align=right;verticalAlign=middle;" parent="nTul7E7G8EDoIA5eJWGi-19" vertex="1">
          <mxGeometry x="1" y="1" width="20" height="20" relative="1" as="geometry">
            <mxPoint x="-10" y="-90" as="offset" />
          </mxGeometry>
        </mxCell>
        <mxCell id="nTul7E7G8EDoIA5eJWGi-22" value="&lt;span style=&quot;text-align: right;&quot;&gt;サーボTX&lt;/span&gt;" style="html=1;shape=mxgraph.sysml.port;html=1;resizable=0;sysMLPortType=flowE;labelPosition=right;verticalLabelPosition=middle;align=left;verticalAlign=middle;" parent="nTul7E7G8EDoIA5eJWGi-19" vertex="1">
          <mxGeometry width="20" height="20" relative="1" as="geometry">
            <mxPoint x="-10" y="10" as="offset" />
          </mxGeometry>
        </mxCell>
        <mxCell id="GCRpYfJjYsDpDZ8tQqii-74" style="edgeStyle=orthogonalEdgeStyle;rounded=0;orthogonalLoop=1;jettySize=auto;html=1;exitX=1;exitY=0.5;exitDx=0;exitDy=0;exitPerimeter=0;entryX=0.5;entryY=0;entryDx=0;entryDy=0;fontSize=8;endArrow=classic;endFill=1;" parent="nTul7E7G8EDoIA5eJWGi-19" source="nTul7E7G8EDoIA5eJWGi-25" target="nTul7E7G8EDoIA5eJWGi-152" edge="1">
          <mxGeometry relative="1" as="geometry">
            <Array as="points">
              <mxPoint x="275" y="20" />
              <mxPoint x="275" y="120" />
              <mxPoint x="345" y="120" />
            </Array>
          </mxGeometry>
        </mxCell>
        <mxCell id="GCRpYfJjYsDpDZ8tQqii-80" style="edgeStyle=orthogonalEdgeStyle;rounded=0;orthogonalLoop=1;jettySize=auto;html=1;exitX=1;exitY=0.5;exitDx=0;exitDy=0;exitPerimeter=0;entryX=0;entryY=0.5;entryDx=0;entryDy=0;fontSize=8;endArrow=classic;endFill=1;" parent="nTul7E7G8EDoIA5eJWGi-19" source="nTul7E7G8EDoIA5eJWGi-24" target="nTul7E7G8EDoIA5eJWGi-152" edge="1">
          <mxGeometry relative="1" as="geometry">
            <Array as="points">
              <mxPoint x="265" y="80" />
              <mxPoint x="265" y="170" />
            </Array>
          </mxGeometry>
        </mxCell>
        <mxCell id="nTul7E7G8EDoIA5eJWGi-168" value="" style="group" parent="1" connectable="0" vertex="1">
          <mxGeometry x="1425" y="548" width="170" height="110" as="geometry" />
        </mxCell>
        <mxCell id="nTul7E7G8EDoIA5eJWGi-23" value="&lt;span style=&quot;text-align: right;&quot;&gt;サーボRX&lt;/span&gt;" style="html=1;shape=mxgraph.sysml.port;html=1;resizable=0;sysMLPortType=flowW;labelPosition=right;verticalLabelPosition=middle;align=left;verticalAlign=middle;" parent="nTul7E7G8EDoIA5eJWGi-168" vertex="1">
          <mxGeometry y="1" width="20" height="20" relative="1" as="geometry">
            <mxPoint y="-25" as="offset" />
          </mxGeometry>
        </mxCell>
        <mxCell id="nTul7E7G8EDoIA5eJWGi-163" value="&lt;span style=&quot;text-align: center;&quot;&gt;サーボEN&lt;/span&gt;" style="html=1;shape=mxgraph.sysml.port;html=1;resizable=0;sysMLPortType=flowE;labelPosition=right;verticalLabelPosition=middle;align=left;verticalAlign=middle;" parent="nTul7E7G8EDoIA5eJWGi-168" vertex="1">
          <mxGeometry y="55" width="20" height="20" as="geometry" />
        </mxCell>
        <mxCell id="GCRpYfJjYsDpDZ8tQqii-75" value="&lt;p style=&quot;margin:0px;margin-top:4px;margin-left:10px;text-align:left;&quot;&gt;&lt;b&gt;電源部（防水）&lt;/b&gt;&lt;/p&gt;" style="html=1;shape=mxgraph.sysml.package;html=1;overflow=fill;whiteSpace=wrap;labelX=100.58;" parent="1" vertex="1">
          <mxGeometry x="1160" y="760" width="400" height="40" as="geometry" />
        </mxCell>
        <mxCell id="GCRpYfJjYsDpDZ8tQqii-83" style="edgeStyle=orthogonalEdgeStyle;rounded=0;orthogonalLoop=1;jettySize=auto;html=1;exitX=1;exitY=0.5;exitDx=0;exitDy=0;fontSize=8;endArrow=classic;endFill=1;" parent="1" source="GCRpYfJjYsDpDZ8tQqii-76" target="GCRpYfJjYsDpDZ8tQqii-81" edge="1">
          <mxGeometry relative="1" as="geometry" />
        </mxCell>
        <mxCell id="GCRpYfJjYsDpDZ8tQqii-76" value="LiPo 3S 2200mAh" style="rounded=1;whiteSpace=wrap;html=1;fillColor=#d0494d;strokeColor=#B20000;fontColor=#ffffff;" parent="1" vertex="1">
          <mxGeometry x="1300" y="770" width="120" height="20" as="geometry" />
        </mxCell>
        <mxCell id="GCRpYfJjYsDpDZ8tQqii-77" value="ジョイスティック(アナログ)" style="html=1;shape=mxgraph.sysml.port;html=1;resizable=0;sysMLPortType=flowW;labelPosition=center;verticalLabelPosition=top;align=center;verticalAlign=bottom;direction=south;" parent="1" vertex="1">
          <mxGeometry x="990" y="671" width="20" height="20" as="geometry" />
        </mxCell>
        <mxCell id="GCRpYfJjYsDpDZ8tQqii-85" style="edgeStyle=orthogonalEdgeStyle;rounded=0;orthogonalLoop=1;jettySize=auto;html=1;exitX=0.5;exitY=0;exitDx=0;exitDy=0;fontSize=8;endArrow=classic;endFill=1;" parent="1" source="GCRpYfJjYsDpDZ8tQqii-81" target="nTul7E7G8EDoIA5eJWGi-21" edge="1">
          <mxGeometry relative="1" as="geometry" />
        </mxCell>
        <mxCell id="GCRpYfJjYsDpDZ8tQqii-81" value="ヒューズ" style="rounded=1;whiteSpace=wrap;html=1;fillColor=#fff2cc;strokeColor=#d6b656;" parent="1" vertex="1">
          <mxGeometry x="1485.75" y="770" width="58.5" height="20" as="geometry" />
        </mxCell>
        <mxCell id="GCRpYfJjYsDpDZ8tQqii-84" style="edgeStyle=orthogonalEdgeStyle;rounded=0;orthogonalLoop=1;jettySize=auto;html=1;exitX=0;exitY=0.5;exitDx=0;exitDy=0;entryX=1;entryY=0.5;entryDx=0;entryDy=0;fontSize=8;endArrow=classic;endFill=1;" parent="1" source="GCRpYfJjYsDpDZ8tQqii-82" target="GCRpYfJjYsDpDZ8tQqii-81" edge="1">
          <mxGeometry relative="1" as="geometry" />
        </mxCell>
        <mxCell id="GCRpYfJjYsDpDZ8tQqii-82" value="スイッチ・電圧計" style="rounded=1;whiteSpace=wrap;html=1;fontColor=#333333;fillColor=#f5f5f5;strokeColor=#666666;" parent="1" vertex="1">
          <mxGeometry x="1570" y="770" width="100" height="20" as="geometry" />
        </mxCell>
        <mxCell id="GCRpYfJjYsDpDZ8tQqii-86" value="" style="html=1;shape=mxgraph.sysml.port;html=1;resizable=0;sysMLPortType=flowW;labelPosition=center;verticalLabelPosition=top;align=center;verticalAlign=bottom;direction=south;" parent="1" vertex="1">
          <mxGeometry x="1505" y="650" width="20" height="20" as="geometry" />
        </mxCell>
        <mxCell id="GCRpYfJjYsDpDZ8tQqii-31" value="&lt;p style=&quot;margin:0px;margin-top:4px;margin-left:10px;text-align:left;&quot;&gt;&lt;b&gt;独立エアデータ(右)&lt;/b&gt;&lt;br&gt;&lt;/p&gt;" style="html=1;shape=mxgraph.sysml.package;html=1;overflow=fill;whiteSpace=wrap;labelX=148.29;fillColor=#707070;fontColor=#333333;strokeColor=#666666;opacity=60;" parent="1" vertex="1">
          <mxGeometry x="1720" y="40" width="120" height="360" as="geometry" />
        </mxCell>
        <mxCell id="sAC3fCyGcTuyfg6cjFu4-2" style="edgeStyle=orthogonalEdgeStyle;rounded=0;orthogonalLoop=1;jettySize=auto;html=1;exitX=0.5;exitY=1;exitDx=0;exitDy=0;exitPerimeter=0;entryX=0.5;entryY=0;entryDx=0;entryDy=0;entryPerimeter=0;" parent="1" source="sAC3fCyGcTuyfg6cjFu4-1" target="nTul7E7G8EDoIA5eJWGi-29" edge="1">
          <mxGeometry relative="1" as="geometry" />
        </mxCell>
        <mxCell id="sAC3fCyGcTuyfg6cjFu4-1" value="データ入出力 (UART)" style="html=1;shape=mxgraph.sysml.port;html=1;resizable=0;sysMLPortType=flowS;labelPosition=center;verticalLabelPosition=top;align=center;verticalAlign=bottom;" parent="1" vertex="1">
          <mxGeometry x="1079" y="231" width="20" height="20" as="geometry" />
        </mxCell>
        <mxCell id="sAC3fCyGcTuyfg6cjFu4-12" value="&lt;br&gt;" style="html=1;shape=mxgraph.sysml.port;html=1;resizable=0;sysMLPortType=doubleV;labelPosition=center;verticalLabelPosition=top;align=center;verticalAlign=bottom;" parent="1" vertex="1">
          <mxGeometry x="1079" y="230.9999999999999" width="20" height="20" as="geometry" />
        </mxCell>
        <mxCell id="sAC3fCyGcTuyfg6cjFu4-13" value="&lt;br&gt;" style="html=1;shape=mxgraph.sysml.port;html=1;resizable=0;sysMLPortType=doubleV;labelPosition=center;verticalLabelPosition=top;align=center;verticalAlign=bottom;" parent="1" vertex="1">
          <mxGeometry x="1480" y="349.9999999999999" width="20" height="20" as="geometry" />
        </mxCell>
        <mxCell id="sAC3fCyGcTuyfg6cjFu4-14" value="&lt;br&gt;" style="html=1;shape=mxgraph.sysml.port;html=1;resizable=0;sysMLPortType=doubleV;labelPosition=center;verticalLabelPosition=top;align=center;verticalAlign=bottom;" parent="1" vertex="1">
          <mxGeometry x="1360" y="349.9999999999999" width="20" height="20" as="geometry" />
        </mxCell>
        <mxCell id="sAC3fCyGcTuyfg6cjFu4-15" value="&lt;br&gt;" style="html=1;shape=mxgraph.sysml.port;html=1;resizable=0;sysMLPortType=doubleV;labelPosition=center;verticalLabelPosition=top;align=center;verticalAlign=bottom;" parent="1" vertex="1">
          <mxGeometry x="1520" y="229.9999999999999" width="20" height="20" as="geometry" />
        </mxCell>
        <mxCell id="sAC3fCyGcTuyfg6cjFu4-16" value="&lt;br&gt;" style="html=1;shape=mxgraph.sysml.port;html=1;resizable=0;sysMLPortType=doubleV;labelPosition=center;verticalLabelPosition=top;align=center;verticalAlign=bottom;" parent="1" vertex="1">
          <mxGeometry x="1480" y="509.9999999999999" width="20" height="20" as="geometry" />
        </mxCell>
        <mxCell id="a-lxkenw6U9x66Lslpul-1" value="" style="rounded=1;whiteSpace=wrap;html=1;fillColor=#dae8fc;strokeColor=#6c8ebf;align=left;" parent="1" vertex="1">
          <mxGeometry x="1560" y="880" width="240" height="260" as="geometry" />
        </mxCell>
        <mxCell id="a-lxkenw6U9x66Lslpul-2" value="&lt;font style=&quot;font-size: 19px;&quot;&gt;LiPo 3S 2200mAh&lt;/font&gt;" style="rounded=1;whiteSpace=wrap;html=1;fillColor=#d0494d;strokeColor=#B20000;fontColor=#ffffff;" parent="1" vertex="1">
          <mxGeometry x="1600" y="1070" width="160" height="60" as="geometry" />
        </mxCell>
        <mxCell id="a-lxkenw6U9x66Lslpul-5" value="" style="html=1;shape=mxgraph.electrical.electro-mechanical.singleSwitch;aspect=fixed;elSwitchState=off;strokeWidth=10;rotation=-180;fillColor=#f8cecc;strokeColor=#b85450;" parent="1" vertex="1">
          <mxGeometry x="1236" y="1066.27" width="163" height="43.46" as="geometry" />
        </mxCell>
        <mxCell id="a-lxkenw6U9x66Lslpul-6" value="" style="shape=image;verticalLabelPosition=bottom;labelBackgroundColor=default;verticalAlign=top;aspect=fixed;imageAspect=0;image=data:image/png,iVBORw0KGgoAAAANSUhEUgAABXsAAANtCAYAAADB96gmAAAAAXNSR0IArs4c6QAAAARnQU1BAACxjwv8YQUAAAAJcEhZcwAAHYcAAB2HAY/l8WUAAOnTSURBVHhe7N0HeJPV28fxm733kj0FZO+996ZlL5WlMqXuAaKoiDhRNsi0bCiUMkT2kI1MRUAFUaYs2duX8/xvXsWmyZO2aZP0+/F6Ls99EmhGaZNfznOfeH8/IAAAAAAAAAAAnxZf/w8AAAAAAAAA8GGEvQAAAAAAAADgBwh7AQAAAAAAAMAPEPYCAAAAAAAAgB8g7AUAAAAAAAAAP0DYCwAAAAAAAAB+gLAXAAAAAAAAAPwAYS8AAAAAAAAA+AHCXgAAAAAAAADwA4S9AAAAAAAAAOAHCHsBAAAAAAAAwA8Q9gIAAAAAAACAHyDsBQAAAAAAAAA/QNgLAAAAAAAAAH6AsBcAAAAAAAAA/ABhLwAAAAAAAAD4AcJeAAAAAAAAAPADhL0AAAAAAAAA4AcIewEAAAAAAADADxD2AgAAAAAAAIAfIOwFAAAAAAAAAD9A2AsAAAAAAAAAfoCwFwAAAAAAAAD8QLy/H9CxV7h7967s379fjh49Kjdu3LCOmzdvyr179/QaAAAAAAAAAOAZiRIlkmTJkknSpEklZcqUUqxYMcmbN69e6t1iNey9f/++HDx4UHbu3Ck7duyw/r93714r3AUAAAAAAAAAb5AxY0YpW7aslCtXTsqXL2/9P3v27Hqp94iVsHf37t0ycuRImT9/vly5ckVnAQAAAAAAAMA35M6dW3r06CHPPvusZMmSRWdjV4yFvXfu3JF58+bJqFGjZMuWLToLAAAAAAAAAL4rceLE0qZNG+nXr59UrlxZZ2OHx8PeM2fOyJgxY2TChAly+vRpnQUAAAAAAAAA/2JaPZjQt3Pnzlbv35jm0bB32rRpEhQUJJcuXdIZAAAAAAAAAPBvJUqUkOnTp0vJkiV1JmbE1/9HK7OCt2XLltK1a1eCXgAAAAAAAABxyr59+6yN3N577z25e/euznpetK/snT17trVU+fz58zoDAAAAAAAAAHFTuXLlrA4IRYoU0RnPibaVvWYFb7t27aRjx44EvQAAAAAAAADwwM6dO6VMmTLy8ccf64znRMvK3gsXLki9evVk9+7dOgMAAAAAAAAA+Lfnn39evvjiC62iX5RX9hL0AgAAAAAAAIBrX375pQwYMECr6BelsJegFwAAAAAAAADs82TgG+mwl6AXAAAAAAAAANznqcA3UmHvlStXCHoBAAAAAAAAIJJM4PvSSy9pFT0iFfa++OKLBL0AAAAAAAAAEAWfffaZhIWFaRV18f5+QMe2LF++XJo0aaJVzIgXL54kSJBAKwAAAAAAAADwjLt37+ooZjz22GPyww8/SPr06XUm8twKey9duiTFihWTEydO6Ez0SpYsmRQtWlSKFCny/0emTJkkUaJEeg0AAAAAAAAA8BwTl966dUt+++03OXjwoPz444/WcejQIesyT+jQoYPMmjVLq8hzK+x96qmn5Ouvv9Yq+uTNm1fatWsnTZs2leTJk+ssAAAAAAAAAHgHswB23rx5Ehoaau1pFt3M392mTRutIsd22GvuREBAgFbRo3DhwvL8889LhQoVdAYAAAAAAAAAvNfNmzdl6dKlMnr0aLl8+bLORl3GjBmtdg6ZM2fWGffZCnuvX78u+fLlkzNnzuhM1CRMmFB69uwpXbt2tcYAAAAAAAAA4EvOnTsnQ4cOlY0bN+pM1HXq1ElmzJihlftshb0TJ06UZ599VquoyZMnj/UgFCpUSGcAAAAAAAAAwDctWbJEPvzwQ2vFb1SZhbFHjx6VHDly6Ix74uv/nRo1apSOoqZAgQJWcEzQCwAAAAAAAMAfNGvWTEaMGCFJkybVmci7e/eujBs3Tiv3uVzZu2HDBqlZs6ZWkWeC3rFjx0q6dOl0BgAAAAAAAAD8w86dOyUoKCjKK3wzZcokv//+uyRJkkRn7HO5snfkyJE6ijyz7JigFwAAAAAAAIC/KleunHz++ecSP76tZgoR+vPPP2Xu3LlaucfpV/7jjz9k0aJFWkVOvHjxZMiQIQS9AAAAAAAAAPxa+fLl5amnntIq8iLbVtdp2Dt+/HirT0RUdO7cWUqWLKkVAAAAAAAAAPiv5557zmppGxXbt2+XHTt2aGWf07A3NDRUR5GTJ08e6d27t1YAAAAAAAAA4N8SJUok77zzjiRIkEBnIicy2WyEYe/169flxx9/1CpyunfvHqlGwgAAAAAAAADgqwoXLiy1a9fWKnLMhm/uijDs3b17t9y7d08r96VPn17q16+vFQAAAAAAAADEHe3atdNR5ERr2BuZnhD/FhgYaC1ZBgAAAAAAAIC4pkyZMlHq3Xv+/Hk5evSoVvZ4LOxt1aqVjgAAAAAAAAAg7mndurWOIsfd1b0Rhr2RWSb8UNasWSVLlixaAQAAAAAAAEDcU6pUKR1FTrSEvX/99ZccOXJEK/cVLVpURwAAAAAAAAAQN+XLl0+SJEmilfuiJew9efKk/P3331q5r0iRIjoCAAAAAAAAgLgpQYIEUqhQIa3cd+LECR3Z4zDsvXHjho4i54knntARAAAAAAAAAMRdUclK3c1pPRL2pkuXTkcAAAAAAAAAEHelTZtWR+67efOmjuxxGPa6+5f8V1T6UAAAAAAAAACAv4hKVhotK3vv37+vo8iJH9/hXwsAAAAAAAAAcUpUslJ3c1pSWQAAAAAAAADwA4S9AAAAAAAAAOAHCHsBAAAAAAAAwA8Q9gIAAAAAAACAHyDsBQAAAAAAAAA/QNgLAAAAAAAAAH6AsBcAAAAAAAAA/ABhLwAAAAAAAAD4AcJeAAAAAAAAAPADhL0AAAAAAAAA4AcIewEAAAAAAADADxD2AgAAAAAAAIAfIOwFAAAAAAAAAD9A2AsAAAAAAAAAfoCwFwAAAAAAAAD8AGEvAAAAAAAAAPgBwl4AAAAAAAAA8AOEvQAAAAAAAADgBwh7AQAAAAAAAMAPEPYCAAAAAAAAgB8g7AUAAAAAAAAAP0DYCwAAAAAAAAB+gLAXAAAAAAAAAPwAYS8AAAAAAAAA+AHCXgAAAAAAAADwA4S9AAAAAAAAAOAHCHsBAAAAAAAAwA8Q9gIAAAAAAACAHyDsBQAAAAAAAAA/QNgLAAAAAAAAAH6AsBcAAAAAAAAA/ABhLwAAAAAAAAD4AcJeAAAAAAAAAPADhL0AAAAAAAAA4AcIewEAAAAAAADADxD2AgAAAAAAAIAfIOwFAAAAAAAAAD9A2AsAAAAAAAAAfoCwFwAAAAAAAAD8AGEvAAAAAAAAAPgBwl4AAAAAAAAA8AOEvQAAAAAAAADgBwh7AQAAAAAAAMAPEPYCAAAAAAAAgB8g7AUAAAAAAAAAP0DYCwAAAAAAAAB+gLAXAAAAAAAAAPwAYS8AAAAAAAAA+AHCXgAAAAAAAADwA4S9AAAAAAAAAOAHCHsBAAAAAAAAwA8Q9gIAAAAAAACAHyDsBQAAAAAAAAA/QNgLAAAAAAAAAH6AsBcAAAAAAAAA/ABhLwAAAAAAAAD4AcJeAAAAAAAAAPADhL0AAAAAAAAA4AcIewEAAAAAAADADxD2AgAAAAAAAIAfIOwFAAAAAAAAAD9A2AsAAAAAAAAAfoCwFwAAAAAAAAD8AGEvAAAAAAAAAPgBwl4AAAAAAAAA8AOEvQAAAAAAAADgBwh7AQAAAAAAAMAPEPYCAAAAAAAAgB+I9/cDOv5/K1eulAYNGmjlvtDQUMmePbtW8AfTp0+XgwcPagUAAAAAAABPaN26tZQrV04r+IPg4GAZMWKEVu5JkSKFXL16VSvXCHthS1BQkGzatEkrAAAAAAAAeMKgQYMkICBAK/iDmAx7aeMAAAAAAAAAAH6AsBcAAAAAAAAA/ABhLwAAAAAAAAD4AcJeAAAAAAAAAPADhL0AAAAAAAAA4AcIewEAAAAAAADADxD2AgAAAAAAAIAfIOwFAAAAAAAAAD9A2AsAAAAAAAAAfoCwFwAAAAAAAAD8AGEvAAAAAAAAAPgBwl4AAAAAAAAA8AOEvQAAAAAAAADgB+L9/YCO/9/KlSulQYMGWrkvNDRUsmfPrhX8QVBQkGzatEkr99WsWVNHAAAAAAAA/uv+/fuyceNGrdw3aNAgCQgI0Ar+IDg4WEaMGKGVe1KkSCFXr17VyjXCXtgSlbC3efPmsnjxYq0AAAAAAAD8lwl7EyRIoJX7CHv9T0yGvbRxAAAAAAAAAAA/QNgLAAAAAAAAAH6AsBcAAAAAAAAA/ABhLwAAAAAAAAD4AcJeAAAAAAAAAPADhL0AAAAAAAAA4AcIewEAAAAAAADADxD2AgAAAAAAAIAfIOwFAAAAAAAAAD9A2AsAAAAAAAAAfoCwFwAAAAAAAAD8AGEvAAAAAAAAAPgBwl4AAAAAAAAA8AOEvQAAAAAAAADgBwh7AQAAAAAAAMAPEPYCAAAAAAAAgB8g7AUAAD7l1q1b8suRI3Jg3z7ZuX2bbN+6Vfbu3i2/HTsq9+7d02t5p/v378uRQ4dkyeJQmT9nlsyYNlWCp06xxmGhi+TgDwe8/j4AAAAA8F7x/n5Ax/9v5cqV0qBBA63cFxoaKtmzZ9cK/iAoKEg2bdqklXuaN28uixcv1goAAPvMy5STf/wh33+/S/bs2im7d+2SH/bvkzt37ug1HpUkaVJ5vGBBKVj4CSlStJjUb9RIcubKrZfGPBPc7ti2VXZu3y7f7zTHTrn81196qWMpUqSQ0mXLSZny5aVs+QpSsXIVSZw4sV7qOeYxvRvB4/pQ0mTJJF68eFrFHG++bQAAAP9lPuBPkCCBVu4bNGiQBAQEaAV/EBwcLCNGjNDKPeb9wdWrV7VyjbAXthD2AgBiknl5surbFTLys0+sFbxRUaJUKWnaIuDB0VKyxdDrE/MC/5ulS+Tzj4dbq5CjIkfOXDLgpZelZes2kjBhQp2NfuNHj5Th77+nlWMz5odI5arVtIo5zzzVRVav/FYrx7bt3S+ZMmfRCgAAIPYQ9uK/CHvhdQh7I3blyhW5feumVo9KlTpNjKzG8qQZM2bIwIEDtQIQmyZPnix16tTRyj+ZlyXffrPcCnl/PHBAZ6NPnXr15fmXXrECYE8wt3/t6lXy2fBh0X778+bPL0GvvCZNm7eQ+PGjvxOXnbC3eUCgfDF2vFYx4/SpU1K1bCnrsXWGsBcAAHgLwl78F2EvvA5hb8ReDRpg9Vp05Ou586Vq9Rpa+aaxY8dKnz59tAIQm8LCwqRZs2Za+R+zAvb53s9ZfWs9rXbdelboW7J0aZ2JuuvXr8nzzz0ra1at1BnPMK0dJkydLunSp9eZ6GEn7E2UKJFs3bM/2r+2M6NGfG6F564Q9gIAAG9B2Iv/ismwlw3aAABArNu8aaO0atY4RoJew6y+DWzSUHo+2VmO/3ZMZyPv/Llz0ql1oMeDXmPXju3SpkVT+eP34zoTc0zv3IXz52nleeaN0tyZM7QCAAAA4AphLwAAiFXzZs+Upzu0kyuXL+tMzDHhbIOa1WXCmNE64z4TFpvwdd+ePTrjeUd/+UVaN2sSY+H4v82ZEeyypUJ0MR8CxEaoDQAAAPgqwl4AABArTGD4ybCh8toLQXLv3j2dtSfLY49J4SJFpWTpMlK0eHHJV6CAJEmaVC91z+1bt2Ti2DFauefwoZ+kdbOm8tvRozpjz2NZs0qlKlWtdhKmj3CVatUld568eqk9f549K+0DWsiObVt1JmYcOXxIdu/aqZVnzQn+WkcAAAAA7CDsBQAAsWLCmFEy5ssvtHIuU+bM0rHLk/LZqDGyacf3smX3Plm2eq0sXPaNhH27WlZt3Cx7D/0s8xYvkVfeHCg169Sxelt5ktmg87luT8v5c3/qTMRMz7aWrVrL8M9HyLqt2+W7XXtk5oKFMil4pnz19QwJnrdA1m7ZZt0vswGaua9JkyXTPx0x07urd4/ucvbMGZ2JGbODg3XkORfOn5cVy5dpBQAAAMAOwl4AABDjNqxbKx8NfV+riJnA9qXX35R1W7bL0I8/lYDWbSRbjhx66aMSJ05sbV7Wu/8AmTJjtmzf94MMGvKeZMyUWa8Rfcyq5IEvv2hrRW/9ho3k2/Wb5PPRY6Vth06SK3ceiRcvnl76KLNiuXlAoHVf127e9uD6HfWSiF04f06e7/WM3L17V2c8b8niRVbY7Ukh8+bG6H0CAAAA/AFhLwAAiFFmFWpQn14u+76aoNOsgu07IEiSJU+us/aZP9P92edkw7Yd8ta771urg6PL4oUhsmRxqFaOmZDZrNgdP3W65M2fX2ftM8Hv8M+/kCUrV0v+xx/XWce2b90qkyeM08rzbt64IWEPHgNPMd8bs2fQwgEAAABwF2EvAACIMSbEe+3FAXLp4kWdcSzo5Vflw89GSIaMmXQm8kw7hG7PPCvrt+6Qrj2f0dnIM20bhgx6UyvHTLA8O2SR1Ys3qooUK279XY8XKqwzjn320XBr47boljy543YYngxjd+3YLr/+/LNW/4jotgAAAAD4n3gP3nSFW1azcuVKadCggVbuCw0NlezZs2sFfxAUFCSbNm3Syj3NmzeXxYsXa+V/Xg0aIPPnzNLqUV/PnS9Vq9fQyjeNHTtW+vTpo5Vj5t/7ggULtAIQGZUqVdJRxMLCwqRZs2Za+Sbz89L83HRm4DvvSo/nemkV/ZaGLZbXXxgg165d0xmxQuUd+3/Qyrk3XnpB5sycoVV4ZkXurAWLJE++fDoTPUwP2y7t2shPP0Z8O2vWriNTZs7Wyj3jR4+U4e+/p9U/qtWoKb/++ouc/OMPnfmH6ZdsNsiLbi8P6C8hc+do9T+JEiWyWlyY9g6ObNu7XzJlzqIVAABA7Ll//761Z0NkDRo0SAICArSCPwgODpYRI0Zo5R7T2s7s1WEXYS9sIeyNGGGvSKtWrQh7gSiqUKGC7NixQyvHfD3sNf1X61atLL8f/01nwntj8DvyTG/nP3Oig1kB27tndzn800Grthv2nvvzrFQtW1ru3LmjM48yq4jDVqxy2XYhskzg27hOTfnz7FmdCe+bdRukoItVwI5EFPbWqFXb6oX8+cfDdeYfnZ/uKu99+JFW0ePK5ctSoWQxuXXzps78T7OWAVaQPmm843YVhL0AAMBbEPbiv2Iy7KWNAwAAiBHLwhY7DXrr1m8gPXv11sqzTA/dhUuXS+NmzXXGnq+nTokw6DVef2uwx4JeI32GDFYfX2emTBivo+jTpkNHh5vKhS6YL9ev/7NCOjqEhiwIF/Qa7Tt30REAAACAiBD2AgAAjzMnEo0d+aVW4aVJm1Y+/Oxzh4Gip5gN3L4YO16atWipM86ZAHLGtKlahVe6bDnp8nQ3rTynVp260iKwlVbhLZw/z+orHJ2yZstmfd3/MisMloeFaRU9HPUCzpkrt1SuWk0rAAAAABEh7AUAAB63bvVqOXTwR63CM+0bomMzNnclTJhQPhs9Vnr1668zEVsUssBqoxCRt9//QOLHj5mXVubxSpYsuVaPun37tsyYNk2r6NO+y5M6etTsGcE6iroD+/bJjwcOaPWP9p07x9hjCwAAAPgyXjUDAACPGzcq4tYDpqVCm/YdtIp5JvB1tSGcWZk8OYJesYbpa1uiVCmtPM/0rg1s21ar8KZPmSy3bt3SKnrUrltPMmbKrNU/du3YLkcOHdIqahyt6jUhb5v2HbUCAAAA4AxhLwAA8Kjfjh2VHdu2aRXeU917eP2qTbOh25HDEQeasdFPtkNnxyttjQvnz8n3O51v+OeuRIkSSdsOjkPXOTOjvrrX9P5dHBJ+s0/TyzlzFjZeAwAAAOwg7AUAAB61cd06HYWXPHkKadW2vVbea8t3m3QUXvoMGaVug4ZaxZxiJUpYR0Sc3ebIatepk44eFTJvbpRXEpsN/BztMhxR+wgAAAAA4RH2AgAAj9q0Yb2Owmvdrr2kSpVKK++11UlwalpQJE6cWKuY5Wx179bvvtNR9MmdJ69UqVZdq39cunhRvv1muVaRM2fGDB39w7SrqFm7jlYAAAAAXCHsBQAAHnP37l3ZvHGDVuF16BLz7Q/cZfr1btm8WavwAlq31lHMa9YyQEfh7fl+l9UaIbpF1LJiTnD4frt2mZ6/pvfvf7Xt2EkSJEigFQAAAABXCHsBAIDH7Nuz2+Gp+Ua69OmlcJGiWnkv06vX9MB1JGXKlFKw8BNaxbzUadLI44UKa/UoE7Tv3B4+QI2qBo2bSNp06bT6x+ZNG63+zJERUc/f9h076wgAAACAHYS9AADAYzatj7iFQ4VKlSVevHhaeS9nvW9Lly0X65vLlStfXkfhbdkU/X17kyRJIq3attPqUXNnztSRfabXr+n5+181atWW7DlzagUAAADADsJeAADgMVs3R9w31oS9vmDPrl06Cq9MuYiD1phSulw5HYW35/udOope7Ts5buUwb/Ysa0WxO0yvX9Pz978iahcBAAAAIGKEvQAAwGOOH/9NR+H5Sth78sQfOgqvjJNVtTGlbLkKOgrvxB8ndBS9Hi9UyGHQfe7Ps7Jm1Uqt7Jk7I3wLh/QZMkjdBg21AgAAAGAXYS8AAPCIe/fuyemTJ7V6VLJkyaVwkSJaebeTJxzfB6NEyVI6ij158uWzegc7cub0Kbl//75W0SuizfXc2ajt+G/H5DsHG/i1btdBEidOrBUAAAAAuwh7AQCAR5w5fTrCoDFHzpySIEECrbyXuf0mMHXEBNZp0qbVKvaYvsdZsmbV6lF37tyJcHO5qGrSvIXDkHndmtVyKoKQ/7/mzXLc47cDLRwAAACASIn39wM6/n8rV66UBg0aaOW+0NBQyZ49u1bwB0FBQbIpkpu8NG/eXBYvXqxVzDp96pQsWjBPK89YFrZYDuzbp9Wj2nfqLLnz5tUq+qVKlVo6P91VK88YO3as9OnTRyvHWrVqJQsWLNAKQGRUqFBBduzYoZVjYWFh0qxZM628387t26Rdy+ZaPap6zVoybXb4Tbm8zZ9nz0jFksW1elTuPHll7ZZtWsWuzm1aRbiR3KLl30qJUq5XII8fPVKGv/+eVv8wG6VNnTVHq0cNeu0VmTl9mlb/CHr5VXn+pZe1csz09q1WrrScPXNGZ/6nQqVKMnuh49cNQ98ZLJPGj9PqUdv27pdMmbNoBQAAEHvMgoGoLGwYNGiQBAQEaAV/EBwcLCNGjNDKPSlSpJCrV69q5RphL2zx1bB3147t0raF7wQj7sqeI6ds3BHxxkHRgbAXiBn+GPaGhiyQF/r21upRbdp3lI9GfKGV99q7e7cENnHcO7Z8xYoyZ1GYVrHLPM7m8XZk7OSp0rBxE60iFpmw13zY2aJhPa3+kfXB68AN23Y6fZOzcsU38lzXp7T6x6cjR0tgm7ZaPYqwFwAA+ALCXvxXTIa9tHEAAAAe4WxjsyxZH9ORdzt1MuINzrJk8Z77kClzZh2F5+w+RFWxEiWkaPHwK59PnTghmzas18oxRxuzpUqdWho39d8PaQEAAABPI+wFAAAe4axva9as2XTk3U5H0K/XyJTFe1aROlvReubUaR15RofOT+roUXMchLkPmTZLa1at1Oofrdq0k6TJkmkFAAAAwF2EvQAAwCOuX7umo/AyZMqkI+92+9YtHYWXPkNGHcW+9Bky6Ci8mzdv6MgzWgS2chjQrvxmuZz786xWj5o/Z7Y46CQm7Tt31hEAAACAyCDsBQAAHmE24IpIkiRJdOTd7tyJ+D4kSpRIR7HP2W25d++ejjzDtF5o2rylVv8wX3fB3PC9fk0Pu7kzZ2j1jxKlSkvhIkW1AgAAABAZhL0AAMAjnIW9CRMm1JF3u+cj9yGBk9ty984dHXlOhy5ddPSo2TOCw63g3bxpo/zx+3Gt/tGhi+N2EAAAAADsI+yFXytarLis3rTFo0fDJk31q4Vndpp39Gei65gx3/HO6wDgDZyFvVHZnTgm3b0X8X2In8B7XkYliB/xbbl717Mre40y5cpL/scf1+ofvx09Ktu2bNHqf+YEf62jfyRLllyatWTHaQAAACCqCHvh10wPwbz583v0SJUqtX618LJmy+7wz0TXkSt3Hv1KAOB94jsJIM2p/L4gQfyIQ+m/74fvORtbnD2eCWIglI4XL56Tjdr+CXfPnzsnK5Yv0+ofLQIDJWXKlFoBAAAAiCzCXgAA4BEJnazedbbq15s4bY/gRffhnpOwN2EM9RYObNPWYe/g5UvC5NLFi9Z44fx5Dh83WjgAAAAA0YOwFwAAeISzkNFXwt6ECZ0F1p7vhWuX097CCWKmt3D6DBkctja6ffu2LAqZb/Xunf2vVb4PFXqiiLU5GwAAAICoI+wFAAAekTBhxGHvX5cu6ci7JUqUWEfhXbl8RUex7/Llv3QUXsJEMbeRXPvOEWzUFhwsO7dvk19//lln/tG+c2erDQQAAACAqIv393+3SH5g5cqV0qBBA63cFxoaKtmzZ9cK/iAoKEg2bdqklXuaN28uixcv1sr/vBo0QObPmaXVo76eO1+qVq+hlW8aO3as9OnTRyvHWrVqJQsWsFkcEBUVKlSQHTt2aOVYWFiYNGvWTCvvN/z992T86JFaPerlN96UPs8HaeW9Fi2YLy/2c/wzsFW79vLJF47vX0z7ZNhQGfPlF1o96vW3BsuzffppFTHzXJnn7L9q1KotU2fN0co50zu4duWK8vvx33TmH0WKFZMfDxzQ6n8SJ0ki2/bslzRp0+qMc0PfGSyTxo/T6lHb9u6XTJmzaAUAvmnhwoVy4cIFrQD/Ua9ePcmdO7dW/s+8JorKhsSDBg2SgAA2r/UnwcHBMmLECK3ckyJFCrl69apWrhH2whbC3ogR9hL2AtHBH8Per6dMlrfffF2rR3Xp2k3eHTZcK++1dfNm6dTa8Qvt6jVrybTZc7WKXc5+F40YM05aBLbSKmLREfYaY74cIZ8M+0Ar5wJat5HPRo3RyjXCXgD+rnjx4nLgPx+MAf4gJCREAgMDtfJ/hL34r5gMe2njAAAAPCJbjhw6Cu/0yZM68m7ZsmfTUXhnzpzRUez782zEtyVrtojvgye0ad9R4se39xKzfWc2ZgMAAACiE2EvAADwCGdn+Zw65Rthb5bHsuooPGcBa0xzFjzHdNibOUsWqVvf9RliefLlkwqVKmkFAAAAIDoQ9gIAAI/Ilj3ilb0nT5wQB52kvE6SJEkkfYaMWj3q4oULcvv2ba1i19kzp3UUnrPA2lPad3G9YrdD5y5szAYAAABEM8JeAADgEalSp7b6SzligtI/fj+ulXfLmi3isPTQwYM6ij1nz5yRC+fPa/WoTJkzS6JEibSKOTVr15Esjz2mVXimh13rdu21AgAAABBdCHsBAIBHmFWbzlb3btuyWUfeLVu2iNtRfL/L+aZ6MeH7nRHfhphu4fCQCXPbduykVXj1GzWWDBkzaQUAAAAguhD2AgAAjylUuLCOwtu62TfC3oJO7sP3O7w77H2iSFEdxbz2HTvrKLz2nbvoCAAAAEB0IuwFAAAeU6VGTR2Ft81Hwt5KVavpKLzvd+7UUezZ5SRwdnbbPS17zpxSo1Ztrf6RLUcOqV6zllYAAAAAolO8vx3sjrJy5Upp0MD1LsoRCQ0NdboDN3xPUFCQbNq0SSv3NG/eXBYvXqyV/3k1aIDMnzNLq0d9PXe+VK1eQyvfNHbsWOnTp49WjrVq1UoWLFigFYDIqFChguxwsUo0LCxMmjVrppVvMH15a1Qop1V4G7bvlBw5c2nlnW7euCElCxWQO3fu6Myjtuze57Q/rSfdunVLSjyeL8LbtnXPfsmcJYtWzo0fPVKGv/+eVv8wge3UWXO0cs/yJWHS95keWv3PC6+8Jv1ffEkr9wx9Z7BMGj9Oq0dt27tfMmW2d18BwFsVL15cDhw4oFV4ZuPQyL4vAzzFZEhvvvmmVo6FhIRIYGCgVv7v/v37VluryBo0aJAEBARoBX8QHBwsI0aM0Mo9Zh+Uq1evauUaYS9sIeyNGGEvYS8QHfw17DVqVaogx387ptWjgl5+VZ5/6WWtvFeHwBayfetWrR717rDh0qVrN61i1orly6R3965aPSpfgQKyaqP91dOeCHtv374t1cuXkfPnzll1/PjxZf22nZHuJUzYC8DfuQp7q1atSthr07Vr12T//v1y/PhxOXny5P8f58+ft34/3bt3z9pfIGHChFaQkjVrVivHyPbgd5Q5ChUqJHnz5tW/Dc7YyZAIe91D2Ot/YjLspY0DAADwqGo1I27lEDxtqvWGy9s5a4cwK/hrcfDZeYyYM+NrHYVXORZbODyUOHFi2bb3gPx84rR1HP79ZKxtGgcA8G/79u2T0aNHS7du3aRYsWKSJk0aqVy5srRv315eeOEF+fjjj2XGjBnyzTffyJo1a2T9+vWybt06WbVqlbVgbdy4cfLWW29Jjx49pHHjxpIvXz7JmDGjNGrUyArezAImd8IWAIgthL0AAMCjnJ3hcO7Ps7IszPvP/qhUJeLg9OAPB2T/3r1axZyTJ07I+gdvViMSm/16AQDwNLMy14S15ixUswK3ZMmS0q9fP5k6dar88MMP1uVRZVYBr1ixQoYOHSotW7a0wt+mTZvKhAkT5MyZM3otAPAuhL0AAMCjzArTRIkSaRXe1K8mxNrKWLtKly0rKVOl0io8ZytsPWXerJkRPm7m8a5cpapWAAD4j6NHj8orr7wijz32mNSuXVu++OILOXbMcbuo6GZ65S9btkyee+45q+1D3bp1rfYE0REsA0B0IewFAAAelTZdOmndrr1W4e3bs8fpClVPM4HpimVLtXLMbIjTscuTWoW3aMECOX/uT60878b16zLbScDcIrC1pM+QQSsAAHyf6QvbokULKVCggHzyySdyTvvBxxbz+sG0g2jdurXV8mHYsGGxfpsAwCDsBQAAHvdsn346cmzQ66/ItWux0wfv84+Hy6DXXtUqYk9372ltMObIjRvX5eMPhmrleeNGj5Qzp09rFV6P557TEQAAvs301q1YsaK1AZjZrNZsfOVtzCZwb775ptVO4p133qG3L4BYRdgLAAA8Lk++fNK4WXOtwjv5xx8y9O3BWsWc0V+MkFGff6aVc9ly5JDGTZtpFd7cWTNl5/ZtWnnOrz//LONHj9IqPNMjuXCRoloBiGtMyGTONLBzeGNoBjxk+u42b95catWqJdu3b9dZ72b+/Q0ZMsRafTxmzBi5e/euXgIAMYewFwAAxIjn+vbXkWOzZwRLWOgirTzrzp078u5bA+XTDz/QGXt69OqtI8defr6/R1comzeNL/bvK7dv3dKZ8Lo/20tHAOKibp06SPniRW0d27Zs1j8FeI8bN27Iiy++aG24tmTJEp31LWbztr59+0qJEiV8JqgG4D8IewEAQIwoUaqUterUmZf795UVy5dp5Rl/nj0jXdq2kqlfTdQZ+0qVKSuly5bTKrzjvx2Tfs/0lFs3b+pM9DGbv7z2wgDZt2e3zoSXr0ABqVmnjlYA4ppjR3+VXTvsB0sL5s7REeAdtm7dKqVLl5bPP//cLzY9O3jwoFSpUkUGDhwot2/f1lkA8CzCXiCKcufNK2XKlXd4pEqVWq8FADDefPsdSZgwoVbhmRW3fXt291gAYUKQZvXryo5tkW+38PpbzttNrF+7Rp55+km5eeOGzkSdWdH7Uv++snD+PJ1xbODb70bYVxiA/wuZN1dH9iwPC5Pr169pBcQe83vujTfekGrVqsmhQ4d01j+Y0PqDDz6Q8uXLy/79+3UWADyHdwNAFPUdECTzw5Y6PMwqNgDAP54oWkxefO11rRwzPSRfGdBfxo78wgp/o8OtW7dkwpjR0iGwpfx59qzORk75ipXkqW49tHJs04b10uPJznL5r790JvJuXL8uL/TpJYsXhuiMY4Ft2krtevW0AhDXmJ+d7oa9ZnPJb5Yu1QqIHefPn5f69evLhx9+GO2rec0HoEWLFpXAwECrrcLQoUNlypQpMnfuXAkJCZH58+fLrFmz5IsvvpDXXntNnnzySatHcNq0afVviD779u2TypUry4IFC3QGADyDsBdAnGdeYH7zzTfWizzzqftbb70lr7zyirz++uvWBgsfffSRTJo0SXbv3s0mC7HEBH7m8TfPg3k+zPNinh/zPJnnyzxv5vlbsWKF9XzCuz3Tu69UrlpNq4h9/MFQaVS7htXW4e+//9ZZ95iNUqZPmSS1K1eQD98bEm1vIl8ZOFBy58mrlWNbvtsktR58XfP1IxNam+Bm0YL5UrdaZVkatlhnHcvy2GMyaMh7WgGIi7Zv3WptdumuhW4GxEB0+vHHH6VChQqybt06nYkac/ZQ3bp15ZNPPpH169fLX3/9JQcOHLCC3VGjRsmbb74pXbt2lbZt21oBcOvWraVDhw7y/PPPW2Hz9OnTZe3atXLhwgU5fPiwzJw5U3r16iXZsmXTrxA1165ds762eS0b2dc2AOBKvAc/YML9hFm5cqU0aNBAK/eFhoZK9uzZtYI/CAoKkk2bNmnlHrOD6uLFzt+kwnuNHTtW+vTpo5VjrVq18plPqM0LLNMLbOfOnf9/HDt2TC91LWnSpNZGC+Y0rHLlylkvTosUKaKXIrqY/mZmM4sdO3ZYz9HevXvlphs9UPPmzWs9P+Ywz1XFihUlefLkeql3Mt9L5v46ExYWJs2aNdPKt104f15aNmogJ/74XWecM61xWrVtJxUqVZb8jz8u8eLF00seZQLS344elT27v5dtm7+TsEWLrJVrrmTImEl27P9BK3t+PLBfWjVtbKsHn+ml27vf81K5WnXJ5uI1ktkhf+uWLTJxzCjZt2ePzkbMrFqavTBUylWoqDORM370SBn+fvjAuEat2jJ1lnf09Rz6zmCZNH6cVo/atne/ZMqcRSsg7nk1aIDMnzNLK/ds2rnb5c8mxIzixYtb4WREqlatGun3Zd7GLLZo166dXLlyRWcix/webNKkiRXamv+nS5dOL4k+JjYxr9MWPXhdMXXqVDl16pReEnnmvptwOUmSJDrju+xkSCZwNwF7XGFekyZIkEAr9w0aNEgCAgK0gj8IDg6WESNGaOWeFClSWItY7GJlL4A4wXwybz6xN5/K16tXz1oVak7bcifoNUzgaELI0aNHS7du3azTwsqUKWOtODU7ByPyzGM7efJk6/E0AbpZdWEe523btrkV9BpHjx6VefPmWafj1alTx3rezYdWR44c0WsgtqXPkEEmTpsuaWyeJvn9zh0y6LVXpEHNalK+eBHp1e1pGfjKS/LuWwPl7Tdel9dfDJIn27WRUoUft1bCmv62c2fNtBX0RlaRYsXlveEfaeXcrz//LK8EPS/VypWWGhXKycsD+svoL0bI5AnjZcrECTLmyxHW/atfo6q1Q37/Z3vaCnqNge+8G+WgF4BvM313l7k4A8CZRQuc9wMHotuSJUukZcuWUQp606dPLy+//LL8/OB3rPlAvHPnzh4Jeg3zIbP5YN6cTfbbb79ZrR9M8B4VppWEWVlsWk0BQHQi7AXgt8ynqWZVufmUuXDhwjJy5Ei5fPmyXhp9THuBnj17So4cOay2AiZohH3mBbMJZc3j16NHD+vxjG7mFD7T5qFQoULSqFEj6w2G+f5A7CpcpKgsWr7CWvXqDrMq+Ntvlsus4K9l6lcT5eupk61g97uNG+RqJN80NmzSREfuaduhk3w2aozTTef+64/fj0vI3Dny6YcfyPtvvyXvDR4knwz7QGZOnya/uPGBhHnjOfTjT6XbM8/qDIC4asWyZVHaaM30+uWUcsQU8zrMhJx2zoxxJGXKlFYbhOPHj8vHH39sndEVkxIlSmStIjYrrDds2CCVKlXSS9y3dOlSAl8A0Y6wF4BfMitt8+fPb60YMKcVxcQbGNPby/QHK1CggHXKzS+//KKXwJFff/3VOpUrX758Vh/emOi1a74PTF9f017m8ccft07DQ+wyfW9DliyX6jVr6UzMKl22nCxctkLeH/6xzrgvoHUbmTxjliRPnkJnPC9xkiQybso06djlSZ0BEJe56rv7dPeeOnLMnH2wb0/0f9gK/NfDcDMyQa85Jd5ssmZeYw8ePNg6rTm2Va9eXbZs2WKdMWjee0RGVB4TAHCEsBeAXzlx4oQ0btzYWmnrbouG6GJWjJre5SVLlrTaELBS5lHm8RgzZozV+9j0PYutFbYmbDatOEwP3Ojou4bIS50mjUwKnilPdeuhM55XsPAT8uX4iTI/bKmULF1aZyOvWo2aMmfRYqv3r6eZ1hcz5i2Q+g0b6QyAuOzUyZOyacN6rcIzP5def2uwpM+QUWccC5nr3xu1mc3rTvz+e7gjMpvaIXLMPgxmc7LIhJoFCxa0VtKaTdYyZ86ss97DhLX79u2z2sZFtK+AMybwffZZztQBED0IewH4jWnTpkmxYsWszR68gdkMrl+/flaPYNOqAGKdble/fn1rVYZ5fLyBeXFtei/PmDFDZxAbTBuEdz4YJrMXLrY2BPOUUmXKysTpwbJ8zTpp1qJlpN6QRaRo8eKydNUa6dK1m1ttHewyG9C079RZlq5cI2XLV9BZAHGdq367LQIDJUnSpNKyVSudcWzxohC/PpW8UZ2aUr1C2XBHo9o19BrwJPPBujnjLjJ7XAwYMED27NkTpXYJMcFsBmzahq1Zs0Zy586ts/aZ9zKffvqpVgAQeYS9AHze6dOnpUWLFtaGXpcuXdJZ72Fe8JmdlSdOnKgzcZPZfM08DqtXr9YZ73Hx4kXp0qWLtHrwRvjs2bM6i9hQ4cEbuamz5sii5d9Kg0aNdTbqzMrbGfNDZMGSZVK3foNoDXn/LXOWLPLusOGyZvNWadexkxXQRoeWrVrLqo2bZdinn0u2HDl0FkBcZ86WMf12nQls0+6R/0fkrwevodatXqUVEH3MRrumxdnJkyd1xp5kyZLJnDlzrN3rzdhX1KpVy1rFXKOG+x8kvPrqq7J8+XKtACByCHsB+LRDhw5JmTJlrB14vZnZadicmmWOuNbWwdzf3r17W5uveWKDvOi0cOFC6/vJ7OqM2FWiVCmrJ+236zfJoCHvSfOAQMmZy/4qGXO6cuNmza1evNv27pfpc+ZJ5arVPBby/leOnLnkw89GWAFtr37PS8XKla2VdXYlTpxYylWoKM/07ivfrNsgn48eK3ny5dNLPaNhk6Yyfur0cMfzL72s14h9bTt2cngbzZE6dRq9FhB37Nuzx+nGjgUKFrTOOjDM/x8vWMgaR8RsHglEtz59+sj27du1ssds3GvaNrRr5/xDCm+VMWNGWbVqlTzzzDM6Y49pb2Y2fzPtxgAgsuI9eBMeLnUwmxmZ3esjy/SqzJ49u1bwB0FBQdYv28gwGyEtXrxYK/iasWPHWi/QnDGrIRcsWKBVzPnpp5+kdu3a1speX2Je9I0fPz7GQqfYZH7FmO+fcePG6YxvML/D1q1bZ222F1MqVKggO3bs0Mox86GG6TEcl104f94KN44d/VVu3bopt27eknv370mSJEnksazZJG++fJInbz5Jlz69/gnvcefOHTn4ww/y/c4dcuTQT9aprGa1k/l3kjRpUuvI/3hBKVu+vBQpVty6TwDgzNtvvC5fT52sVXivvDlQevcfoJXIuFFfykdD39cqPLMB1ra9ByR9hgw64z9KFMwvV69c0eofKVOmlH1HvCdYM2dBHThwQKvwqlatGun3ZbHBZANmVa87zCa6a9eu9ZtMYciQIfLOO+9oZY/Z+G39+vU+837BToYUEhJibc4cV5jg3vxMjaxBgwa5/W8H3i04ONg6UyEyzIaUV69e1co1wl7YQtgbd3lr2BvdQa8JVcyGYeZIlSqVFbrcu3fPCmNMjzFzKlZ09t2NC4GvJ4Je0/+sXLlykjVrVut0PvMCyoRlZsWw2RTDHNG1k3FMB76EvQAAd5j+upVKFbfaL0Rk087dku1f78vMZm5Vy5bSyrHB7w+Vrj3cW43oCwh7Y9758+etfRHOnDmjM675W9D7kAl7Tejrjs8//9x6H+4LCHvDI+zFf8Vk2EsbBwA+5+DBg1EOes3mSW3atLGCyF27dlltFszpZV999ZX1wmrYsGHy0UcfyciRI2X+/Ply7Ngxq5frsmXLrBdqZkfgqDD9e5977jm/bekQXUGveZzNi2PzuJvH3zwP5vkwz4t5fszzZJ6vSZMmWUGpeR5NMG8+pDAvJqPyAuvEiRNWzzVaOgAAvJHpr+ss6K1UpeojQa+RNVs2qVKtulaO0coB0cW8FnQn6M2XL59fBr2GeT371ltvaWXPm2++KYcPH9YKAOwj7AXgU0z/qjp16kQ66M2SJYv1QsuEhvPmzbMCV9OjNVGiRHqNiGXKlEkaN24sgwcPtlYWr1ixwlplGdkNmEzg269fP638i9k1ObJBr3k8zeNqHl/zOL/99tvW424ef1dMn9OyZctKr169rNUDR48etV4o2/mzjjwMfI8fP64zAAB4B1ehbGDbtjp6VGAbx/MPHdi3Tw4f+kkrIHLM2Uhz5zrfPPDf0qRJI0uXLvXrM4Tfffdd6dy5s1aumTMM3e35CwAGYS8An2FOhXnqqaciFfSmTZtWJkyYYIV25oVWVF9ImvYL5lQl80LWrPxs3bq1XuKeMWPGWJuC+RPTysesvI0M0xLkyJEj1uNqHt+otrnImTOnDB06VH7//XdrtW/q1Kn1EvtM4Nu1a1e/XYUNAPA958+dkzWrVmoVXuIkSaRR0+ZaPaph02YuN4wMcSOkA/7LtEJ77bXXtHLNfNA/a9YsKVy4sM74L3MWoWndZdeGDRus18UA4A7CXgA+w5yu/91332llX6NGjazeZ+aTcbPyM7rlzZvXai0wc+ZMSR+JTaHMKtRzD960+QPTm82slnaXedxmzJhh9X42p/BFN9OT2TzO+/fvl3r16umsfeaUwtGjR2sFAEDsClu00ArUItKgUWNrDwJHTI/aRk2aauXYogXznP79gDNTpkyx2q7ZZT6YN2dxxQVmX5BFixa5ddbZG2+8wb9HAG4h7AXgE8wLRtOk3h3mzYxplbB8+fIYOSWsY8eO8sMPP7i9gZbpRdu7d2+tfFvfvn3d6s1mNGnSxArjO3XqpDOekytXLvn222+tFdXJkyfXWXvMChX69wIAvEHIPBctHNq005FjAS5aOZx98Lv8u40btALsu379utWCyy6z4dyrr76qVdxgNho2Z5zZZd5fTJs2TSsAcI2wF4DXM59km9Pob968qTOumdUsJtTr2bOnzsSMxx57zGpj0K1bN52xx6wMnj17tla+yfRAnjPHvU1dzPNqTk0zL3pjimkNYcL1b775xtrV1C7z5sXcXtNOBACA2GL66Zq+uhFJnyGjVK9VSyvHqlavIRkzZdbKsYXzaOUA95kQ8+TJk1o5Zz54nzp1aqT3v/BlpgWcWShil9ng7e7du1oBgHOEvQC83vDhw2X79u1auWb6sprNvSpXrqwzMcu8YDX9uNwNfM2q2MhuPBfbzOpks+OyO0xwOmnSpFh7gV+9enVr1bc7ga9pI2LaiQAAEFsWuPhgtUVgoCRMmFArx8zlAS72G/hm2VK5cuWKVoBr5gNxd9pevffee1KgQAGt4p5Ro0ZJxowZtXLO7D/hb/t8APAcwl4AXu3SpUvywQcfaOWaCXrNis3YCnofikzge+HCBSvY9kXmdrvTdzi2g96HIhP4mg3+rl69qhUAADHHrOwz/XSdCWjtvEXDQ4EuWjncunlTvlnKxlCwb+nSpXL06FGtnMufP7/0799fq7jJ7FnhTps6Ew4DgB2EvQC8mtng4dq1a1q5Zk4Fi+2g96GHgW+1atV0xjV37683MO0NzO22q0qVKl4R9D5kAl9ze+y6fPmyTJ8+XSsAAGKO6aP759mzWoWXr0ABKV6ypFbOPVG0mBQs/IRWjoXMda89E+K2kSNH6sg1sylbokSJtIq7TGsxs9mzHRs2bLA2GwYAVwh7AXitv//+29pIy64uXbpIYGCgVt7BBJomgLa7cvSvv/6Sr7/+WivfMGPGDLl48aJWzpnebGaDCW8Jeh9q3769tG1rbyWU4c4pigAARBdX4avZmM30prerVVvnG7lt27JFfj/+m1ZAxMwmtqtWrdLKubJly0q7ds6/9+KKxIkTy/vvv6+Va+68NwIQdxH2AvBa5vR688LRjmzZsrm1miAmmdPU3GnP4GtBojunlA0bNsxre7OZF8+ZMzvfrOahH3/8UVavXq0VAACed+XyZVmxfJlWjgW0ct6H979aPri+q3B40fz5OgIiZjbqNQs17HjxxRfd+lDC35lFBzlz5tTKuZCQEDYLBuASYS8Ar+VOiDhhwgRJmzatVt7HbF5Wu3ZtrZw7cOCArFu3TivvZk4n2+dkR/B/q1Gjhlf3ZjMbZJgdpO2ibxoAICYtDVsst2/d0iq8ipUrS3abgdFDWR57TKpWr6GVYyHz5toO8RB3LVq0SEfOPfbge86ds6niggQJEshzzz2nlXNmU+QtW7ZoBQCOEfYC8EpmRa/ZaM2O8uXLS9OmTbXyTmb1wuDBg7VyzVtXKf+XO6uQ3377ba9fxdGqVSspUaKEVs6FhYXJ8ePHtQIAwLMWznPewiGgTeROiw900crht2NH5fudO7QCwjt58qTs2GHve+SZZ56hV68Dzz77rCRJkkQr50JDQ3UEAI4R9gLwSosXL7a9iqRfv3468m61atWSYsWKaeXcsmXLrB23vdm9e/eswNOOIkWKSJ06dbTybn379tWRc+7cfwAAouL4b8dkx7ZtWoWXOEkSadKsuVbuadikiSRLllwrx9ioDc6487q9a9euOsK/ZcqUSZo8+Ldoh91V1ADiLsJeAF5p586dOnLOvDAyfa58hd0g8ebNm1Y7B2/2ww8/yI0bN7RyzlcCecNs9Ge3JYjd71MAAKLCtFJwpn6DhpIqdWqt3JM8eQpp5OIMqbDQRXLrwWsTwJGVK1fqyLnixYtLvnz5tMJ/tWzZUkfOHTlyRH77jY0TAUSMsBeAV7IboplTweye8uQNnnzySb8JEu2erpf6wZtPc799RfLkyaV79+5aOUfYCwDwNLMZU8hc52FvgItWDK64auVw9coVWfntCq2AR9l9TRgQEKAjONKsWTOrf68dvAYF4AxhLwCvc+nSJatnrx12PwH3FilSpJC6detq5ZzdF86xxe6LzHr16knKlCm18g12v68OHjwo165d0woAgOi3c/t2+eP3iHvEp8+QQWrUsrcJbEQqV60mmbNk0cqxkLmzdQT8w2wY9vvvv2vlXPPmkWs1EldkePBvuUqVKlo55+3vEwDELsJeAF5n165dtvp+mc0dSpYsqZXvKFeunI6c85eVvXbvrzcpU6aMxI/v+lek6du7e/durQAAiH6uQtbmLQOjvOGVWU3YslUbrRzbsHat/Hn2jFbA/9h9vZosWTIpXbq0VohI5cqVdeQcK3sBOEPYC8Dr2A0RTd8vX2rh8FD58uV15Nz+/fvl1q1bWnmX27dvW7fPDl8Me81K5MKFC2vlHC+2AQCecuP6dVm62PnO+wFt2uooalq3c97KwbSTCA0J0Qr4H7NIw45SpUpJwoQJtUJE7L5PsPu4A4ib4v3tYPmcabDeoEEDrdwXGhoq2bNn1wr+ICgoSDZt2qSVe8zpOmaHVvimsWPHSp8+fbRyrFWrVrJgwQKtoq5z584yc+ZMrSL27LPPyvjx47XyHaZNRfr06W2tXt6zZ49Xrl7et2+f7dt14cIFSZcunVbRa/KE8TJp/FitVLx4OvhHPAdzrdq2kxdffV2r8Mxu0dOmTdMqYt26dZPJkydr5Z4OgS2s0x+N48ePWxvzOZMjew5JmcpxSwxH9/GhiC6r37CxvPLmQK1iR+8e3cKdnuzo9tqde2foMClVpqxWAODbFi8MkaA+vbQKL2/+/LJq42anvwPc0bReHTn4Q8QbxBYuUlSWrV6rVfTZsG6tfL/Ts6eljxv5pfVh9X+ZVdG9nx+glWeULltOatauo5VzZjGDs016q1atGun3ZZ5g9/VS//795csvv9QKETl27JjkzZtXK+fOnz9vvafwBnYypJCQEAkMDNTK/5kPyOz2YHZk0KBB9Ln2M8HBwTJixAit3GPaQV69elUr1wh7YQthb9wVG2FvixYtJCwsTKuIjRs3Tp577jmtfEv+B2/Ofv31V60itnHjRqlWrZpW3uO7776zdbvMi1U79zOyRnzykXz56SdauadL127y7rDhWoVn3pAMGOD6zV+bNm1k3rx5WrmnUqnicvZM7J0SawLvT74cpVXsqFO1khyLxu+RabPnSvWatbQCAN/WtWN7KwiNyIuvvSH9gl7QKuq+GjdWPhjytlaOLV21Rp4oWkyr6GG+pvna/qrHc71k4DvvauWcr4W9Jjcw+YErEydOlJ49e2oFZ9KkSSOXL1/WKmLmLLtixaL332JkEfaGR9iL/4rJsJc2DgC8zo0bN3TknLd8kh0Zdle62n0sYhrP0T+89TkCAPi2M6dPy8b167RyLKB1ax1Fj5atWrlcJRwyb66OAJGTJ0/qyDkWg9mXLVs2HTln97EHEPcQ9gLwOnbDM7PRg6+ye9tdndYfW3iO/kHY612i61RmAIhtixbMc9ryqUKlSpIjZy6tokemzFmkRq3aWjm2aMECuXv3rlaI606cOKEj5+wGmCDsBRB1hL0AfJadnrfeypdvuzt4jhDTCHsB+APzO2jB3DlaORbQxvmGapHlasO38+f+lI3rnK84RtxgeiCbvSjsIOy1z+5jdSYWW4EB8G6EvQC8TlxYUWl3xa63rozlOfqHL69eFj8MRgl7AfiDA/v2yc+HD2sVXuLEiaVJs+ZaRa8GjRpL8uQptHIsZO5sHSEuc+cMtAwZMugIrth9rLz1DEAAsY+wF4DXsRuemR1ofdWFCxd05FzSpEl15F285Tny5Opbu89RVMJeVg/zGACAIyEuVvXWa9hIUqdJo1X0SpY8uTR2ESSvXPGN/GVzRSf8l912HuaD2PjxiR7sSpgwoY6cu3Pnjo4A4FH8xAXgdVKnTq0j577//nsd+RYTIh49elQr5+w+FjHN7u367bffbIem3mbXrl06cs5bn6O4ipW9AHydOTU+dOECrRzbsHaNVClT0mPHiuVL9Ss5Zm7jsrDFWkVdv6AXZdPO3R49zE7mjphVzI6uH51H/xde0q8WN/G72T0E4wCiip8iALxOyZIldeTczp07deRb7N5uc4pm4cKFtfIuhQoVkiRJkmjlnL8/TyVKlNARvAFvKAH4unVrVsulixe1cuzq1aty+tQpjx1Xr1zRrxQxVz2F3WFWKWfLnt2jR7wIArT48eM5vH50Hp5ahR3bEiRIoCPn7t+/z5k8brC7YtfuCmAAcQ9hLwCvU65cOR05d+DAAZ/sVeVOiGgCX29kbpfdkNMXw17zJvrQoUNaOVe+fHkdAQAQda5aOHiL73fukGNHf9UKcZHdD/4Nuxu5wf5j5c7jDyBuife3g4/YVq5cKQ0aNNDKfaGhoZI9e3at4A+CgoJk06ZNWrmnefPmsnhx9J3mhZg1duxY6dOnj1aOtWrVShYscH66oTsuX74sadOmtbUCYMuWLVKpUiWtfIN5vBYuXKhVxHr16mU9/t7KfF/YuX0BAQG27m9knPvzrPx59qxW/3D0vfPfqfQZMkjWCHY73rBhg9SsWVOriJkVLVeuXIl0316zAc+dO7etcffu3eXgwYPWOCIff/yxVK1aNcJ/G87+zTi6LFOmzJInXz6tYseuHdvl+vXrWoX38HZ37dje+r8rMxcskkpVqmgFAL7l4oULUrFkMdu9UGNbvxdelBdffV0r71aiYH6HK5ZTpkwp+454T2hdvHhxa0FDRMzrgMi+L/ME087KvBZyxdynokWLagVnGjZsKN9++61WEfvqq6+kR48eWsUuOxlSSEiIBAYGauX/zIp2u6vfHRk0aJD1Pgr+Izg4WEaMGKGVe0wrIrMgyS5W9gLwOuZFY8GCBbVybtGiRTryDebF8KpVq7RyzttXjNpdgb169WpbbwIiI2OmzPJE0WLhjiLFioc7ij548/TvI6Kg17AbThcpUiRKG7QVK1FCSpctZx2JkiSVW3fuOj3y5i8gZcqVl7LlKzg8ylWoGOFRvmKlcEdsB72Gud3Va9aK8KhRq7Z1FHqiiP4J52jjAMCXLV4U4jNBr7Fw3jwr0EDclc3J66l/O3nypI7git3Hyu5jDyDuIewF4JXsBonmE21fauUwffp028Gn3ccgtti9feb+mvvtK65duyZTp07Vyjlvf44AAL5l4by5OvINJ/74XbZv3aoV4iLC3uhH2Asgqgh7AXglu6taz58/L7NmzdLK+40ePVpHzpnVot5+qpu5fcmTJ9fKObv32xuY02vs9koj7I05zlpU/BsrewH4qp8PH5Z9e/Zo5TsWzvONHsPwDLuBo7PWFPjH6dOn5cKFC1o5lzVrVh0BwKMIewF4pRYtWkj8CHZN/q9Ro0bpyLuZdgauerI+ZHpdR6XHU0wwt69Zs2ZaOWfut7n/vsBuMG3uv/k+RcywH/bqAAB8zAIXG7NVqVZdfvjlWIwf5us6syxssdxw0nsd/i1Pnjw6cs4XN+yNDTt27NCRc6Z/Z6ZMmbQCgEcR9gLwSnnz5pUmTZpo5dz3338vYWFhWnknE1S9++67WrnWr18/HXk3d26nuf92A7vYYjaO2L9/v1bOtWzZUnLkyKEVPM7Lv3cAICru3bsnC+c7b+EQ2LadJEuePMaPwDZt9RY4ZtofrVi+TCvENWXLltWRc+b1ure/DvQGdkPx0qVLczYTgAgR9gLwWu4Eic8995ztU55iw8iRI2XDhg1aOVeyZEmpXt35KhpvYW6nub12mPtvHgdvde7cOendu7dWrvlKIB/X8MYHgC/avGmjnD1zRqvwkiRNKg2bNNUqZjVs2sz6+s74Wq9hRB+7La0uX74sP/74o1aIyLZt23TkHK3EADhD2AvAazVo0EAKFiyolXOnTp2S/v37a+Vdjhw5Im+88YZWrvXt21dHvsGd22seB/N4eKM+ffrI2bNntXLO9CuuXbu2VogJfz/4zw7CXgC+KMRFC4eGjZtIypQptYpZ5us2aNRYK8c2bVgvpx+8FkPckzNnTsmSJYtWzi1ZskRHcOTq1auybt06rZwj7AXgDGEvAK9lQhsTwNk1c+ZMWbBggVbe4f79+9K1a1e5brOXXbp06aRz585a+QZze83ttsM8DubxMI+LN5k7d67MmzdPK9d8LZD3B2zQBsBfXblyRb5ZtlQrxwJaO2+l4Gmuvr75GR0aMl8rxDV2WzksWrRIR3Dkm2++kVu3bmnlHGEvAGcIewF4tW7durm1ksVcf8uWLVrFLhNo9uzZUzZv3qwzrnXv3l2SJ0+ulW8wt9c87naZx8M8Lt4S+G7atEl69OihlWtp0qSRp556SivEFPr8AfBX3ywNk1s3b2oVXvoMGaRazZpaxQ7z9c3tcMZsMMfP6ripTp06OnLOtCg4ffq0Vviv0NBQHTmXPXt222c/AoibCHsBeLXUqVPLoEGDtHLNrI5p2LBhrAe+D4PeKVOm6IxrGTNmlFdffVUr3/Laa69Zt98u87iYxye23xSaoLdx48bWaXN2DR482NoBGTHrnaHDZMxXk2X0xEnWMWrCVzLywfHl+InW8cW4CfLF2PGSN19+/RMA4BtctXBoHhAoCRMm1Cp2JEqUSJq3DNTKsZ8PH5YD+/ZphbjEbFprh3ndN2PGDK3wb+Y9jN2wt0WLFpzJBMApwl4AXu/ll1+WihUrauVabAe+kQl6jTFjxkjmzJm18i3mdo8ePVore2I78P3uu+/cDnqrVasmQUFBWiEmVatRUxo1bSaNmzW3jibNW0jTB0ezFi2to3nLACsQSZc+vf4JAPB+vx//Tba5eL0S2y0cHgpo00ZHEXMVXMM/FShQwNrPwI6xY8d6XTsvbzBt2jTrPYwdAQEBOgIAxwh7AXi9BAkSWC+AkiVLpjOumRdLZoO3r776Smdihjk1zaxucDfobd++vbRt6x1v5iKrXbt2bt+HyZMnW4/XGSc7kHvCxIkTrQ8E3Al6TbsK87zGj8+vTgBA9Fjool983vz5pUSpUlrFrhKlSkuefPm0cix04QK5ffu2VohL7AaQv/zyiyxfvlwrPGR30YRpJ8YmwQBc4R0rAJ9QqFAhGTp0qFb2mCDvmWeekaZNm8rJkyd11nNmz54txYoVc3unYbODsburYr1VZFYnh4WFWatBzCZpnnbixAlrNe+zzz4r165d01l7PvzwQ2vlCgAA0cGc2RIyz/nvvsDWbb3mdG1zO8ztcebSxYuybs1qrRCXtG7dWkeuff755zqCYTZm++mnn7RyrlmzZlZbFQBwhrAXgM8YMGCAVK9eXSv7li1bZoWJZhXpnTt3dDb6/Pbbb9aq1o4dO8r58+d11r7x48dLBhebnvgK07fX3B93mcfNrG42x/Hjx3U2+pjnfdKkSVYYb15Qu6tWrVrSr18/rQAAiLpdO7bL8d+OaeVYi1atdOQdWtoI9GjlEDeVLl1aKlSooJVzq1evllWrVmkVt5kPfd544w2tXOvVq5eOACBihL0AfIY5fd60c3jsscd0xr5Lly5Jjx49JHfu3PLOO+/IqVOn9JLIMy9UzSlr+fPnl3kuTsOMiAkQ7W5q4SvMY9KnTx+t3GNW9+bLl08CAwNlzZo1Oht55nk2z7d53k1/YPN94K5s2bLJ1KlT2QgDABCtXIWiZctXkFy582jlHcztKVOuvFaOrVn5rVy8cEErxCXufDBuNveN7Y16vYHZsG7Pnj1aOVeqVClr/wgAcIWwF4BPyZs3r6xduzZSga9hwr8hQ4ZY4V+HDh2s1Z579+6Vu3fv6jUidvHiRVm5cqXVTsKsFK5Xr561a+69e/f0Gu4xrQS+/PJLrfzLqFGjrBYakWEez0WLFkndunWtlbgffPCB9bibx98V8zya59M8r+b5Nc+zeb4jG+6boNd8v5m/BwCA6HLzxg1ZErpIK8cCWrveEC02uLpd5ndxWOhCrRCXmDPd7Lbz+v777yU4OFiruOnGg58DgwYN0so1zjIDYBdhLwCfU7hw4SgFvoY5rX/OnDnWak/zKXnq1KmlSpUq1qlRr7zyigwePFgGDhwoL774ohUamtW76dOntzZ9My/KfvzxR/2bIscEvePGjfPb1aLmfpl2DubxjYoffvjBeh7M424ef9Mz17TLMM+LmTfPk3m+zPNWuXJl63k0z6f5uub5jUrbjqxZs1rfZwULFtQZAACix8pvVzjdJDRhwoTStIV3nvljbpe5fc6ExEAffnifJEmSWK9x7XrhhRdifJNeb/Lmm29a7eDsMK+DO3XqpBUAOEfYC8AnRUfg+2/mk/UtW7ZYAeUnn3wi7733nrWi1GwgYULDX3/9Va8ZdWbFqz8HvQ+Z+zdhwoQoB77/ZnZwNhvhmefFPD/meTLPl3netm7daj2P0cEEvevWrSPoBQB4RMjc2TpyrE69+pI2XTqtvEu69Omldt16Wjm2b89u+eXIEa0Ql5gAN23atFo5Z/ZseO6557SKWzZs2CBffPGFVq69/vrrkixZMq0AwDnCXgA+K7oD35hggl4TTMaV/q8PA1/TL9lXsKIXAOBJZ8+ckQ0Pfs8409JLWzg8ZOf2hcxjdW9cZFagmmDSLtMSzezJEZdcuXJFunfvbrtncc6cOaV///5aAYBrhL0AfJoJfE3Pr2bNmumMd0qVKpUVepojrgS9D5n7+9VXX1khd8qUKXXWOzVv3tz6fipUqJDOAAAQvRYtmO805En54DWDWdnrzerWb+Dyd/rC+XMjva8BfNuAAQMkR44cWrnWu3dv2blzp1b+7f79+1Y7BnO2ml3vvvuuJE2aVCsAcI2wF4DPMysxw8LCZMqUKZImTRqd9R61a9eW/fv3R3rDMn9herjt27dPatWqpTPew3zfTJ06VRYvXuxTK8UBAL7FhLwL5s7RyrGmzVtIEi8Pdszta/Lgdjpz+tQp2fLdJq1iX8VKlaVy1WrhjoqVq+g1EF1MMGlabdll2nAFBAREekNdX/LGG2/IkiVLtHKtePHi8tRTT2kFAPYQ9gLwG127drVCVbOZlzdInjy5fPnll7J69WrJnTu3zsZtefPmlTVr1siIESO8pu9Yw4YN5cCBA/L000/rDAAAnvHjg983Rw79pJVjAW3a6ci72bmdC72olcPE6cEyY35IuMPMI/qZ11XufMB/4sQJadmypdXiwF9NmjRJPvroI61cS5AggXVWYPz4xDYA3MNPDQB+xfS0WrFihfXCKFeuXDobs8wLMtMOYM+ePVZ/rbjWtsEV83iY0/vM42Pab8TW42MC+IkTJ8o333zj1qmGAABEVvoMGSR43gKnR/mKFfXa3q1CpUoOb/+/j05P8UFqXGVe35mz7kwrM7t27NhhfQjvj4GvOYPMnOXmjpdfflkqPfh3BgDuIuwF4JdMy4Rff/1VQkJCpE6dOjrrWenSpZOXXnpJjhw5YrUDePzxx/USOGI2QDPtN8zj5c7OzVFVt25dWbRokfX90bNnT50FAMDzsmbLJlWqVXd6+MoqPnM7Hd3+fx9ly1fQayMuypMnj3zyySda2bNlyxa/C3xN0Gs2Kzb9eu0qWrSoDBkyRCsAcA9hLwC/ZU59CgwMtNoo/PDDD9bmD57YIMz00jIrif/44w/rBW2+fPn0EtiRP39++eyzz6zHb9y4cVKsWDG9JPqY571v377y448/yqpVq6zTBDklDgAAwLPMatbGjRtrZY8JfKtXry7Hjx/XGd/1wQcfSPfu3d0KehMnTizTpk2TJEmS6AwAuId3ugDihCJFisiYMWPk5MmTVpuHoUOHWhtBuHv6fqJEiaRMmTLy3HPPWS0A9u7da206ZlYSmx69iLwUKVJYj6vpu2weV/P4mjcI5vE2j7s7zPNqgn7zPJvn2zzvo0aNkieeeEKvAQAAgJgwY8YMKVCggFb2mNeC5cuXl++++05nfMvNmzelU6dOMnDgQGtjRneMHTtWypYtqxUAuC/egx884X7yrFy5MkobHIWGhkr27Nm1gj8ICgqSTZsit5uu6V1qTmmHbzIvNvr06aOVY61atZIFCxZo5XtOnz4tO3fulIMHD8r169etF2dmV+CECRNauwmbjcQyZMhghY4lS5bkU/ZYcOvWLetF/65du+TChQvW82Oep3v37lnPkTlM2G7CXPPGIEuWLPonfUeFChWsXnXOmLYXps8xAADwT+aMMbNxbESqVq0a6fdlscm8zjb9Zy9fvqwz9phVrsOHD7f2e/CVfTB++ukn6dKli/W61V3mfffnn3+ule+wkyGZ9npmMUZcYVZzmzNNI2vQoEHW4iT4j+DgYGuj8sgwC6OuXr2qlWuEvbCFsDfuigthL+ANCHsBAIC/hr3G8uXLrdcx7rQ0eKhGjRrWhm/e3C7N3C8T5JjVvGZRgrtMBrNs2bIoBYSxhbA3PMJe/FdMhr20cQAAAAAAAB5leveatmqRWaG7YcMGKVGihHz88ceRClI9zXxgbwJps1lzZG6fadswd+5cnwx6AXgfwl4AAAAAAOBxZn+GyAa+165dk1dffVUKFSpkbWAWmRXC0e2XX36R9u3bS8WKFSPdX9gEvWZlbJo0aXQGAKKGsBcAAAAAAMSIXr16RTrwNY4fPy5du3a1NmAeOXKkXLlyRS+JOVu2bLE2YDP7RZgVue5uwvbQw6A3Xbp0OgMAUUfYCwAAAAAAYowJfCdMmGBtiBxZhw4dkueff97aL6hfv36yceNGj672PXXqlIwbN07KlSsnVapUkVmzZsmdO3f0UveZv4OgF4AnEPYCAAAAAIAY1bNnT1mxYoWkT59eZyLHrOwdPXq01TM3S5Ys0q1bN2u17dGjR/UakWPaRpjN8IYNG2a1aTChcu/evWXXrl16jcgzK5PXrl1L0AvAIwh7AQAAAABAjKtTp45s377daocQHc6dOydTp061+ujmy5dPMmXKZG0MZ1YAf/jhhzJ9+nRZtWqVbN261Qptzdc2vXZDQkKswHjgwIHy1FNPSbFixaweutWrV5c333zTul5kWzX8W/z48eWTTz6RKVOmSOLEiXUWAKIXYS8AAAAAAIgV+fPnt8JXE9BGNxP+fvPNN1Zv3zfeeEOefvppqV+/vlSuXNlqx2BW7FarVk1at25ttYL44IMP5Ouvv5YffvhB7t27p39L9MiaNassW7ZMXnrpJZ0BAM8g7AUAAAAAALEmderUMnv2bKv9QsaMGXXWf5jN3A4cOCANGzbUGQDwHMJeAAAAAAAQ69q2bWutqg0MDNQZ32baSCxYsEBmzJgR5d7EAGAXYS8AAPB6M6dPk0njx8nkCeOtY8rECTL1q4n/OyZNlGmTv7KOy3/9pX8CAAD4osyZM1s9dE37hZIlS+qsb0maNKm89tprcvjwYWnVqpXOAkDMIOwFAABe77OPPpSh7wyW999+yzreGzxI3n1r4P+OQQNlyMA3reP8uXP6JwAAgC8zLQ++//57mTZtmuTKlUtnvZvZgK1bt25y5MgRa0O4tGnT6iUAEHMIewEAgN+IFy+ejgAAgK8z4elTTz1lrZCdOHGi1670TZEihfTq1cvqyzt58mTJkSOHXgIAMY+wFwAAeL2///5bRy6Q9QIA4HeSJEkiPXv2lD179sjGjRulffv2kihRIr009jz++OMyYsQIOXHihIwdO1aeeOIJvQQAYg9hLwAA8Hq2w14AAODXqlWrJrNnz5bTp09bLR7MZm5mZW1MKVasmAwcOFB27NhhrTgeMGCApEmTRi8FgNhH2AsAAPwGbRwAAIgb0qdPb7V4MJu5nTt3TsLCwuTVV1+VOnXqRFv4atpImNW6Tz75pIwcOVJ+/vln2b9/v7z//vtSrlw5vRYAeBfCXgAA4PXsruwl7AUAIO5JmjSpNGvWTIYPHy6rV6+WixcvyqFDh2TOnDnyySefyIsvvigdO3aUmjVrStGiRaVgwYKSL18+KVCggBQuXFjKli1r/flnn31W3nnnHZkwYYKsX79e/vrrL/nxxx9l+vTp0q9fP8mfP79+RQDwXoS9AADA6xH2AgAAu8zrARPotmvXTl566SX59NNPZebMmbJu3TprEzUTBP/yyy9y5MgROXjwoOzcudNaGTx+/Hh5++235ZlnnpEaNWpIypQp9W8EAN9B2AsAALwePXsBAAAAwDXCXgAA4DdY2QsAAAAgLiPsBQAAXs92G4cH/wEAAABAXEXYCwAAvB9tHAAAAADAJcJeAADgN2jjAAAAACAuI+wFAABez/YGbYS9AAAAAOIwwl4AAOD16OIAAAAAAK4R9gIAAL9BGwcAAAAAcRlhLwAA8Hp22zgQ9gIAAEcuXbokP/74o2zcuFFWr14t3377raxcuVLWrl0r27dvl99//13u3r2r1wYA30XYCwAAvN7fD/4DAABwxnw4fPjwYZkxY4a88MILUrt2bcmfP78kT55c0qVLJ0WLFpUaNWpIvXr1pGHDhtKgQQOpU6eOVKxYUXLlyiVJkiSRLFmySOnSpaVDhw7yySefyPr16+Xq1av6FQDA+xH2AgAAv8HKXgAA4pbTp0/LhAkTpFmzZlagW6hQIenSpYuMGDFC1q1bJ7/++qvcuHFDr+3c/fv35ezZs7Jnzx6ZM2eOvPLKK1KrVi1JkyaNFRS//PLLsmnTJut6AOCtCHsBAIDXo40DAAB46MyZM/LRRx9J5cqVJVu2bPLcc8/J0qVL5a+//tJrRC8T7poWEJ9++qlUr15dsmbNKj169LDaQQCAtyHsBQAAXs9u2AsAAPzXli1bpFOnTlbLhddee022bt0aK68RzOrfyZMnW+0gnnjiCRk1apRcuXJFLwWA2EXYCwAA/AYLewEA8D8LFy6UcuXKSZUqVWTWrFly+/ZtvST2/fTTT9K/f3/Jnj271Sf4zz//1EsAIHYQ9gIAAO9HGwcAAOKc7777TqpWrSqtWrWSXbt26ax3Mit7TZ9gsyHce++9J9evX9dLACBmEfYCAACvRxsHAADiDrOpWkBAgFSrVk02b96ss77BhL6DBw+WAgUKyKRJk3QWAGIOYS8AAPAbrOwFAMB3mQ93x4wZIyVKlJDQ0FCd9U2nTp2Snj17SsOGDeWPP/7QWQDwPMJeAADg9eyv7CXsBQDAFx0/flzq168vffv2lWvXrums7/v222+lWLFiMmXKFJ0BAM8i7AUAAF6PNg4AAPivsLAwKV68uKxevVpnPCNFihTy+OOPS6lSpawN38qUKWN93SxZskj8+J6LR/766y/p3r27tG3b1q+CbADeibAXAAD4Ddo4AADgW4YNG2b15718+bLORF3GjBmlUaNG8tZbb1ntIA4ePGgFrlevXpXDhw/L7t27ZceOHdamb/v27ZPTp0/LrVu3rHYLW7ZssVpJdOvWzQqCEyRIoH9r1M2fP9/acM6sYgYATyHsBQAAXq9KterWUblqNeuoVKWqdVSsXOXBUdk6KlSqJIkSJdI/AQAAvNnNmzelS5cu8uabb8r9+/d1NvKKFi1q/V3bt2+Xs2fPyvLly+Xdd9+VFi1aSOHChSV16tR6TccSJkwo2bNnl0oPXk/07t1bJk+ebAXBZ86ckalTp1qBdPLkyfXakbd3714pX768z208B8B3EPYCAACvN232XAmet0BmzA+xjpkLFlrHrJBFD45Q65i9cLGkcvFGDgAAxD6zwrZBgwYyY8YMnYkc05ahV69esn//fjlw4IAMHTrUClKj80yfDBkyyNNPPy0LFy6UP//8UyZOnCglS5bUSyPHhNF16tSRJUuW6AwARB/CXgAAAAAAECNM0NukSRPZuHGjzrgvc+bM8tlnn8mJEydk7Nix1gZoMcGs7O3Zs6fs2bNHNmzYYN2PyDJtI1q3bi1Lly7VGQCIHoS9AAAAABAD1q1eLdXKl3F6fPnpJ3pt77d182aH9+Hfx7Gjv+q1gagHvWYl79tvvy2//PKLvPDCC5ImTRq9JOZVr17dCmrXrl1rrSaOjNu3bxP4Aoh2hL0AAAAAEAMqV60q165elZN//BHhMX3KZLlz547+Ce82O3i6w/vw8DCbZOXJm0+vjbjOBJvNmjWLdNDbqlUr+fnnn+Wdd96RlClT6mzsq1Wrlmzbtk2mTZsmadOm1Vn7Hq7wNaExAEQHwl4AAAAAiAFJkiaVwDZttXLswvlzsmbVSq2811+XLsk3S533G23f+UkdASJ9+vSR9evXa2Vf+vTprd6+CxYskMcee0xnvYvpEfzUU0/JDz/8II0bN9ZZ+0zg26ZNG2vFMgBEFWEvAAAAAMSQDl1cB6BzZwTryHstCplvrdSMSLJkyaV5QKBWiOu++OILmTRpklb2ValSxdp4rVOnTjrj3bJlyybLli2TkSNHSsKECXXWngsXLkjz5s3l8uXLOgMAkUPYCwAAAAAxpGChwlK6bDmtHFu3ZrWcPnVKK+80d+ZMHTnWIjDQq061R+z59ttv5aWXXtLKvq5du1qtDbJmzaozvqNfv36yYsUKa1WyOw4ePCgdO3aU+/fv6wwAuI+wFwAAAABiUIcuXXTk2N9//y3z58zWyvsc2LdPDv5wQCvH7Kxghv/7888/pcuD7/d79+7pjD3Dhw+XKVOmSOLEiXXG99SpU8fq5VugQAGdscesDP7ss8+0AgD3EfYCAAAAQAxq2qKly1Wvc2fO8NrVfXNmOm8zUeiJIlKiVGmtEJf17t3bCnzd8eWXX8qrr76qlW8zQe+6devcDnzfeusta5UvAERGvL/Nx8b/sXLlSmnQoIFW7gsNDZXs2bNrBX8QFBQkmzZt0so9pu/Q4sWLtYKvGTt2rLWZgjOZMmWyNkwAEHk1atTQUcTCwsKsXawBAL5v0GuvyMzp07Ry7Ou586Vqdde/H2LSzRs3pELJYnL1yhWdCe/toR/I0917agV3FC9e3OpRG5GqVatG+n1ZTJs1a5bbvXZN0Nu/f3+t/MeJEyekVq1a8vPPP+uMaxUqVJDNmzdLggQJdMZ72cmQQkJCJDAw7vTxNh/WReW5GzRokAQEBGgFfxAcHCwjRozQyj0pUqSQq1evauUaYS9sIeyNu+yEvQBiBmEvAPgP0wqhRcN6WjlmNjj7Yux4rbzDwvnz5KX+fbUKL3GSJLJtz35JkzatzsAd/hL2njlzRooUKWJtOmbXu+++a61o9VfHjx+X8uXLy9mzZ3XGtWHDhsnrr7+ulfci7A2PsBf/FZNhL20cAAAAACCGFStRQooWL66VYyuWLZVLFy9q5R1MewlnmjZvQdALefvtt90Kejt06ODXQa+RK1cuWbhwoVt9iN9//305ffq0VgBgD2EvAAAAAMSCDp2db2J2+/ZtWRQyX6vYd+zor7Jty2atHGvv4j7FlnGjvpRyxYo4PJYsDtVrITocOnRIJk2apJVrZcuWlcmTJ2vl36pUqSLjxo3TyrVr167JkCFDtAIAewh7AQAAACAWtGjVWpImS6aVY7ODg8VB571YMW/WLB05lq9AASlfsaJW3uX69ety4fw5h8etmzf1WogOb7zxhty9e1cr58ypyXPnzpVkLv4d+JNu3bpJly5dtHLtq6++ksOHD2sFAK4R9gIAAABALEiVKpU0a+G8J+Phnw7Kvj17tIo9JrybP8d52Nu+UxeJFy+eVoiLtm7darUqsGv48OGSL18+reIOsxFdtmzZtHLO/Nt78803tQIA1wh7AQAAACCWdLCxwm/uLOd9cmPC+rVr5E8nG0slTJhQWrVtpxXiqo8++khHrtWpUyfObgSdLl06mThxolaumc3NfvnlF60AwDnCXgAAAACIJaXLlpPHCxbSyrHFIQvk+vVrWsWOuTOCdeRYw8ZNJEPGjFohLjp+/LgsXrxYK+fMhwNjxoyJ0yvBmzRpIi1bttTKOdPKZfTo0VoBgHOEvQAAAAAQS0zY1aGL803NzCZNy8LshWie8OfZM7J65bdaOdbexX2A/xs7dqzcu3dPK+d69OghhQo5/5AjLhg2bJgkSJBAK+emTJli9Z4GAFfi/e2g2//KlSulQYMGWrkvNDRUsmfPrhX8QVBQkGzatEkr9zRv3tz2J7zwPrNmzZLBgwdrBSA2TZgwQWrXrq0VAMBfXLp4USqVKi63b9/WmfDKVagoc0PDtIpZ40ePlOHvv6dVeDly5pJ1W7dL/Pjeu5bos48+lFGff6bVoz7+YqS0btdeq9hVvHhxOXDggFbhVa1aNdLvyzzp1q1bkiNHDjl37pzORMxsyvbzzz/LY489pjNx2zPPPGNtwmbH+PHj5dlnn9XKe9jJkEwrisDAQK383/37920H+Y4MGjRIAgKc93SHbwkODpYRI0Zo5R7zc/Pq1atauUbYC1sIewEAAADPCerTSxYvDNHKsZUbvpP8jz+uVcwwbxfrVqssx379VWfCe+n1N6XvgCCtvBNhr2eZIK9169ZaOffiiy/Kp59+qhVM+wuzSZ2dVdGVK1eWzZs3a+U9CHvDI+zFf8Vk2EsbBwAAAACIZa5aORixsVHbjm3bnAa9ZjVv2w4dtUJctXDhQh05Z75f4uqmbBHJlSuXtUDKjm0P/j2eOXNGKwBwjLAXAAAAAGJZxcpVJHfevFo5tmDuXKetHjzBVcBct34DyZwli1aIi+7evStLly7VyrlGjRpJ/vz5tcJD/fv315FzZrUoZ80CcIWwFwAAAABimbVRW+cuWjl24fw5WeNio7TodOXKFZcbw7ExGzZs2CAXL17UyjlW9TpWp04d2xvWmbaZAOAMYS8AAAAAeAHTN9ZVj8eYbOWwZNFCuXnjhlbhPZY1q9SsXUcrxFVhYfY2DkydOrXUr19fK/yX3Z7Hq1evlhtO/l0CAGEvAAAAAHiBjJkyS/1GjbVybP2aNXLyxAmtPGvOzGAdOda2Y6cobUAE/2B3w7DGjRtL4sSJtcJ/tWzZUkfO3bx5U3bv3q0VAIRH2AsAAAAAXqK9i1YOf//9tyyYM1srzzl08EfZt2ePVo6169BJR4ir7ty5I/v27dPKuYCAAB3BkfLly0u2bNm0cm7Hjh06AoDwCHsBAAAAwEtUr1lLsuXIoZVjc2fNtDZq8qQ5M523izDtG7LnzKkV4qoDBw5YK03tqFevno7giOnbbfcx2rlzp44AIDzCXgAA4NXMKrZzf56V8+f+fHCcs44L58/LxQsXrOPSxYvy16VL1gEAvi5+/PjSvmNnrRw78cfvsnnTRq2i361bt2Th/HlaOeZqBTLiBruhY548eSRjxoxaISLlypXTkXOEvQCcIewFAABe7eqVK1KhRDEpX7zog6OIdZQr9oSULVrYOsoUKSSlnyhoHSYYBgBf16ZDR2uVnzNzZzjvpxsVK1d84/QDtAwZM0ndBg21QlxmVvbaYTfEjOvsPk6HDx+W27dvawUAjyLsBQAAfsNVOAIAviBrtmxSu67z07lXLF9mnd3gCa6C5DbtO0iiRIm0Qlz2xx9/6Mg5wl57SpUqZWvTQ9PG5dSpU1oBwKMIewEAgFdjtS6AuKh9lyd15JjZGGvRgvlaRZ8Tv/8umzas18qx9p2dt5lA3HHixAkdOZcvXz4dwZlkyZJJ1qxZtXLu5MmTOgKARxH2AgAAr0bYCyAuMit7M2fJopVjs2cER/vPyHlzZunIsUpVqkqevAR3+B+7gWO2bNl0BFfsPlaEvQAiQtgLAAAAAF4mYcKE0rZDR60cO3LoJ9m3Z7dWUXfv3j2ZN9t52NvBxYpjxB3mg4bTp09r5Rxhr32EvQCiirAXAAB4Nbur1ujXC8DftOvkul3CnGjcqM20bzjl5LT8NGnTSsPGTbRCXHf9+nWrnYgddlsTwP5jdcnJJooA4jbCXgAA4NVo4wAgrsqZK7dUr1lLK8cWL1wo165d1Spq5s2aqSPHWrdrL0mSJtUKcZ3doNdIyveNbXYfK3cefwBxC2EvAADwC6zsBeCP2nfuoiPHrl+/JsvCFmsVeRfOn5dvly/TyrEOnWnhgH+Yth92JEiQQEeww7RwscPu4w8g7on3t4PlMitXrpQGDRpo5b7Q0FDJnj27VvAHQUFBsmnTJq3c07x5c1m8OOovQAEAcZMJIMoVe0KriJk3k0f+OKUVAPiH27dvS5UyJa2fhREpU668zA9bqlXkTJ4wXt5/+y2twitbvoLMW7xEq+h188YN2fLdd1p5xsL5c2VJ6CKtHtXjuV5SpVoNraKf+TCyVt26WjlXvHhxOXDggFbhVa1aNdLvy6LbxYsXJX369Fo5x1k69r300kvy2WefaRWxt956S959912tYpedDCkkJEQCAwO18n/379+P0gcdgwYNkoCAAK3gD4KDg2XEiBFauSdFihRy9ar9s3gIe2ELYS8AILacP3dOyhcvolXECHsB+Kth7w6RiWNHa+XYt+s3SYGCBbVyj3lL2KhWDTly+JDOhPfxiC+ldfsOWkWvk3/8IdXKl9HK/5iVmod/t7eZli+FvVeuXJHUqVNr5dytW7ckceLEWsGZfv36yejRzv+9G0OGDJHBgwdrFbsIe8Mj7MV/xWTYSxsHAADgF2jjAMBfdXDRysGYO2uGjty3d/f3ToPelKlSSZPmLbQC/seED3bDrNOnT+sIrth9rOwG7QDiHsJeAADg5eyd+knYC8Bf5c2fXypWrqyVYwvmzrFaPkTG3JnOg+KA1m0kWfLkWgH/Ez9+fMmSJYtWzp08aW9lM+w/VtmyZdMRADyKsBcAAHg1+vwBgNmozfnmaBcvXJDV367Qyr5r167K4oULtXLMzspixE12A0fCXvsIewFEFWEvAADwC6zsBeDPGjdtJqnTpNHKMVcrdB1ZFrZYrl+/plV4xUuWlCLFimsFPMpu4Hjs2DEdwZk7d+4Q9gKIMsJeAADg1Wyv7CXsBeDHkiRNKoFt2mrl2Pq1a6zNztwxd+ZMHTnWwcWKYsRtdjdm37Vrl47gzL59+6zA1w7CXgARiffgDVS4d1B2dlJ0JjQ01PYPffiGoKCgSO/62rx5c1m8eLFWAAC45+yZM1KplOtVZYmTJJGfjv2uFQD4n8M/HZRGtWtq5VjQy6/K8y+9rJVzvxw5IvVrVNUqvGTJksu2fQckZcqUOuMZN65fl3VrVmvlGUtCF8nyJWFaPeqpbj2kYpUqWkU/c+ZJo6bNtHKuePHicuDAAa3Cq1q1aqTfl3nC6NGjpV+/flpF7PHHH5fDhw9rhYiMHz9eevXqpVXE8uXLJ7/88otWsc9OhhQSEiKBgYFa+b/79+/b3sDQkUGDBklAQIBW8AfBwcEyYsQIrdxjNsS8evWqVq4R9sIWwl4AQGyxG/aaVW8Hjx7XCgD8U6umjWXP9xGvksz64H3Yhm07bYUMw94dIhPHjtYqvHYdO8mHn0Xujam3+eyjD2XU559p9aiPvxgprdu11yp2+VrYu23bNqlUqZJWETOB98WLFyWNi1YkcV3Pnj1l0qRJWkWsXbt2MmfOHK1iH2FveIS9+K+YDHtp4wAAALya3TYO9OwFEBd06OK8rcKpEyfku40btIqYOVV8wVznYZGrrwWULFlSEiVKpFXEzO/ytWvXaoWI2H2MypUrpyMACI+wFwAAeDW7YS8AxAXNWra0Vvg4M8/GRm1rVn4rF86f0yq8goWfkJKly2gFOJY0aVIpVqyYVs4tWrRIR3Bk//798uuvv2rlXPny5XUEAOER9gIAAL8Q78F/AODvkidPIS1atdbKsRXLl8mF8+e1cmyui0C4Q5cunDEBW+y0cTCWLFki9+7d0wr/ZTcMT5gwoZQtW1YrAAiPsBcAAHg12jgAwKM6dHbeXuHu3buyaMF8rcI7feqU0w3RzIaXga3bagU417RpUx05d/78eVm/fr1W+C/T09aOGjVqSKpUqbQCgPAIewEAgFejjQMAPKp4yZJSxMWp83NmBEf483P+nNlOf7Y2adZc0qRNqxXgXL169SRlypRaOTdu3Dgd4d/MRnd79uzRyjk27QLgCmEvAADwCyzsBRCXuFrde+TwIdnz/S6t/mF2iJ83a6ZWjrV38XcD/5YkSRJp2LChVs4tXLhQTp48qRUeGjVqlI5ca9mypY4AwDHCXgAA4N1o4wAA4bRs1VqSJkumlWOO+vJu27JZfj/+m1bh5c2fXyrY7MEKPGR3talpMcLq3kedPXtW5s2bp5VzpUqVkly5cmkFAI4R9gIAAK9GGwcACC9V6tTStLnzFX6LFy6Uq1evavU/rjZma9+JjdngPhP2pn7wPWmHWcV68eJFrfDRRx/JrVu3tHLuqaee0hEARIywFwAA+AfCCQBxTIcuXXTk2I0b12Xp4lCtRP66dEmWLwnTKjyzy3/rdu21AuwzPXuffvpprZwzQe8HH3ygVdz222+/2W7hkCJFCunWrZtWABAxwl4AAODV/n7wnx2sRAMQ15QpV14KFCyolWP/XskbunCB3L59W6vwGjRuIhkyZtQKcE+/fv1s/y4eOXKkHD9+XKu466233rK9qrdLly6Slo0TAdhA2AsAALwabRwAwDETrLnaqG33rp1y+NBP1thlC4fOzlcKA84ULFhQ6tevr5VzJuAMCgrSKm7atGmTzJjh/N/kv5kwHQDsIOwFAABeLXuOnLJ93wHr2LZ3v3Vs3bNftuzeZx2bv99rHd+u36R/AgDijsA2bSVRokRaOWZC3gP79smPBw7oTHg5cuaSqtVraAVEzssvv6wj1xYuXOhW2OlPrl+/Ll27dpX79+/rjHMNGzaUYsWKaQUAzhH2AgAArxY/fnzJmCmzdWTKnMU6MmfJIlkee8w6Hsua1TrMGADimnTp00ujps20cmzh/HkyY9oUrRxr16mz9fMWiAqzsrdevXpauda/f385deqUVnHHa6+9Jr/88otWzpkV/MOGDdMKAFzjtzkAAAAA+LAOXZy3crh44YLMcdLCwYS8bTt01AqImuHDh9vu3Ws2a+vcubPcvXtXZ/xfaGiojB49WivXOnXqJKVLl9YKAFwj7AUAAAAAH1apSlXJnSevVu6rU68+Z0cg2pQpU0Y6dOiglWtr166VAQMGaOXf9u/fb220Znc/giRJksj777+vFQDYQ9gLAAAAAD7MrKJs37mzVu5r72JlMOAu03YgRYoUWrk2ZswYGTdunFb+6dy5c9KiRQu5evWqzrhmNrHLkyePVgBgD2EvAAAAAPi4Nu07SIIECbSyz6zorVm7jlZA9MidO7d8/PHHWtnTr18/mT17tlb+5cKFC9KgQQM5duyYzrhWpEgRGTJkiFYAYB9hLwAAAAD4OLOJZb2GjbSyr23HTpIwYUKtgOjTq1cvtzZru3fvntXiwN8CX9OX2DwOu3fv1hnXzL/JadOmWW0cAMBdhL0AAAAA4Afad+6iI/vad4x8+wfAGdNeZPLkyZI6dWqdce1h4GuCTn9w5swZt4Ne47XXXpNy5cppBQDuIewFAAAAAD9QvWYtyZo9u1au1ahVW7LnzKkVEP1yPvj+mjhxolb2mMC3a9euVuB5//59nfU9JuAtX768fP/99zpjT9WqVWXw4MFaAYD7CHsBAAAAwA+Ynr3urNSNzEpgwF3t2rWTQYMGaWXfRx99JC1btpTLly/rjO+YN2+eVKtWTX7//XedsSdXrlwSEhIiiRMn1hkAcB9hLwAAAAD4CdOD15w+70r6DBmlboOGWgGe9e6770pgYKBW9i1ZskSKFy8uq1ev1hnv9tdff0m3bt2sgPv69es6a0+KFClk8eLFkjlzZp0BgMgh7AUAAAAAP5E1WzapVaeuVhFr075DnFo9mDhRYkmePIXDgw3qPM98APH1119LqVKldMa+48ePS/369aVPnz5y9epVnfU+3377rRQrVkymTp2qM/bFjx9fpk+fLiVLltQZAIg8wl4AAAAA8CPtuzypo4h1iGMtHPq98KIc+OWow6Nlq9Z6LXiSWbm6cuVKa6Wuu/7++28ZO3asFChQQMaMGSN3797VS2LfgQMHpFmzZtKwYUP5448/dNY+E/ROmTJFWrVqpTMAEDWEvQAAAADgR+rUqy+vDhwkr7w50OEx9KNPJE++fHptIOZkzJhR1qxZE6nA1zhz5oz07dtXihQpIjNnzpQ7d+7oJTHv8OHD0r17d2s17tKlS3XWPQ+D3qeeekpnACDqCHsBAAAAwI+YtgS9+j0vvfsPcHh0fJJgCbHnYeBbokQJnXHfkSNHpHPnzpI7d24ZMmSInD59Wi/xrPv370tYWJi1irdw4cJWUGvmIoOgF4CnEPYCAAAAAIAYYwLf9evXS4MGDXQmck6dOiXvvPOO5MyZU+rVqycjR46U33//XS+NHrdv35YVK1ZI7969ra/TokULqz+vaS0RWalSpZLQ0FCCXgAeQdgLAAAAAABiVNq0aWXZsmUyYMAAnYk808N39erV8vzzz0uuXLmsjdK6desmo0ePlu3bt8ulS5f0ms6ZthDHjh2TkJAQefPNN60wOlOmTNKoUSMZN26cnDx5Uq8ZeXnz5pUtW7ZYfX4BwBMIewEAAAAAQIxLkCCBjBgxQr766itJnDixzkbdDz/8IFOnTpV+/fpJxYoVJV26dNYGcWaDtxo1akiTJk2kZcuW/7+xWqlSpSRz5sySJEkSK4xt3bq1DBs2zNpQ7vLly/q3Rl3NmjVlx44dUrRoUZ0BgOhH2AsAAAAAAGJNjx49rBDUhK6ecv36dfnll19k48aNsnz5clm8eLG1sZppybB37175888/o9SawRkTZJvw2Kw+zpAhg84CgGcQ9gIAAAAAgFhlNmwzLRcGDx5sbTLoL8qUKSO7du2S119/3VrJDACeRtgLAAAAAABiXaJEiWTIkCGybds2qVSpks76JrMJ29ChQ637YnoIA0BMIewFAAAAAABew6yGNZuYzZ8/XwoWLKizvsEE1n379pWff/7Z2uTNn1YpA/ANhL0AAAAAAMDrmI3SzGZrY8aMkVy5cumsdzKhbocOHeTHH3+UUaNGWRu+AUBsIOwFAAAAAABeyYSovXv3ll9//VVCQkKkTp06eol3MKHuwIED5ejRozJr1iwpUKCAXgIAsYOwFwAAAAAAeDWzuVlgYKCsXr3aWu37wgsvSJ48efTSmJUkSRJp0qSJfP3113L8+HF5//33JUeOHHopAMQuwl4AAAAAAOAzihQpIp999pm1mnbPnj3Wpm6mz2/8+J6LONKnTy+dO3eWuXPnyrlz52Tp0qXSpUsXK/gFAG9C2AsAAAAAAHxSyZIlZfDgwbJr1y65dOmSrFu3Tj755BOrf26hQoUkRYoUek17TGD82GOPSc2aNeWll16S2bNnW5utnT9/XoKDg6Vt27aSMmVKvTYAeB/CXgAAAAAA4PNSpUr1/yGt6Z/7008/ydWrV60Q+ODBg1YLiDlz5lih7dSpU2X69Okyc+ZMCQ0Nle3bt8sff/wht2/fllOnTv1/aNy+fXvJnz+/fgUA8H6EvQAAwKsd+/VX6dK2tTzZro081b6tdTzdoZ107dheunXq8L+jcwd5/cUg/RMAAAD/SJMmjRQuXNja3K1du3ZWO4ann35annzySenYsaO0aNFCypcvL9mzZ7d6AwOALyPsBQAAXu3y5cuyedNG+W7jBtm0Yb11bFy/TjasWyvr167537FmjWzbskX/BAAAAADETYS9AADAq/399986AgAAAAA4Q9gLAAD8Qzz9PwAAAADEUYS9AADAy9lb2RsvHmkvAAAAgLiNsBcAAHg12jgAAAAAgD2EvQAAwC+wshcAAABAXEfYCwAAvJrdlb2EvQAAAADiOsJeAADg1WjjAAAAAAD2EPYCAAC/wMpeAADw0MWLF2XdunUyffp0+fDDD2XAgAHStm1bqVOnjlSrVk0qV64sVapUkRo1akjjxo2le/fuMmjQIBkzZowsWrRIDh48KPfv39e/DQB8B2EvAADwarRxAAAAzpjXCtu3b5dPP/1UOnbsKAUKFJD06dNL7dq15emnn5Y33nhDvvzyS5k/f76sXbtWvvvuO9m6dats2bJFNm7cKN98841MmTJFhg4dKn379pXAwEApUqSIpE2bVmrVqiUvv/yyzJ071wqQAcDbEfYCAACvRhsHAADwX7dv37ZC2l69ekn27NmlYsWKVig7e/Zs+eWXX/RaUXPlyhVZv369FSK3b99eMmfOLHXr1rWC4+PHj+u1AMC7EPYCAAC/EO/BfwAAwL8dPnxYnn/+eSt4Ne0Xxo8fL6dOndJLPevu3buyZs0aqyVE7ty5pWrVqjJr1iy5c+eOXgMAYh9hLwAA8Gq2V/bSxgEAAL9kXguEhYVJgwYNpHDhwjJy5Ej566+/9NLYs3nzZunUqZPkypVL3n777RgLnQHAGcJeAADg1ejiAABA3LVixQopXbq0tGjRQlauXOmV7Z1Onz4t7777ruTPn19ef/11rwiiAcRdhL0AAMAvsEEbAAD+4/vvv5f69etLo0aNZO/evTrr3W7cuCHDhw+XfPnyyWeffSa3bt3SSwAg5hD2AgAAr2Z3BQ9hLwAAvu/q1avSp08fKVeunKxatUpnfcuFCxfkpZdekqJFi8rGjRt1FgBiBmEvAADwat54uiYAAIh+69evlxIlSsjYsWP94vf/L7/8IrVq1ZIXX3xRbt68qbMA4FmEvQAAwC+wshcAAN90+/ZteeGFF6R27dpy9OhRnfUP9+/fl88//1xKlSolO3fu1FkA8BzCXgAA4OVo4wAAgL86c+aMFfKOGDEi2lfzJkqUSMqUKSMdOnSwVtd+8sknMnPmTAkNDZWlS5dKWFiYhISEyLhx4+Ttt9+WZ555xuoRnDlzZv0bos+hQ4ekevXq1tcHAE8i7AUAAF6NNg4AAPinPXv2SIUKFWTz5s06EzVJkyaVpk2byqhRo2Tbtm1y5coV2bVrl8yaNUs+/fRTq49ux44dpUWLFtKkSRNp1qyZBAYGynPPPSfvvPOOTJgwQZYvX24F0MePH7eC4KCgIMmbN69+hagxrRw6d+4sb7zxBq9vAHgMYS8AAPALLOwFAMB3mNW11apVs0LVqEiYMKG0adNG5s+fL3/++acsWbJE+vbta4XISZIk0Wu5L2fOnFYQbFow/Prrr7J3714ZMmSI5M6dW68ReR9++KEEBATIjRs3dAYAog9hLwAA8Gp2V77QxgEAAN+wYMECK6C9du2azrjPtFoYNGiQHDt2TObNmyetW7eWlClT6qXRz2wcN3jwYGvTtYULF0rdunX1kshZvHixtGzZksAXQLQj7AUAAF6N0xwBAPAfJug1PXTv3r2rM+5JmzatDB8+XH777Td57733JHv27HpJzEiQIIG1KnfVqlVWq4iaNWvqJe5buXKlFfia9g4AEF0IewEAgFdjZS8AAP7B9MCNbNBr2jWYnrtmZe2rr75q9eeNbaZVxLp166zWEU888YTOuscEvqaHMIEvgOhC2AsAAPwCYS8AAN5ry5Yt0qlTp0gFvcWKFbNW0X7yySeSPn16nfUeZlO43bt3WyF0/Pjuxywm8O3evbtWABA1hL0AAMCrsbIXAADf9vvvv1ubnd26dUtn7DG/21977TXZtWuXlClTRme9k9kMzrSX2LRpk+TPn19n7Zs1a5YMGzZMKwCIPMJeAADg1ejZCwCA77p+/brVl/bMmTM6Y4/ZbG3RokXy4YcfSuLEiXXW+1WuXFl27Ngh9evX1xn7Bg4caG3cBgBRQdgLAAC8Wv78BeTNt4dYxxuD37GO1996+8Ex2DpeG/SWdTzZrYf+CQAA4C2effZZq8WBO/LkySObN2+2etn6onTp0sny5cvl+eef1xl7zAfcnTt3lsOHD+sMALiPsBcAAHi17DlzSs9eva3jmd59rOPZPn0fHP2s47m+/a2jdbv2+icAwP/cu3fPOgWesx3gS+bNmyczZszQyh6z0dnWrVulePHiOuObEiRIIF988YXV2sEdV69ela5du1r/5gEgMgh7AQAAAPgNE4aePHFCloYtlqHvDJZOrQOlRcN60rBmdaldpaI0rFVDWjVtLC8P6C8Tx46R9WvXyOlTp/RPxz4T9Hy3cYOM/OxT6dapg5QtWlgK5swmj+fIKk/kySn5s2WRJ/Lmsu6LuQ+zgr+Ww4d+kvv37+vfAHiHs2fPSp8+fbSyxwS9a9eulSxZsuiM7zObtplWFO4wm9l9+umnWgGAe+I9eDEU7qNhsxNkgwYNtHJfaGioZM+eXSv4g6CgIKvRfGQ0b96cvkMAAADwGPOWZv2aNTJ31gz5fucOOetmb1Dj8UKFpVmLltKsZYDkjcTmSlFhgtoVy5bK+NGjZP/ePZFavZsyVSpp0Kix9H/xJcmdJ6/OesZvx47KZ8Odh1et2rWXmrXraBVzdmzbKsFTp2jl2JPduku5ChW18i5mNeuBAwe0Cq9q1aqRfl8W01q1aiULFy7UyrVChQrJ+vXr/Sro/bcPPvjA6slrl9nw7fvvv5ciRYrojPeykyGFhIRYm/TFFebnulndHVmDBg2SgIAAreAPgoODZcSIEVq5J0WKFNaHwXaxshcAAACATzKh6JpVKyWwSUPp3qWjfLN0SaSCXuPIoZ/k84+HS91qlaVpvToyZeIEuXnjhl7qGeb2r121ylp53PeZHrJvz+5IBb3G1StXJGTeXKlbtbK8+fKLcvKPP/SS6Hfp4iUJW7TQ6TFu5Bd67Zg1afw4h7fn38cJDz42+B8T8roT9Joet0uWLPHboNd48803pVu3blq5Ztq2PPPMM1oBgH2EvQAAAAB8jmm/ENC4gfR8srPs27NHZ6PHwR8OyHuDB0n1CuWs8PDG9et6SfQ5/NNBaduimfR4spP86GQlp7vMarLZM4KtNg/vv/2WFRjFhm1btsjRX37RKmb8efaMrP52hVaILXfv3pXXX39dK9cSJkwoc+fOlQIFCuiM/xo3bpy1Otsus0mdO6E5ABiEvQAAAAB8hln5Ourzz6x+tvv37tVZzzh/7k+r72+NiuXlq3Fjoy043bp5s7Rp0cxqOeEpd+7ckckTxkuPLp3kypUrOhuz5sx0b2OuqFowdw6bWnmBr776Sg4fPqyVa2YDs3r16mnl3xInTmy1M3jsscd0xrU33niD72sAbiHsBQAAAOATbt++La8EPS+ffeTeZkdRZULfD4a8LU3q1rKC2qhYviRMunZsZ7VdiAmbN22UDoEtrVWvMW3+nNnWcxYTzIcAc2bEbLiM8K5duyZDhgzRyrWaNWvKCy+8oFXckDlzZhk/frxWrh06dEgmTZqkFQC4RtgLAAAAwOtdunhRnu7QVkLmztGZmGfaEnRqHSDHfv1VZ9zz9ZTJVm/emApAHzJtKVo3axrjbRUunD8XY20Vtm7+zto4DrFr9OjRcvr0aa2cS5kypUyZMkXixYunM3FHixYt5KmnntLKNROgm9X6AGAHYS8AAAAAr2baELQPaGH1gbWrSLFi0rXnMzJ64iRZuOwbWb5mnSxbvVYWLFkmYydNkR7P9ZLiJUtGKmiKTOiyaMF8eftN+31MHy9YSLp07SZfjp8oa77bKlt275Md+3+UTTt3S9i3q+XtoR9I42bNJX2GDPonnPvj9+PSqU2gnD93TmdixpwZwTryrJj6OoiYaTUwZswYrVz74IMPJG/evFrFPV988YW1yteOkydPyoIFC7QCAOcIewEAAAB4LbPh2Mv9+8qRw4d0JmIpU6WS198aLHt+OiJLVq6Rwe8NtQLRkqXLSKEnikjhIkWldNly0rBJUxn4zrsS+s1K2XPoZ5kcPEvq1Kuvf0v0+/nwYRn4ystaOdesRUtZv22HrFi/Ud4dNtyq8+TLJ1kee0wyZMwo2bJnl6LFi8vT3XtaQbYJgCdOD5Z8Nja3OnP6tLz04LE0j2lM2bBurRU0e5JZ9f3N0iVaIbaEhYXJb7/9ppVzBQsWlN69e2sVN6VNm1YGDx6slWujRo3SEQA4R9gLAAAAwGuNHfmlrFzxjVaOmd38uz/7nKzfukOe7dNPUqdJo5e4lipVKqlVt6589fUMK/yt16ChXhI9TMuGfs89IzduXNcZx0qUKiXzw5ZaK3lz5sqts66Zlcl16zeQ5WvWyzsfDJM0adPqJY6Z8HXi2NFaxYx5s2fpyDPMqumYbo2B8EaOHKkj18yqXvPvNq579tlnpYCND2qM7777Tvbs2aMVAESMsBcAAACAV9q7e7d87mIzNrOad1bIIhk05D1Jlz69zkaOaeswYdrXsnjFKqlQqZLORs2YL0fI4Z8OauWYWWk8N3SJlClXXmfclyhRInmqWw+Zv3ipZHJxavjnH38Uo/17582aaZ3i7wlmY7ZZwV9rhdhiNhFbs2aNVs5VqFBBWrdurVXcZv7dvv/++1q5NnbsWB0BQMQIewEAAAB4nZs3bsiL/fs4bTlgwt1ZCxZJ2fIVdCZ6FCtRQoLnhUif5wfoTOQcOXRIxnwxQivHmjRvIV+OmyCJEyfWmajJ//jjMmfhYnksa1adCe/2rVvy+ktBVlAanUxwZVpm/NfpU6dk/Vp7QaC79u7+/sHj/JNW/6hYubKOEBPmz5+vI9defPFFHcFo06aN5MqVSyvnQkJCPPbBCQD/QdgLAAAAwOvM/Hq609WnGTNltkJN07/WE8wp5i+/MdBq7+BOW4h/GzfqS7l7965W4ZkVvSPGjLNC0uhkevzOXhgqGTJm0pnwdmzb5taGd3Z16PKkjh41x0Orb2c7+HvNcxfYtr1WiAmLFi3SkXPZsmWTVq1aaQUjQYIE0qtXL62cO3funGzevFkrAHCMsBcAAACAVzH9V78aF/Gu/qZPrVkNW6BgQZ3xHLNx25KVq63Vvu4wm6GFLVqoVXhZs2WTjz7/wmN9S3PlziPDP3e+qnjy+Og/JbxZy5aSPHkKrf6xeuW3cvbMGa2ix9WrVx88xuFDxvqNGlub2SFmnDhxQnbt2qWVc6ZHbXR/uOEPnnnmGUmSJIlWzoWGhuoIABwj7AUAAADgVUJD5lun/kekd//npVKVKlp5Xo6cuay+wOUrVtQZ176eMsnpqt5hn34uqVKn1sozTFDdql3EK1xXfbtCjh39VavokSJFSmkRGKjVP0w7jujeqM2E6Y42vmvfuYuOEBNM+Gi3JcjTTz+tI/xbxowZpWnTplo5R9gLwBXCXgAAAABew4SC40ZFvKt/7rx5pf8LL2kVc0yIOXnGLKlUpaq1stiZG9evy4zp07QKz7RvqFGrtlae9fqgtyRlypRahTd14kQdRZ/2nR23cpg7c4bTHszumjMjfAuHbDlySLUaNbVCTFi1apWOnCtZsqTkyZNHK/xXy5YtdeTczz//LMeOHdMKAMIj7AUAAADgNb5dvsxpr9633/tAkiRNqlXMMoHvzAULXbaPCJk3V/66dEmr8F4b+JaOPM/0Nu7Zq49W4c2dPdPpbY2MEqVKSaEnimj1j9+P/yZbvtukVdQc/OGA7NuzR6t/tO/YWeLH521uTNqxY4eOnAsICNARHGnWrJntti52H3MAcRO/BQEAAAB4jSkTx+sovHwFCkjNOnW08l5zZ83QUXhVqlW3NlCLSe06dY5wNfLNGzdkSai9zbXsMl+rQxfHrRSia6O2OTPCP8bm67bp0FErxIQzZ87IH3/8oZVzzZs31xEcSZ8+vVStWlUr53bu3KkjAAiPsBcAAACAV7j811+yc/t2rcJ7qnsPly0UYptZJbt/716twmvfxXGLA096LGtWq39vRKJrte2/BbRqI4kdbDi1YvkyuXD+vFaRYwLqhQvmafWP2nXrWRvfIebYDR2TJUsmpUqV0goRqVSpko6cI+wF4AxhLwAAAACvYELHiDZ6Sp48hQS2aaeV99q2dYuOwkubLp00aNRYq5jlLGQ2j3t09tI10qT9v/buA7zJ6u3j+A1lF5AlqyhDhsiQvWVbEShUkI2CAwezigMVcSL6B7Uo4laQPaVFUNlgZYgMka0CMmSIAyh7vT2Pty+WJmnSpumTp98P17l67tOkI21K+8vJffJJm4h2Wl1x/vx5q81Fanw57ws5cfy4VlekR5Ce0a1bt05nnlWvXl1CQkK0gju1a9fWmWfe3u4AMibCXgAAAAC28M3yZTpLqkPnzpInTx6t7Gu1h12yd9zZSbK72O0aCE2bt7D697ry159/yk87tmvlP527u2nlMHmi21DfG9MTrn+1awsXtnb2IrB27dqlM89q1aqlM3ji7e107Ngx+TPhfgsArhD2AgAAALCFuOXLdZbUrem0I9ZXq779VmdJNWrcVGeBZw5+qteggVZJefq4U6pOvXpS+oYbtLril59+knVr3bfr8MQc3rdmVdLd0526dvP6cCv4z4EDB3TmWdWqVXUGT0qWLCnXXHONVp799ttvOgOAxAh7AQAAAKS7vb/usYYrmTNnlhpBsDPQ9KLdsW2rVklVr1lTZ+mjRi33TxH3tCM5pUx/5S5udvdOnZR0d6433F3PHEKHwPM2cAwLC9MZklPcy77ThL0A3CHsBQAAAJDuvl2xQmdJVa56s4SG5tbKvtauWa2zpMqULWv17E1P1Wu6D8xXrfw2Va0V3OnYubPLHbfzYmOsA/l8ce7cOZk1fZpWVzS8pbFcX7KUVggkbwNHbwPMtPTb/v3WgzHJDXPIYnoi7AWQWoS9AAAAANLdzu3ue8bWrV9fZ/a2Z7f7/qU1PeyqDZSKlSpJNjc9g82BZ6Z3r78VLHStyxYcZ8+ckZjZs7TyzuIFX8uffxzV6orOPVzvHkbaMuH7314Go3YIe4e/8Jzc3rxpsmP+F3P1GunD29vq0KFDOgOAxAh7AQAAAKS7A/v36Syp2vWCI+w9eMD9TrvqNgh7s2XLJlVvrqZVUocOps1OwS5uwljTksGX3cTTJ0/S2RVmt3R4kPRzdpozZ87oLHkFChTQGZLj7W119uxZnQFAYoS9AADA1vbt/VVmTJ0sM6dNkVnTplpP4TVj9ozp8vnMGdaYM2umrF7p/8OFAASOp4OeKtx4o87s7eBv7j+HUqXL6Cx9lSxVWmdJpdXTwhs1biLFS5TQ6optWzbL5k2btPLswL59snzpEq2u6Ni5i2R3s1sZaevChQs688z0bjZ9t+Edbw8aPH/+vM4AIDF+4gIAAFvbsG6dPPlIlDwRNUgejxoojw8aYI3HBvaXwQP6WePR/n3l/TFv6zUABCNPO3uLFC2mM3s76GFnbJEiRXSWvgp7+DgOpVHYa4K+Lt1cH6A2ddIEnXk2Y9oUnSXm7gA42IcJe+E9gnEAqcVPEQAA4Az8LQkErfj4eLeHdRUoWNBqPxAMfvPQxuFam4S91xYprLOkDqbhgU93du3mMvSLnT1LTp6M18q1ixcvyowpk7W6ombtOlK2fHmtEGghISE68+zSpUtpcvifU3m7Y9fbHcAAMh7CXgAAYGve/oHIziEgeP12YL/OkipaLDh29Zr+ma4ODzNy5QqV3Llza5W+Chd2Hzp7akORWsWKF5dmLVpqdcXJkydlXmysVq59s2yZyyC6KwezpStf2md4e5AbvL+taF8CwB3CXgAAYGvsBgKc78A+D2FvkLRwOHzooM6S8rSbNtA8tXFIy529Rpeed+kssakTPbdycNXqwYTnrSPaaYX0kCNHDsmTJ49WnqVVP2gn8va2KlzYPj9XANgLYS8AAHCETPRxAILWn3/+obOkigTJzt5jf7tuQ2HYKZS51sPHcsxNKw1/MTt7Xb3/jevXyc7t27RK7Pcjh2Xxgq+1uqJ9xzslZ65cWiG9FC9eXGeeEfZ6z9vbytvbHkDGQ9gLAABsjTYOgPN5OtXfLu0PknPxovvPwbRxsIucOd0HpBc9fB38wfQY7dS1m1aJTZ00UWeJzZo+zerZe7WuPVzvEkZgEfb6H2EvgNQi7AUAALZGGwfA+TyFjCEhwXEIkafA2tuDrALB08dy/oJ3B0OlRufuPXSW2OczZ8jZM2e0+of5+T9t0iStrqhctapUqlJFK6QnbwPHzZs36wyeHDp0SP7880+tPCPsBeAOYS8AAHAEdvYCwctTyBiSxT5BqScXLiTdffovO4W9nk7wv+jhc/CX60uWkoa3NNbqimN//y1fzZ+n1T/WrFopv+7ZrdUV7Oq1j9KlS+vMs++//15n8GTt2rU68yw0NFQKFSqkFQAkRtgLAABsjTYOgPM5Ywd/cHwOnn5WBurr0LlHT50ldvVBba4ObsuRM6dE3NFBK6S3GjVq6Myz9evX80wdL3gbilevXp3fewC4RdgLAADsjT8OAcfLmiWrzpK6dPGSzuzN445ZFz1n04undhNZsgamZUZ4q9slX/78Wl1hdvLu2bXLmv/911/y1bwvrPl/tW0XKXny5NEK6a1WrVo68+z48eOydetWreDOmjVrdOaZt7c7gIyJsBcAADgCO1yA4BXiISj1FE7aSbCEvZ4OkvP0OfhT9uzZpWPnLlolNm3yPz1658yaKefOnbPm/9W1p+tdwUgf1113nRQpUkQrz774Iml4jyvi4+Nl2bJlWnlG2AvAE8JeAABga5e9fGo0YS8QvLJ6CBlPnz6lM3vzdJDcmTOndZb+zlx1CNp/BfIwvC7dXYe2M6dNlfPnz8sUFy0cypYvL9VrEnLZTc2aNXXmWUxMjM7Sh9kRXqBgwWRHjhw59BqB9dVXX8nZs2e18oywF4AnhL0AAMDWvO7xR9gLBK3cHp6Wf+TQIZ3Zm6fWAkeOHNFZ+jty+LDOkgpkewQT3NasXUerK/44+ru8/uoI+WnHdl25whzMxgN79tO8eXOdeWZaFBxKx/vzq29Ey/ebtyU77rizk14jsObMmaMzz8LCwqR8wv0HANwh7AUAALZGy17A+YoVD9NZUgcP/qYzeytarJjOkvrdQ8AaaJ7C3mLFi+ssMLq6Oajtg7FjdHZF1qxZ0y2Eg2ft27fXmWeXLl2SyZMna4X/OnHihMTGxmrlWbt27XjQA4BHhL0AAMAR+MMHCF5hJTyEvb8d1Jm95ciZ0+WhY4bpxXn6lD3aURw54insdf91SAutI9pJ7ty5tfKsVZu2kr9AAa1gJ2XLlpVKlSpp5dnYsWOt0BeJjR8/3gp8vREZGakzAHCNsBcAANiat20cCHuB4FWgYCHJli2bVokd/f2Iy4O67MhTWOopZA0kT7uMi4UFdmdvzly5pH3HO7XyrIubXcCwB28DyF9++UW+/PJLrfCvd955R2ee5c2bV5o2baoVALhG2AsAAGzN6569AIKWebCmWJj7oNRObRA8KeahlYOn9gmBdPiQ+4+jaLHAhr2G6cObnOtLlpJ6DRpqBTvq2LGjzpIXHR2tMxjmYLbt25P2qHalbdu2bh8YA4B/EfYCAABHYGcvENyKe9gVu3PHDp3Zm6fA+tc9u3WWvvbt3aOzpDx9DdJKpSpVpHLVqlq51qVHD8mcmT9d7ax69epSp07SA/dcWbRokSxevFirjM08oP30009rlbyHH35YZwDgHv9jAgAAW6ONA5AxFA8robOk1qxaqTN787QzdsO6dTpLP+fPn5cfNm7UKqniAW7j8C9Pu3tNyHtnl65awc769++vs+Q98cQTPHMngTmwbsOGDVp5Vq1aNWnUqJFWAOAeYS8AALA3/hgEMoTrS5bUWVLBEvZeX6qUzpJa//33Oks/27ZskbNnzmiVWGhoqNU7OT1E3NHBOuDOlZbht8m1hYtoBTvr3LmzFC5cWCvP1q9fL5MmTdIqYzqTcF8cOnSoVsnr16+fzgDAM8JeAADgCOzrBYJbXQ89WX/8YaOcPBmvlX3VqVtPZ0nt3L7N69P208r6dWt1llSdevXT7RkSefLkkbbtXB/w1cWLnr6wh+zZs0ufPn20St4jjzwiR44c0SrjMe0b9uxx31blvwoUKCA9evTQCgA8I+wFAAC2RhsHIGOoVqOG5MyZS6vELl26JN9/951W9lWkaFEpVaaMVomZn2U/bFivVfpYv9Z92FuvYfo+Pbxrz546u6JosWLSuFkzrRAMTIB7zTXXaOXZ0aNH5aGHHtIqY4mLi5PRo0drlTzT9iKnm93vAHA1wl4AAGBr9PQDMgZzwnzdBvW1SmrR11/pzN7qewhNV8XF6SzwLl686LEdhqePOxCq16wlZcuX1+ofnbp1l5CQEK0QDAoWLChDhgzRKnmff/65TJgwQauMIT4+Xnr37m09iOWNEiVKyKBBg7QCgOQR9gIAAGdgZy8Q9Bre0kRnSc2ePl2OHzumlX152iE7a/pUuXDhglaBtXzpEvndzVPm8+TNKxUrVdIqfZhnZ4yMfivRuKv3PfpaBBMTTJqA0ltmd6/p4ZsRmIDXtGP45ZdfdCV5L774ouTIkUMrAEgeYS8AALA12jgAGUejxo11ltTp06dk+pTJWtlXvfrudycfOXxYli5epFVgTZ3wmc6Sqt+goS120N5cvYZ07NL1/0eha7077Av2YtoNvPDCC1ol79SpU9K+fXs5dOiQrjiXOZAtNjZWq+RVrlxZevXqpRUAeIewFwAA2BptHICMo/yNFT0GfOM//shqR2Bn1xYukqQdwX9Nmxj4p6wfOnhQlixaqFVS6d2vF85zzz33SJMm7nfqX23//v0SGRlptThwqnHjxsmIESO0Sl7mzJnlgw8+sF4CgC/4qQEAAByBnb1A8DP34zu7dNUqqQP798nX8+dplT7OnTuXbODcoVNnnSVldvb+tn+/VoExY8pkt/1BTa/kiMg7tAL8w9yXP/30U8mdO7euJG/NmjXSqlUrRwa+pi/xfffdp5V3Bg8eLPU9PFMAANwh7AUAALZWoFAhqVy1qjUqVakiN1WuLBUr/TNuvKmSVKh4kzWKh3nfHxCAfd3Tp48VQLoz/Plh6RYG/f3XX3JH61ay6+efdcW1bj3vlhxuTs43z1Z4/TXvd/el1h9Hf5cP3xurVVImmC6Y8HMW8LfSpUvLyJEjtfLOt99+67jA1wS9vhzIZtx0003y0ksvaQUAviHsBQAAttYmop3Efr3IGnMXLJYvFi6ReYv+GfMXL5UvlyyzxhPPDNVrAAhmpg2C6dfqzsHffpP/DQ98CHLi+HHp3b2LbNuyWVfcuyZfPunUpZtWSX0+c4asXbNaq7T1v+EvS/yJE1oldU+fB3UG+J85fO22227Tyjsm8G3cuLHs27dPV4LXa6+95nPQmzVrVhk/frxkz55dVwDAN4S9AAAAAGylz8N9PbZmmTjuU1nw1ZdapT2zO7Z3966yaeNGXUnePX0e0JlrT0QNklOnTmqVNpYtXiwzpk7RKqkmzZpLuQoVtALSxqRJk6RMmTJaeWfDhg1Su3ZtWbVqla4El7Nnz8pdd90lQ4YM8SnoNd555x2pVauWVgDgO8JeAAAAALZSqnQZa1e/J48PGiA/bNigVdrZuH6dRIS3lA3rvtcV75QqU0Zahrvf0fjrnt0ybMiTPgdB3tq/b688+eggrVy798GHdAaknYIFC8rcuXMlT548uuKdw4cPS7NmzeTtt98OqsNad+7cae1Mnjhxoq54b8CAAdKnTx+tACBlCHsBAAAA2E6/qEckJCREq6RMW4WenTrI6pUrdcW/TLg0afw46dw+Qg4dPKirvnl4oOewdfaM6fLU4EeSPfDNV3t/3SNd7mgvvx85oitJ3Vy9hjRq3EQrIG2ZHrSTJ0+WzJl9iyDMDtmBAwdKixYt5Ndff9VVezI/M0aPHi3VqlWT7777Tle9d+utt8qbb76pFQCkHGEvAAAAANsxBy8OeuwJrVw7efKk1Ud3yaKFuuIfZ06flicfiZJnhzwhFy5c0FXfVa9ZS+6+x/MJ/KbNwhNRA/0W+O7ZtUu63tFeDh44oCtJZcmSRV57M9pjqwzA39q2bWvt0k2JpUuXSpUqVeSNN96wAmC7Wb9+vTRt2lSioqLkdMLPD19Vr15dpk+f7vEBLgDwFmEvAAAAAFt6qP8AqVGrtlaunTt7Vvrc3VOefGRQinfg/uvcuXMyZcJn0uKWBjJzmvtet754/JlnJKzEdVq5Zg5s69mpo2zd/KOu+M6ExVMnTZQ727VJ9nYY8MhgKV/hRq2AwOnbt6+MGTNGK9+cOHFCBg8eLDfeeKPVB9gOrR12794t3bt3t3rsrlixQld9Y4LeRYsWSb58+XQFAFKHsBcAAACALZkdqGM++EgKXVtYV1wzoY/ZIdusQV0ZNWK4daCat8x1zW7YN/73qjSuU1OeeeIxj7tifRUamlvefv8D63PxZM2qldL21hZWaH3k8GFd9U7ciuXSpmVzefqxR+XPP/7QVdfq1q+fbHsJIC3169cvxYGvsWfPHunZs6dUrlxZ3n33XWuHf6CZNg3mADYTPE+ZMiXFwfO/QW+BAgV0BQBSj7AXAAAAgG0VLVZM3v34k2TDUuPsmTMy9q3RUrtKJQlv0kiGPvm4xH4+2zpcbduWzbJ96xb5YcN6q+3D6FEj5d6e3aRW5YrSvGE9GfPmGz6HrN6qVqOmPDXsea08M6F1gxo3S+Tt4TLixedl8cIF1k7d48eOyalTJ+WvP/+UXT//LNMmT5LBA/pJw1rV5e4unWTn9m36FtwrULCQjH43+eAZSGsm8H3vvfdS1bZg69at1k7hsLAwGTRokKxcuTLNDjw0zIFxH374odSpU0fq1q1rHcBmng2QUvXq1SPoBZAmCHsBAAAA2FrN2nVk3JRpkveaa3QleT/v3CmTPxsvUX0fko5tW1s7X1u3aCZ3tG4l99/VQ0a/PlKWLV5shae+MH1us2XPppX3et/fRwY8Olgrz0xgtWnjRvnw3bFWiwoT/la7sZxUvqG01Kx0o7S8pYF1sJtp/+DtLuQiRYvKpBkzpXCRIroCpK8HH3xQvvrqK8mfP7+upMyxY8fkrbfekoYNG0rx4sWlT58+Mnv2bNm3b59eImXOnDkjq1evlpEjR/7/237ggQdk7dq1eomUM7uCly1bRtALIE0Q9gIAAACwvQaNbpHP530lpcqU0ZXAMx/D/MVLpWSp0rriPRMSP/L4k/LyayMDfjDaDeXKyay5861D7wA7admypaxZs8Zqh+APZvftRx99JB07dpTrr79eihYtKhEREfLoo4/KqFGjZPLkyVbIagLbjRs3yrp166xANzY2Vt5//3157rnn5N5775Vq1apJnjx5pH79+vLEE0/4bddw5syZ5bXXXpPPPvtMsmfPrqsA4F+EvQAAAACCQukbbrACXxO6BpJ5v+99Ol4mTJ+Z6sC0+929ZOzHn0q2AAU91WvWkhkxX0jxEiV0BbCXcuXKWYHrnXfeqSv+Y8LfL774Qt588015/PHHpUePHtKsWTOrFYPpl2sOVjOBbvv27eWhhx6SF198UT799FP54Ycf5MKFC/pW/KNIkSLWx2LCYwBIS4S9AAAAAILGNfnyyaeTp0rUY09Inrx5dTVt3FS5snVA3ILlcRLe6na/7ci97fbWMmnGLClbvryu+J/ZQdi1R0+ZOH2m5Evl0+SBtHbNNdfIjBkzrMPOnNjaoEuXLrJlyxa5/fbbdQUA0g5hLwAAAICgkjVrVhk4+DGJ+36DPPHMUOvgMX+qVaeufDJpisxdsFhaR7RL1SFS7pg+xF8uWS5vjBmborYQnrS7o4MsXPGtvDLqDcmZK5euAvbXtWtXKxQ1rRecoFChQjJ9+nSZOnWqFCxYUFcBIG0R9gIAAAAISqan5kP9B8o3330vw14aLjVq1U5xe4Trri8p9z34kMz6Yr5Mj5krTZu3SPPeuiZEjux4pyz85lt59Y1oKVO2rL7Gd+bzbtWmrXy1dLlEj33Paj2RVswuzBa3hicZzVreqpdIf4UKXevyYzSjSNFieinYkemza3rompYHlStX1tXgYvrxPvbYY7Jz507p1KmTrgJAYGS6nEDn/2/hwoUSHh6ule9iYmIkLCxMKzhBVFSUxMXFaeUb86is+c8aAAAASGvnz5+XHdu2yQ8b1ieMDbJ92xY5deqUnD1zVi5cOC9Zs2aTAgULSKnSZaR0mRusgLVmrdq26Wn7x9HfZf26dbJ+7VpZ//13sumHHxI+9jP62iuKFC1q7Q42Abd5WbFSJcmWLZu+FsGqSpUqsnnzZq2SatiwYYr/LgtG5lC08ePHy7Bhw2T//v26mjJ5cuWQHFmzauXeidNn5My581r5xrRPMX2BX3rpJSlZsqSuOp83GdLs2bPljjvu0Mr5zPduap4VMnToUImMjNQKTjBx4kSJjo7WyjehoaESHx+vVfIIe+EVwl4AAAAgfZiDos6cOSMXzp+XHDlyWLt4TagE5yHsde306dPy2WefyZgxYzzePp4UzpdXQnMkv/P/92MnJP500gdYPMmVK5cV8g4cODBodyOnBmFvUoS9uFogw15+QwAAAAAAG8uSJYvkzp3bOmgtR86cBL3IcHImfN8/+OCD8uOPP8rSpUulY8eO1v0ivd1www3y+uuvy4EDB+SDDz7IkEEvAPvhtwQAAAAAABAUmjZtKjNnzpSDBw/KJ598Iu3atbPC4ECpWLGiDBkyRFavXi0//fSTPProo5IvXz59LQCkP8JeAAAAAAAQVAoVKiT33HOP1Uby6NGjMmfOHBk8eLA0adLE2gnvD+aQxvLly0v37t2tp1/v2LFDtm7dKiNGjJC6deum+SGOAJAShL0AAAAAACBomZ657du3l1GjRsmyZcvk2LFjVig7adIkefXVV61euiW8PISxTZs2MnbsWFm8eLH89ddfVsBr3s6gQYOs4BcA7I4D2uAVDmgDAAAAgLSV3AFtpkdsRjygzR+eeXywLF20UCv3nnx2mLTvcKdW8IbJkO6++26tXOOANt9wQJvzBPKANsJeeIWwFwAAAADSVnJhL1KucL68Epoju1bu/X7shMSfPqMV/IWw1zeEvc4TyLCXNg4AAAAAAAAA4ACEvQAAAAAAAADgAIS9AAAAAAAAAOAAhL0AAAAAAAAA4ACEvQAAAAAAAADgAIS9AADA1sxpxufPn7fGhQsX5OLFi9Yw65cvX7YGAAAAAICwFwAA2NyYN9+QCteHWaP8dcWlXIli1igbVlRuKF7EGmWKFZYXnnlarwEAAAAAGVOmyy62wyxcuFDCw8O18l1MTIyEhYVpBSeIioqSuLg4rXwTEREhsbGxWgEA4Ju3Xh8l0aP+p5V7ve67X557+RWtAAAIPu+++64cPnxYK/jT8gVfya+7d2nlXr3GTaV8xZu0gr907dpVbrzxRq2czzwDLSQkRCvfDR06VCIjI7WCE0ycOFGio6O18k1oaKjEx8drlTzCXniFsBcAkF5Gjxopo18fqZV7ve/vI8NeGq4VAADAFf363CdffjFXK/eGj3xduvW8SysgZQh7cbVAhr20cQAAALZ2OeEfAAAAACB5hL0AAMARMmXKpDMAAAAAyJgIewEAgK256DjlEmEvAAAAgIyOsBcAANiat2EvAAAAAGR0hL0AAMAR2NkLAAAAIKMj7AUAALZGGwcAAAAA8A5hLwAAsDfaOAAAAACAVwh7AQCAI7CzFwAAAEBGR9gLAABszfsD2gh7AQAAAGRshL0AAMDW6OIAAAAAAN4h7AUAAI5AGwcAAAAAGR1hLwAAsDVv2zgQ9gIAAADI6Ah7AQCArXnfsxcAAAAAMjbCXgAA4Ajs7AUAAO6UuO56qVipcrKjQIECeg0ACE6EvQAAwNZo4wAAAFLrqWHPybxFS5Idt7Vuo9cAgOBE2AsAAGyNNg4AAAAA4B3CXgAA4Ahs7AUAAACQ0RH2AgAAm6ONAwAAAAB4g7AXAADYGm0cAAAAAMA7hL0AAMAZ2NkLAAAAIIMj7AUAALbm7c5e2jgAAAAAyOgIewEAgK3RxgEAAAAAvEPYCwAAHIGdvQAAAAAyOsJeAABga7RxAAAAAADvEPYCAABbo40DAAAAAHiHsBcAANhav0GPyKJvVsrCFd9aY8HyOPl62TfW+GrZCvlq6XJr3NX7Hr0GAAAAAGRMhL0AAMDWChYqJGXKlpUbypWzRtny5aVchQrWKF/hRil/Y0VrFCx0rV4DAAAAADImwl4AAAAAAAAAcADCXgAAAAAAAABwAMJeAAAAAAAAAHAAwl4AAAAAAAAAcADCXgAAAAAAAABwAMJeAAAAAAAAAHAAwl4AAAAAAAAAcADCXgAAAAAAAABwAMJeAAAAAAAAAHAAwl4AAAAAAAAAcADCXgAAAAAAAABwAMJeAAAAAAAAAHAAwl4AAAAAAAAAcADCXgAAAAAAAABwAMJeAAAAAAAAAHAAwl4AAAAAAAAAcADCXgAAAAAAAABwAMJeAAAAAADgaKNHjZRuHSKTHUsWLdRrAEBwIuwFAAAAAACOtnPHdlmzamWy4/ChQ3oNAAhOhL0AAAAAAAAA4ACEvQAAAAAAAADgAIS9AAAAAAAAAOAAhL0AAAAAAAAA4ACEvQAAAAAAAADgAIS9AAAAAAAAAOAAhL0AAAAAAAAA4ACEvQAAwNbGf/KR9H/gfmsMSBgDH+zzz3joARn08IMS1fcha6xYtlSvAQAAAAAZE2EvAACwtR/Wr5f5c2OtMS9hfBEb88+ImSNz53wusZ/PtsbuXb/oNQAAAAAgYyLsBQAAtnb58mWdAQAAAAA8IewFAACOkClTJp0BAAAAQMZE2AsAAGzN2529mRL+AQAAAEBGRtgLAABsjTYOAAAAAOAdwl4AAOAItHEAAAAAkNER9gIAAFvzuo0DYS8AAACADI6wFwAA2BttHAAAAADAK4S9AADAEdjZCwAAACCjI+wFAAC2RhsHAAAAAPAOYS8AALA1mjgAAAAAgHcIewEAgDOwsxcAAABABkfYCwAAbI02DgAAAADgHcJeAABga96GvQAAAACQ0RH2AgAAR2BnLwAAAICMjrAXAADYGm0cAAAAAMA7hL0AAMDWaOMAAAAAAN4h7AUAAI7Axl4AAAAAGR1hLwAAsDfaOAAAAACAVwh7AQCArdHGAQAAAAC8Q9gLAAAcIVPCPwAAAFeq3HyzNG95a7IjrEQJvQYABCfCXgAAYGte7+yljQMAAHDjof4D5aMJk5IdjZs202sAQHAi7AUAALZGGwcAAAAA8A5hLwAAcAQOaAMAAACQ0RH2AgAAW/N2Zy9hLwAAAICMjrAXAADYGm0cAAAAAMA7hL0AAMAR2NkLAAAAIKMj7AUAALYWcUcH6f/Io9Iv6pF/xqAo6TtwkDUeHjDIOl37wX4DpHyFCnoNAAAAAMiYMl128dzIhQsXSnh4uFa+i4mJkbCwMK3gBFFRURIXF6eVbyIiIiQ2NlYrAAAAAAAA57p06ZKEhIRo5buhQ4dKZGSkVnCCiRMnSnR0tFa+CQ0Nlfj4eK2Sx85eAAAAwIF+279f1n+/1uU4dPCgXgoAAABOQtgLAADgEG1vbS6VypRKMhrWqq6XsIepkyZKk7q1XY6Y2bP0UvZ06tRJ+WDsGJdjwVdf6qXsYfKE8XJnRBuXY/aMaXopAAAAOAlhLwAAgEOcPn06YZxKOk6d0kvYw4njx2Xf3l9djvgTJ/RS9nQyPl5efelFl2POzBl6KaSnzz79WG5r2tjlGP78ML1UYKxZtUqi+j7kcrz+6it6KQAAAP8h7AUAAADgGH8cPSo/7djuchz87Te9VGDs3/urxH4+2+VYvnSJXgoAAMB/CHsBAAAAABZzqNDZs2cZLsaFCxf0VgIAwL4IewEAAIB09t3q1VK/elWX44VnntZLAWlvw7rvpWKp6xguxqgRtN4AANgfYS8AAACQzs6dOyuHDx1yOY4d+1svBQAAAHhG2AsAAAAAAAAADkDYCwAAAAAAAAAOkOlyAp3/v4ULF0p4eLhWvouJiZGwsDCt4ARRUVESFxenlW8iIiIkNjZWKwAAkFZaNKovu3/5Rasr8uXPL+u37tDKe38cPSpj34rWyn82b/pB1q5Zo1Vi9Rs2khtvukkr/+o36BEpULCgVinz+5HDUvfmKlol1qpNWxn70Sda+SZuxXK5u0snrRKL7HinvDFmrFbeGzVieMLXb7RWiT321NPSd2CUVs7y5sjX5O03XtcqsdYR7WTMBx9plfZmTZsqj0cN1CqxylWrSuzXi7Syj3Vrv5NO7dpqhf96oG9/GfLsMK0AwD1z2GVISIhWvhs6dKhERkZqBSeYOHGiREen7Pfq0NBQiY+P1yp5hL3wCmEvAAD25++wd8+uXdK8YT2tgt/SVWukZKnSWqUMYa/9Efamjqewt3CRIvLmO+9qlTbM/eDixYtaJTZ+6nTJkiWLVmnj3YT7jLk/ukLYC8BbhL24WiDDXto4AAAAAACSlTNnLmv3fVqOzJnd/4lar0FDl9fx57i2cGF9bwAABCfCXgAAAAAAAABwAMJeAAAAACnmoiscAAAA0glhLwAAAFzKkTOnNG7aLMlo1LiJXiKp/AUKuLyOP8f1JUvpe0uqQMFCLq9jRo4cOfVSSK1jf/8t8+bGylODH5FGtWvIM48PljOnT+trAQAAkF4IewEAAOBS0WLFZNyUaUnGZ9NmSLkKN+qlEsuePbt8Onmqy+v5a5Qq7f6QtajHHnd5HTOKFC2ql4KvLly4YB3cZQ4/69DmdqlxUwUZ8MD9Mm3yJDl44IBMmThBunbgIBkAAID0RtgLAAAAn7W4NVxniR06eFB+2rFdK//7/chh+Wb5Mq0SM4dHte94p1ZIrf379sqUCZ/Jw/fdY4W7ndq1lbffeF02rl/nsnXDrp9/0hkAAADSC2EvAAAAfNb81lt1ltSyJYt15n9fxMS47REb2bGj5MmTRyv46uTJeFm8cIE8//RT0rxhPWlcp5Y888Rj8vX8eRJ/4oReCgAAAHZG2AsAAGBjf/7xh+zb+6tX4/y583qtxC5evOjy8v8dJ3wM86rXrCX58ufXKrFli9Mu7I2ZPVNnSXW/u7fO4I1Lly7J5k2bZOxb0dKtQ6RUv7G89Lm7p3z26ceyZ9cuvVRgmY/p9KlTqRoXzl/Qt5aUaUfh6jppNc6dO6fvOamLF1P/uZpx/rzr+z0AAMiYMl12sTVi4cKFEh7u+ql53oiJiZGwsDCt4ARRUVESFxenlW8iIiIkNjZWKwAA4IvnnhoiE8Z9olXaGf6/UdLtrru18s7gAf3k85kztLoiJCRE1m/b6fddtrt/+UVaNKqvVWI3V68hn8//Squ0Y9pI1L25ilaJtWrTVsZ+lLKvVdyK5XJ3l05aJRbZ8U55Y8xYrbw3asRwGfvWaK0SK1WmjBw/dsx6MMFfcufOLZt+Sl1IvOXHHyUivIVW8MazL74s9/R5QKvUM72ZTcsOV0qWKi1LV63RKm1UuD7MbYC9Y+8ByZo1q1Zpw93PNeOBvv1lyLPDtAIA98yDl+b3oZQaOnSoREbSC99JJk6cKNHR0Vr5JjQ0VOLj47VKHjt7AQAAkCLN3PTtNTuJV36zQiv/meNhV2+PXr10lnLH/v5bJnz6iccxY+oUvXRSv+7Z4/I6/475c+3z4LfZuZuSoPf6kqUke44cWgEAAMBuCHsBAACQIo2bNHW7a2W5n/v2miejzZnpOuzNkzevtIlor1XK/X7kiDz39BCPY9SIV/TSSW3bstnldf4dH4wdo5dMO+Z2Mjugx3/ykSxasEBXU87sorwl4etsdo8u+Xa1LFv9nRQqdK2+FgAAAHZD2AsAAIAUyXvNNVK7bj2tEjOHtLk7SC0lNq5fZ/UWduXOLl0lZ65cWmU8J44ftw5RM4epmUPVTKuLF555WnZu36aX8E2x4sWtlh4fjJ8g67ftkPFTp1ttAkzrBwAIVubnYrP6dZMdX8TG6DUAIDgR9gIAACDFmrtp5XDo4EH5acd2rVIvZtYsnSXV/a7Ut3AIJqYP4A8bNsiYN9+Qzu0jpHrF8vLwfffIlAmfyYH9+/RS3sucObPUrV9fnhz6rHy1dLnEfb/B6uHcMvw2CQ3NrZcCgOB25Mhh+XXP7mSHeQANAIIZB7TBKxzQBgBA+ti8aZP8+userTx7cejTViuCq+XKFSqvRbs+qOtfVapWtfqx+srToWnmICNzoFFqmcOa6lWrIn/9+aeuXFG3fgOZMnuOVqnz886dEt6kkVb+V7VaNZnzpevWCskd0Pbk0GHyzfKlsmLpUuuyf//1l742ZfIXKCAtbr1NmrZoIY0aN7F2aXvrlto1XYbK/jig7fChQzJx/Kdapcx3q1bK2jWuDxErU7as3N42Qqu0t33LFlm80PXXvNC1haVLjx5apVyzFi2lRq3aWqUeB7RxQJtT9etzn3z5xVyt3Bs+8nXp1vMurYCU4YA2XC2QB7QR9sIrhL0AANifCV1N+Hq1fPnzy/qtO7Tyv+YN61kHfl2tXoOGMnnW51ql3NJFi+S+u7prldjo9z6QiPb++WPIrmFvtmzZ5Ny5c1r5x2NPPS19B0Zp5Zu0DHv94c2Rr8nbb7yuVWKtI9rJmA8+0irtzZo2VR6PGqhVYpWrVpXYrxdpZR+EvYS9TkXYi0Ai7MXVCHthO4S9AID0smbVKjl27G9rnilTpv9/+d+5cXO16lKwUCFrnlGlV9g7/Plh8vH772l1hfkjZ/22nZInTx5dSZlBDz8oc+ckDY0LFCwkK9dvtMJQfzCB6sHfDmjl2p9//CEd27bWKrHGTZvJCyNe1SqpbNmyW/1wXfEU9qaUac9g/th0hbA3MJwW9mbPkUNq16mrVdow9wV3GjS6xfq+Tkvbt22To78nfYaEQdgb3Ah7EUiEvbgaYS9sh7AXAJBe7mjdSn7YsF4r9z6ZNEWaNm+hVcaUXmHvqm/jpMedHbRK7N2PP5XbWrfRyncnT8ZL7SqV5Mzp07pyxcMDBsnjTz+jVWD8fuSw1L25ilaJtWrTVsZ+9IlWyTPBsQm2VixbKt8kDFctOHxhQrBadepIk4T7gbkvfJHwO/m7b7tu30HYGxhOC3szOsLe4EbYi0Ai7MXVAhn2ckAbAABwhH93+CLwatWpawV9rixfslhnKbPgyy9dBr1G1549dRYczM5hs1N91Ijh0u62llKrckWJ6vuQzJ4+LcVBr+n7emeXblaAaQL9qZ/HWiF4xUqVE+4TeiEAAABkGIS9AADA1lw8Ccklwl7/+ePoUflt/36vx++HD0vN2nX02oktW7LY5XW8HWZnpCvm/YVkDnF5neTG2bNn9a0EzpOPDJIaFStItw7tZexbo62D91LCfJ+bz33wkKdl7oLFsnrjJvlf9Ghrx6ovh6wBAADAmQh7AQCAzXkX9sJ/hj31pDSqXcOnsXzpEr12YocOHnR5eW/Hyrhv9C0lZp5q7ury3oztW7foWwkc07Lh1KmTWvkmd5480qFzF+swunVbtsuM2C+k36AoqVSlSpr3LwUAAEBw4bdDAADgCOzshZ1Vq1lLZ75rGX6bjBr9tkS0j7T6LwPpJVv27NLwlsZpOjyp37CRy+v4c5jWKAAABDPCXgAAYGu0cYATVK9ZU2euZcuWTWeAfRUrVlwmTJ+ZpiNr1qz63pIaN2Way+v4c9zSpIm+NwAAghNhLwAAsDVvw17AzqrcXE1nV5g2DP0feVRmfTFf3h/3ma4CAAAAKUfYCwAAHIGdvbCzPHnySI1ateW21m3k1TeiZfXGH60D1h59YohUr1lLQkJC9JIAAABAyhH2AgAAW6ONQ+ANfeElWbA8zrGjwo0V9TMNLHOw2rsffyqdu3WXwkWK6CoAAADgP4S9AADA1mjjEHjFiheXsuXLO3bkyJlTP9PA4gEJAAAApDXCXgAA4AgEafZy8mS8NK5TSzq1ayuDB/ST0aNGyuwZ0+X779bIkcOHCfEBAACANEDYCwAAbM3bTJCw13fnzp2Tr+fPkz5395Rpkyfpqn8sXrBA9u/bK+vWfiefz5who18fKY8N7C+d20dIo1rV5djff+slAQAAAPgLYS8AALA1doD618WLF2X1ypXy3FNDpEGNm+Xh++6RxQsXyKYN6/US/jE/NkZnSbUIv03y5c+vFYBgkSkzD6oBAGB3hL0AAMAhCCHcuXTpkqyM+0aeHfKE1KtWVbp3jJQJ4z6RP//4Qy8hsmXzjzpLvRMnTsiyJYu1SuqOTp11BsBuPD3Alj17Dp0BAAC7IuwFAAC25u3OXto4uHf82DHp2amjTBo/Tv44+ruuJrZ961Y5f/68VqmzYP48q0WEK0WLFZPmLW/VCoDdXLx4SWdJZc+eTWcAAMCuCHsBAICt0cYhMEw4u3vXL1qlzqzp03SWVI9e90iWLFm0AmA3Fy64f9And+48OgMAAHZF2AsAAGyNnb3umdtm547t8v47b0vXO9rJnl279DXey5w5s7Rq01Ymz5oj5cpX0NWUM4eyrV75rVaJZcuWTbr26KkVADu6cOGCzpLKkzevzgAAgF0R9gIAAEfIKFmv6bM7f26sDH3ycbmlTk1p1bSxvPbyS/Ld6tU+7YIuWbq0DBr8uKz4bp2M/egTqdeggV8C89nTp+ssqbaRd0jBQoW0AmBHHsPePIS9AADYHWEvAACwtwy+s9f021349Vfy4rPPyO3Nm0qtyhWl/wP3y+TPxstv+/frpbxToGAh6XXf/fL5/K9kyberZdBjj0vxsDB9beqZg+BmTpuqVVK97r1fZwDsylPYmztPbp0BAAC7IuwFAAC2djnhX0bzzfJl8tjA/tK6RTOpXrG8PNj7bhn30YeyY9tWvYRvsufIIZ9MmiKrN26S515+RW6uXsNlOH7i+HFpVLtGyket6lYbB3cevv8e19cL8OhxZwf9iABczdNBjbRxAADA/gh7AQCAIzhpZ++vu3fL7BnTZfvWLX45oC5nzpzStHmLZA9GMztzzW7hlI5DBw/qW3LN1XXSYxw65PnjRGAdOXxYfjtwwG/DPGjhzulTp1xeJ63GX3/9pe85qXPnzru8TmrGX3/+qW895Y4eOaKzpGjjAACA/WVK+AMiyV8QCxculPDwcK18FxMTI2F+fEog0l9UVJTExcVp5ZuIiAiJjY3VCgAA39zauKH88tNPWrk3c+48qVGrtlbBbdPGjRJ5u2+/i+W95ho5c+aMnDt7VleuyJc/v6zfukMr9479/be1k9jpSt9wgyyOW6WVb34/cljq3lxFq8TMQXem/3FKxK1YLnd36aRVYpEd75Q3xozVynujRgyXsW+N1iqxx556WvoOjNLKNw1rVZeDBw5odUXu3Lll00++HxLYvGG9FB0uiKRS+r3yXyNefF4+fNf12yhZqrQUKVpEq7Rh+o+7U6tOXcmcOW0f2Pv5p5/lzz+OapXYA337y5Bnh2mFYNOvz33y5RdztXJv+MjXpVvPu7QCUsY8gB4SEqKV74YOHSqRkZFawQkmTpwo0dHRWvkmNDRU4uPjtUoeO3sBAICt+WNna7C58aabJGvWrFq5F1biOul9fx+ZNHO2rP1xa0JdQl8DpI2zZ874Zfco7MtVkP+vX/fstsLYtByefP/dGpfX8edwF/QCABAsCHsBAIAjOKmNQ7Zs2aRipUpaJVapShWJeuwJmbdoiaz47nsZ9tJwqd+wkVfhMJBaX385X86cPq1VYtlz5NQZgtnBZNqxAAAAeyPsBQAAtubtzl4nhb1G1WrVrZemBUPb9pHyv+jRsnL9DzJ3wWIZOPgxqVipst8/5yxZs8htrdv4PEwA7U6Fije5vE5qxrWFC+tbT+rGmyq5vM5/R+MmzfTS8JY5tGve3Fh5avCjupJUvvz5dIZg9ttv7nf2AgAA+6NnL7xCz14AQHrxtp/n7HlfSrUaNbUKfju3b5MzZ85K5apVJXNm7x6fb9Govuz+5RetrvC2Z29KDXjgfisIdGXJt6ulVJkyWqXexYsXpX71m+Xo764Pkfp8/tdyc/V/gvK04NSevXNj5sjUCZ9pdYX5U8EEvTu2bU22V1zfgYMS3u4zWnmPnr3+k9qeveb+VeH6MKvXJJKiZ29wmzppomze9INW7pn7kekPDaQGPXtxtUD27CXshVcIewEA6cXbIOjz+V/JzdVraJUxpUfYe+TwYWlYs5oVEl3t1ttayfvjkgaIqbEy7hvp2amjVokVLlLE2v3sbTieEk4Ne7+a94X0vf9erVJm+Zq1ct31JbXy3qxpU+XYsWNaITXKlC0rTZu30Mp3hw8dkvrVq2qVVJYsWXSWdi5cuKCzpExwktbP4vD0/gl7AXiLsBdXI+yF7RD2AgDSiwn29u3d+//tHMxL69+/v8KYOmF8PGGS1dogI0uPsPet10dJ9Kj/aZXY5FlzpF6DBlr5h6ddxHffc588/8oIrdKGU8Pen3fulPAmjbTyXfOWt8pHCfdBBLeN69dJhza3a5VYufIV5Ovl32iVdszOYrOb3JUdew+keX/ywQP6yeczZ2iVGGEvAG8R9uJqgQx76dkLAABsbeKMWdaOQXMYmRnfrF0ncWvXy7ffb/hnrNto7ebM6EFvejCBzOQJ47VKzPTxrVu/vlb+YXZ4z/9irlZJ9ex9j87s69Spk7J44QLZuWO7rthDydKlU/xH6Q3lysnI0W9rhWD22wH3/XpL33CDzgAAgJ0R9gIAACBF5s+Ntdo4uHLfgw/7/enW77/z9pUd3Ve5pUlTKVu+vFb2YXb2mH634z76UHp36yI1KlaQPnf3lO9WrdJL2IPZLWkCX1/Va9BQps+ZK/kLFNAV+3L3vRMI6fm+fXHo4EGdJVW6DGEvAADBgLAXAAAAPjMhprsWAaZ3buuIdlr5hwmhZk2fplVSve7vo7P0de7cOVn//VormL7/rh5S46YKcnvzpvLis8/IimVLrdcbv7s5YC49lS3nXVheoGAh6XXv/dahiJNmzg6KoHfLjz9abU5mz5hufe8Gitkpa1qPmNYAgXy/KbVv7686S4qdvQAABAfCXgAAAPjMtCL4yU0rgrvvvU+yZcumlX+Y8NTdwUnXlyyVqkOp/OWbZUvl5gpl5c6INvLayy/JkkUL5bibg8eO/v67zuzj+eEj5Msly9yOhSu+tVqmrN64SZ4b/opUq1EzzQ/L8gfTZ7lPr55WG5DHBva3etKaQD4tnT1zRsZEvyktb2lg9ZieM2um9T1hdz9s2KCzpCrcWFFnAADAzgh7AQAA4BPzlPR3ot/UKrHcefLIXb3v1co/TAD12Scfa5XUvQ8+KJkzp/2vtWZn5p7du7VK6uTJk1bI542jR+y3s7dosWJSoeJNbofpzWsukyVLFr2G/R0+dEh6dOqYqD3Bpo0brEA+qu9DHnvUpoS5byxa8LWEN7lF3nhthJw5fVpfI/Lhu+/Ipx9+oJX9mO/dzZt+0Coxc782fbgBAID9EfYCAADAJyvjvrECM1d63Xe/5MmbV6vUM20Pnnw0ym3P03IVbpRuPe/Wyr8O/vabfDXvC2tHZveOd8jN5W+QLpH+aU9x/PhxnSGt7N+31/p6/bxzp64kFvv5bKu1w3erV+tK6pn31fe+e9y2Q3hp2FCZNH6cVvby46Yf3O6er1e/QVCF/AAAZGSEvQAAAPCJu129OXPmknvuf0Ar/3j3rdGyc/s2rZJ6ccRr1uFiqWECrp07tkvM7Fny6ksvSq+unaV2lUrSsGY16Xv/vVYLidUrv7V27qZGSEiItAy/TcZ+9ImMm+K+/3Aw+uvPP60D+9at/c4KWc+ePauvSR+7fv5ZOrePkL2/7tEV10z7j1p16miVeuUqVJDhI0dp5dqzQ56Q98a8pZV9mK+dO/Ub3aIzAABgd4S9AAAA8JrZ1WuCT1eKhRWXzT9ukvPnz+tK6mzd/KO8M9p1sGxEdrxT6tavr1XKvTzsWWnVtLE80u9h+WDsGPlm+TL546h/eupmy55dbmnSVIa9NNzqdfvB+AnSqk1byZ6w7iT79u6V/g/cL53atZXGdWpJxVLXWYfTtWrWJODB7/atW6RzZLtErRtcMT2H3xwz1u8tQDp17S4P9huglWv/G/6yjHxluNsd6+nh+zVrdJZUg0aNdAYAAOyOsBcAAABeMaHd0Ccf1yops5uyd7cuUvfmyvLM44OtYPjixYv6Wt+YoO6+u3q4fVp57ty55alhz2mVOjXr1tWZf1StVk0eHjBIJs2cLT9s/0nGT50uve/vIwULXauXcJ6LF5N+nf7+6y9rV/blS5d0Je39sGG9dO0QKX/+cVRXXCt/Y0X5cPwEyZEzp6741+NPPyPhrW7XyrV33x4tzz/9lNULOr2ZB2jcPYhToGBBq10KAAAIDoS9AAAA8Mq0yRNlz65dWrlnQr4pEydIz04dpe7NVeSFZ562DlnzdhfjiRMn5N6e3a3Dtdx57uVX5NrCRbRKnTp16+ksZUqWLi09evW22jNs2LZT5ny5wAr76jdsJNlz5NBLOZu7UD6QzMFoPe7sKMePHdMV18xu8OlzYqVgoUK64n9mt/Cb77wrjRo30RXXJoz7RB4fNCDdb78N69a5bVNSv0HDgByACAAA/IP/tQEAAOCVlDzl3OywHP/JR3JH69uk5S0NZEz0m1ZPV3fMDsMBD9xvPRXfHXMIXMcuXbVKvSJFi8p115fUKnlmp2NE5B3y6hvR8s1362TpyjXy0qv/s9ozXJMvn14q/bVp194KHF2Nlre10kv5R0p3cPuD+b788N2x8kCvu+TUKc99lVtHtJNxk6dJ3muu0ZW0kzNXLmv3cNMWLXTFtc9nzrBaYJw5fVpXAu/LubE6S6rBLY11BgAAggFhLwAAALxyV+975dkXX5YGjW6xetH6avcvv8gbr42werp2iYywdv/+dxfmuXPnZPCAfrJi2VJdSapeg4by9HMvaOU/teu5391bpmxZ6dC5i3UY3PzFS+W7TVtk9LvvS+du3SXsuuv0UvZTsVJlad+ho8tR3s9Pyze7sdOD+Z55avAjMuLF53XFPfMgwVvvfRDQ3dbmfb378Ti5NZlwfcGX86VD29Ze7Zz3N/MAy9yYz7VKqkmz5joDAADBgLAXAAAAXjFP5b6nzwMyccYsqxet6Un7QN/+UrJUab2E99auWWP19a1TtZL063OffD1/nvS5u6d8ETNHL5FUWInrZMwHH0nWrFl1xX9qaysHs2u3ectb5dEnhli9djcmfJ6Lvlkpo0a/LT173yM33lSJp7S78MdRzz1y08LR34/I3V3ulOlTJuuKe08OfdY6JC89vnbmML4xH34st7eN0BXXzG72iPAWMt/DLtu08O2KFfLnH39olZi5LxQvUUIrAAAQDPhNFQAAAD4zOxZNT9ohzw6TJStXy5dLlsnAwY9ZB1/5wuzM/PKLufLwfffIN8uX6WpS5mn3H47/zApj08LtbdrKstXfydoft8pHEyZJ/0celVuaNA3I0/2dINBh74Z130vbW1vId6tX64prISEhMuqtMfJgvwGSKVMmXQ088wCF2Q1u2n94YvrmmpYOLwx92rpvBMKcWTN0llSPXvfoDAAABAvCXgAAAKSKCdEqVLxJoh57Qr5aulyWfLtannhmqFStVl0vkTr58ueXyTNnW7tq04oJda8vWSpdA8FgdsTDYXr+ZPrzTho/TrpEtpMjhw/rqmu5c+e2gvsOnTrrSvrKkiWLvDFmrFcfz/iPP7I+x9/279eVtGEOU/z6y/laJWZ20jdu1kwrAAAQLAh7AQAA4FelypSRh/oPlDlffm3tljUhsAlSU8rsIM6TN69WGc+lS5d0Zl979+7RWdoxrQYe7d9Xnh3yhFy4cEFXXatUpYrMXbjYdv1mzU7j/0W/JV179NQV937YsF7a3NpcFi34Wlf877NPPpazZ85olViPXr2sjxcAAAQXwl4AAACkGRPymvYOS1etkRmxX0jVatX0Nd4zbR6a1K0t9/bsJosXLpCLFy/qazKG9OiH6wsTRv+wYYNW/md2886aNlVa3tJAYmbP0lX3TG/lmbHzUtRLOhBM3+DhI1+XZ55/Mdkewsf+/lse6HWX9L3/XvntwAFd9Y+TJ+Pl048+0Cox03aiU9fuWmUs5vsNAIBgRtgLAACANLf++7USPfJ/smnjRl3x3bLFi61D3JrUqy1j34qWP47+rq8Jfp52UK5LuO1OnTqplf2Yg8VMO4C0sPuXX6THnR3k8aiByb6P0NBQGf3eB/LiiNesntJ2ZtqF3PfgQ/LZtBmSv0ABXXXvq3lfyK23NJT333nbb718p06caIXJrpjD5AoWKqRVxnLq1CmdAQAQnAh7AQAAHOLiBXvteD36+xH5+P33pHWLZtKpXVv59psV+prUMX1MR414RepXv1kGPvSAdUhXsO/GCw3NrbOkzpw+bX2+dmRu9/fefksr1zKnoBXA2bNn5a3XR0mrZo1l9cpvddW9m6vXsNo2RLSP1JXg0KDRLRL71UKr7URyTp8+Ja+9/JK0adlMVn0bp6spY27fj94bq1VSd997n84yFvOgyko//ZwCACC9EPYCAAA4gHmq/4H9+7RKPyZEmj83Vu6/q4fUq1ZVhj8/zNr56Y2W4bdJo8ZNtEqe6dv6Rcwc6XpHO2nVrIlMmzzJbf9RuytfoYLkyhWqVVLjPvpQnhr8iNW31i4OHTwoAx/sI1/ExuhKUgUKFpRs2bJp5Z3VK1dK6xZNJXrU/+T8+fO66prZIdv/kUdlesxcKVW6jK4Gl7DrrpOZc+dLr3vv1xXPfvnpJ2u386CHH0z2kDp3Pn7/XTns5lC91hHtpEat2lplHKdPnZLHBw2U+Ph4XQEAIDhluuxiG8TChQslPDxcK9/FxMRIWFiYVnCCqKgoiYtL2Q6CiIgIiY2N1QoAAPibCT2fGvyozJo+VVcSy5c/v6zfukMr/zLve/OmH2TNqpXWDszv16yRkyd9azlQpmxZee7lV+SWJk2tes+uXTJ5wniZMXWK26eZu1OgYCG5+557pUev3kH3NPRH+j2cbE9a0+6hVp26UrdBAylU6Fq5JuFrm98aBayX+Qrkl5w5c1khqK9ML+RTCV87E3adNONkvBw/flyOHTsmx/76K+Hl39bX4+CBA/Ljpk3y657dek33unTvISNef1Mrz0yIadpzfD5zhq54FlbiOnnznbHW7eEUX8+fJ088MkhOJNzu3jBfa9Oj+IG+fRO+36/VVc/MzviWjRtaO8avliNnTlm04lspXqKErgRehevD3Ib8O/YesPoJJ8f8XBr5ystaeWYue2DfPlkZ902yQW+/qEdk8JNPaQUA7pl+9qk55HLo0KESGRlcz1aBZxMnTpTo6GitfGNaVfnyYCRhL7xC2AsAQOBNmfCZHD9+TKukzB8SZkfvkkULrYDUnSJFi8qqDZu0Sjnza6PZzfnLzz/Jjz9slDUrV8r3332X4n6y5W+sKL3uu186du7icven2aU7b26sTBo/Tjas+15XvWPeXodOneXeBx6SsuXL66q9mZ7E5hC61DKfe2ju3JI5c0jCyGQdAmZGJj0M7HLC94353rl48Z+Xly5dlDMJt7Wr8C81TOA858sFUuXmm3XFtY3r18l7Y96WBV/O1xXPzOdyV+975dEnh0ievHl11Tn279tr7TA1D6B4y/Qo7tmrt/SPelSuyZdPV13r1+c+69BDVwYPeVr6DYrSKn34I+w16lStbLWS8adX34iWzt0y5sF1AHxD2IurEfbCdgh7AQAIvI5tW/sccrpSrUZNmT3vS608MyGLCZB/P3JE9uzeJbt+/tkKd3f98rPs/mWX1Tc0NUxQd1vrNnL3vfdLnXr1vN6BuuXHH62nns+d87m1A9UXTVu0kPsefNjqj5qSHa+BYn4t7//A/W6DuGDz6JNPSf+oR7RyzexkNjuavWW+hsNeetl6oMDJzPfC7OnTZPgLz3l9+F3tunVlwvRZHttmfLN8mfTq2lmrxEqWKi1fLVsh2bNn15X04a+w17S6SG1v4/8qlvD37ZK4VbY//A+APRD24mqBDHvp2QsAAGBTYX56KnXXnnfpzL3Yz2dLtRvLWUFLgxo3S/tWt1o9QUe/PtLqi7t18+ZUBb35CxSQvgMHyYrv1sk7H34sdevX9yl4NQdYvTFmrHX9Pg/3k9y53R9odjWzY3bqhM+0si9ze7z25mipWq2argQnE+gPe2m4VztE27Rrn/D5VtfKvRLXXS/vfjJOJkyf6fig1zDfCx27dJXFcaukU9fkd3tbt8/H4zwGvSdOnJChTzyuVVLma5beQa8/lS3n3x39jz4xhKAXABAUCHsBAABsyvQkTS3Tw7b9HR20cq9S5Spy/Jj7lhEpYXYKmqfbv/fpeFm5bqM89tQzUjyVz/4qVry4PDXsOVm5YZMMfeEla7ddcq4vWUpeef1NW+/q/ZcJsSfOmG0dOhaMwZLZXWoOS+t9fx+vbu8sWbLIG2+/4/ZzNT1pH3vqaVm4Ik5uu711UHwN/ck8SGIeAJgyO0ZuKFdOVxMz3zMfT5hkHYbnyQtDn5Z9e3/VKrEWt4ZLs5YttXKGG8q7vr1S4smhz1ptYQAACAaEvQAAADaV2p29JvwZP2WaV6GhOSTN9PZNDRM6hd/eWl5+baQsW/2dLF21Rl4Y8aqEt7rd78GleV/3PvCgLF+9Vka/94Hb3bDmKd9jPvhI8uTJoyv2Zz43s4twyber5eEBg6Reg4ap/tqkFXOgl9mZO+DRwVZ/3mlz5kqNWrX1td4x33tDnh2m1RWRHe+Uxd+ukr4DozL8jkqzE37eoqVWT13zVM5/mfD7rfc/lHIVKuiKa6YtROkyN1jh+tVyJ9w3hr08XCvnKFfe823iDfNAkdlN/mC/ARnugQYAQPCiZy+8Qs9eAAACb+miRXLfXb4fBpQrV6jc1rq1PPHMsz6FhI8NGmD1CfWGCYjM06StUb6c1KxdR26uXsNlmBQI5lfa71avljFvvi7ffrNCV0Wef2WE3H3PfVoFt7Nnz8rBAwfkwIH9En/ihJw6dUpOJ4z/vjx37mzCOCdnz5iXZ63rnE+oL12+JJcvXbb6HZvQ6p8D2xJeZvrn8DYzsmXPLjlz5pQcORJGzhxWkGvq0NDc1oFvZpggOk+evJK/QH7Jl7+AVfsjBDO9DXt36yJbt2yRrj16SLeed0vYdanf2e5EZgf+hHGfyqcfvm8dyGZ2UXtr25bNMnjgANm+dYuuiHwwfoK0DL9Nq/Tnr5695nC2Dm1aa+Ud018zd57cUqt2XWnXoYPV75yQF0BK0LMXV+OANtgOYS8AAIF35PBhmeJDr9mcuXJKydJlpEnTZlZQ56vZM6bLYwP7a/XPCf8FCxWSkiVLWaGueVr0vwHvtYUL2zYEMYdQvfrSi1KqdGlrVy9hTXAwIab5vvXUdxZXmCDf3Fa+fn+bBwPGRL8hY0dHy0P9B1jtVezEhLTuFCx0LfdnAEGBsBdXI+yF7RD2AgDSS+M6teSvP/+48gd+wst/5+blv/OYrxZYT7lFyplfIn/5aacV8JoWEGaHcLAyf2SdO3s2RaE3kBHs3L5NbihXPlVhBBBMzLNXFsyfp5V7z738inVAIpAahL24WiDDXnr2AgAAWzt5Mj5hnLR+wbHGiRNy4vhxa5idgMf+/tsa5pdqpI55Sr5pxWBO9g/moNcwbQkIegH3yt9YkaAXGYppd/P/v0t4GOfctBEBgGBB2AsAAGzNxZOQXOKpvQAAAAAyOsJeAABga96GvQAAAACQ0RH2AgAAR2BnLwAAAICMjrAXAADYGm0cAAAAAMA7hL0AAMDWCHsBAAAAwDuEvQAAAAAAAADgAIS9AADA1rze2ZvwDwAAAAAyMsJeAABgb7RxAAAAAACvZLrsYrvMwoULJTw8XCvfxcTESFhYmFZwgqioKImLi9PKNxERERIbG6sVAAC+qVqujMTHx2vlWTEvfv+YNGOWlCpdRqvAWLNqlTw6oK9WgfPWu+9Lzdp1tAqM7Vu3yH1399QqcIa/NkqatmihVWD8tn+/dIqM0CpwhgwdJhGRd2gVGCeOH5dWzZtoFTh9BwySHr16axU4DWtV11ng9Ez4PB9O+HwD7fbmTeX48WNaBUb7OzrKE88M1SpwuiTcX/cn3G8DqVmLlvLyayO1Cpw+CT+Htyb8PA6kWgn/34xO+H8n0AYP6CerV36rlXsHf/tNZ54NH/m6dOt5l1ZAyly6dElCQkK08t3QoUMlMjJSKzjBxIkTJTo6WivfhIaGev33kEHYC68Q9gIA0kuVsqXl5MmTWqXeguVxUrZ8ea0CY/nSJXJP965aBc7EGbOkQaNbtAqMHzZskDta36ZV4Iz54CNpHdFOq8D4dc9uaVa/rlaBkx5BxN9//SU1bqqgVeCYQPCh/gO1CpwyxQrrLHAe6Ntfhjw7TKvAqXZjOTl+LLBhb9cePeWVUW9oFThN6taWfXt/1SowWrVpK2M/+kSrwGnf6lb58YcftAqMeg0ayuRZn2sVOL27dZEVy5ZqlXqEvfAHwl5cLZBhL20cAACArXnZxQEAAAAAMjzCXgAAYGveHtAGAAAAABkdYS8AAAAAAAAAOABhLwAAsLXLCf8AAAAAAMkj7AUAALZGGwcAAAAA8A5hLwAAAAAAAAA4AGEvAACwNXb2AgAAAIB3CHsBAIC9EfYCAAAAgFcyXXaxXWbhwoUSHh6ule9iYmIkLCxMKzhBVFSUxMXFaeWbiIgIiY2N1QoAAN9s37pFLl26pFXq3VCuvGTPnl2rwIiPj5e9e3ZrFTglS5eW0NDcWgXGmdOnZdcvP2sVONddX1Ly5M2rVWCcO3dOft65Q6vAKR5WQvLlz69VYFy8eFF2bNuqVeAUKVpUCha6VqvA2br5R50FTqFrC0vhIkW0Cpyd27fJhQsXtAqM/AUKSrHixbUKnJ937ky4357VKjDyXnONlLjueq0CZ/cvv8jp06e0CozQ3LmlZKnSWgXOvr2/SvyJE1qlXrHiYQH/GQvnMb+7hoSEaOW7oUOHSmRkpFZwgokTJ0p0dLRWvgkNDbX+nvAWYS+8QtgLAAAAAACQPMJeXC2QYS9tHAAAAAAAAADAAQh7AQAAAAAAAMABCHsBAAAAAAAAwAEIewEAAAAAAADAAQh7AQAAAAAAAMABCHsBAAAAAAAAwAEIewEAAAAAAADAAQh7AQAAAAAAAMABCHsBAAAAAAAAwAEIewEAAAAAAADAAQh7AQAAAAAAAMABCHsBAAAAAAAAwAEIewEAAAAAAADAAQh7AQAAAAAAAMABCHsBAAAAAAAAwAEIewEAAAAAAADAAQh7AQAAAAAAAMABCHsBAAAAAAAAwAEIewEAAAAAAADAAQh7AQAAAAAAAMABCHsBAAAAAAAAwAEIewEAAAAAAADAAQh7AQAAAAAAAMABCHsBAAAAAAAAwAEIewEAAAAAAADAATJdTqDz/7dw4UIJDw/XyncxMTESFhamFZwgKipK4uLitPJN0aJFJTY2VisAAAAAAADnunTpktSrV08r3w0dOlQiIyO1ghNMnDhRoqOjtfJNaGioxMfHa5U8wl54JTVhLwAAAAAAALxD2Os8gQx7aeMAAAAAAAAAAA5A2AsAAAAAAAAADkDYCwAAAAAAAAAOQNgLAAAAAAAAAA5A2AsAAAAAAAAADkDYCwAAAAAAAAAOQNgLAAAAAAAAAA5A2AsAAAAAAAAADkDYCwAAAAAAAAAOQNgLAAAAAAAAAA5A2AsAAAAAAAAADkDYCwAAAAAAAAAOQNgLAAAAAAAAAA5A2AsAAAAAAAAADpDpcgKd/7+FCxdKeHi4Vr6LiYmRsLAwreAE+/fvlxMnTmgFAAAAAACAtFCsWDHJly+fVnCCiRMnSnR0tFa+CQ0Nlfj4eK2SR9gLAAAAAAAAAGkkkGEvbRwAAAAAAAAAwAEIewEAAAAAAADAAQh7AQAAAAAAAMABCHsBAAAAAAAAwAEIewEAAAAAAADAAQh7AQAAAAAAAMABCHsBAAAAAAAAwAEIewEAAAAAAADAAQh7AQAAAAAAAMABCHsBAAAAAAAAwAEIewEAAAAAAADAAQh7AQAAAAAAAMABCHsBAAAAAAAAwAEIewEAAAAAAADAAQh7AQAAAAAAAMABCHsBAAAAAAAAwAEIewEAAAAAAADAAQh7AQAAAAAAAMABCHsBAAAAAAAAwAEIewEAAAAAAADAAQh7AQAAAAAAAMABCHsBAAAAAAAAwAEIewEAAAAAAADAAQh7AQAAAAAAAMABCHsBAAAAAAAAwAEIewEAAAAAAADAAQh7AQAAAAAAAMABCHsBAAAAAAAAwAEIewEAAAAAAADAAQh7AQAAAAAAAMABCHsBAAAAAAAAwAEIewEAAAAAAADAAQh7AQAAAAAAAMABCHsBAAAAAAAAwAEIewEAAAAAAADAAQh7AQAAAAAAAMABCHsBAAAAAAAAwAEIewEAAAAAAADAAQh7AQAAAAAAAMABCHsBAAAAAAAAwAEIewEAAAAAAADAAQh7AQAAAAAAAMABCHsBAAAAAAAAwAEIewEAAAAAAADAAQh7AQAAAAAAAMABCHsBAAAAAAAAwAEIewEAAAAAAADAAQh7AQAAAAAAAMABCHsBAAAAAAAAwAEIewEAAAAAAADAAQh7AQAAAAAAAMABCHsBAAAAAAAAwAEIewEAAAAAAADAAQh7AQAAAAAAAMABCHsBAAAAAAAAwAEIewEAAAAAAADAAQh7AQAAAAAAAMABCHsBAAAAAAAAwAEIewEAAAAAAADAAQh7AQAAAAAAAMABCHsBAAAAAAAAwAEIewEAAAAAAADAAQh7AQAAAAAAAMABCHsBAAAAAAAAwAEIewEAAAAAAADAAQh7AQAAAAAAAMABCHsBAAAAAAAAwAEIewEAAAAAAADAhjJlyqQz77gMe7NmzaqzlDl//rzOAAAAAAAAACDjSk1WmiVLFp15x2XYmyNHDp2lzJkzZ3QGAAAAAAAAABnX2bNndea7nDlz6sw7LsNeX9/I1fbv368zAAAAAAAAAMi4UpOV+iXszZ07t85SZuvWrToDAAAAAAAAgIxry5YtOvNdrly5dOYdl2FvqVKlfH5D/0XYCwAAAAAAACCji4+Pl3379mnlu5tuukln3nEZ9oaEhEi1atW08t327dvl8uXLWgEAAAAAAABAxpPaTbG1a9fWmXdchr1GrVq1dOY7k1ivW7dOKwAAAAAAAADIeFasWKGzlPE1o3Ub9vqaGl9t+vTpOgMAAAAAAACAjOXUqVMyd+5crXyXOXNmqVmzplbeSZOdvcayZcvk0KFDWgEAAAAAAABAxjFv3jw5efKkVr4rX7685MmTRyvvuA17K1SoIHnz5tXKd5cuXZKZM2dqBQAAAAAAAAAZg8lGp02bplXKpKTzgtuwN1OmTFK3bl2tUmbSpEmya9curQAAAAAAAADA+SZPnix79uzRKmXq1aunM++5DXuN3r176yxlzp8/L88995xcuHBBVwAAAAAAAADAuXbv3i1jx47VKmVy5swpXbt21cp7HsPeTp06SdGiRbVKmW3btsm4ceO0AgAAAAAAAABnunjxojz//PNy7tw5XUmZ7t27S4ECBbTynsewN2vWrPLAAw9olXIffvihLF68WCsAAAAAAAAAcJbLly/LK6+8Ilu2bNGVlOvfv7/OfJMp4YO4rHOXDh48KCVLlrRaMqRGSEiIjBgxQpo3b64rAAAAAAAAABD8TMT60ksvSWxsrK6kXMOGDSUuLk4r33jc2WsUK1ZM7rjjDq1Szmxhfuqpp9jhCwAAAAAAAMAxLl265Leg1xgwYIDOfJfszl7DJMm33HKLVqlnmgubrcg5cuTQFQAAAAAAAAAILnv37rV69G7atElXUqd48eKyZ88eq71uSiS7s9do1KiRtGrVSqvUmzp1qnTr1s1vNwIAAAAAAAAABIrZPztlyhS/Z5zDhg1LcdBreLWz1zhw4IBUrlxZ/v77b11JvUyZMlk9fLt06SI1atTQVQAAAAAAAACwn7Nnz8rXX38t06ZNkx07duiqf4SHh1tvOzW8DnuNzz77THr16qWVf5UrV046deoktWvXluuuu05XAQAAAAAAACD9nD9/Xnbu3ClLliyRmJgYv26G/dc111wjmzdvlhIlSuhKyvgU9hrt27f3W7Nhd/LkySMVK1aUm266Sa699lrJnj27ZMmSRV8LAAAAAAAAAGnD7N41w/TO3bp1q/z8889y4cIFfW3a+PTTT6V3795apZzPYe/hw4elUqVK8scff+gKAAAAAAAAACAlIiIi/La51qsD2v6rSJEi8s4772gFAAAAAAAAAEiJAgUKyPvvv69V6vkc9hrmQLXhw4drBQAAAAAAAADwRd68eWX+/PlSrFgxXUm9FIW9xtNPP03gCwAAAAAAAAA+MkHvggULpG7durriHykOew0CXwAAAAAAAADwXloFvUaqwl6DwBcAAAAAAAAAkpeWQa+R6rDXMIHviBEjJFOmTLoCAAAAAAAAAPhXvnz50jToNfwS9hpDhgyxPtjrr79eVwAAAAAAAAAA4eHh8uOPP6Zp0Gv4Lew1WrZsaX3Q9957r64AAAAAAAAAQMaUO3duef/99+Xrr7+WEiVK6GrayXQ5gc79at68edKnTx85ePCgrgAAAAAAAABAxtC0aVP59NNPpVSpUrqS9vy6s/e/2rRpI5s3b5ZevXpJSEiIrgIAAAAAAACAcxUoUEDeeustWbJkSUCDXiPNdvb+1759++S9996TDz/8UH7//XddBQAAAAAAAABnqFatmvTv31+6d+8uOXPm1NXACkjY+6+zZ8/K1KlTZcyYMfL999/rKgAAAAAAAAAEn6xZs0qHDh1kwIAB0rBhQ11NPwENe/9r9erVMn36dFm7dq1s2LBBTp48qa8BAAAAAAAAAHsqWrSo1K5dWxo0aGC1sC1WrJi+Jv2lW9j7XxcvXpRt27ZZwa/Z8Wte7tmzR06dOiWnT5+WS5cu6SUBAAAAAAAAIG2ZHbumFUPu3LmlSpUqUqtWLSvgNS/DwsL0UvZji7A3OefOnbMCYQAAAAAAAABIK5kyZbKC3pCQEF0JLkER9gIAAAAAAAAAPMusLwEAAAAAAAAAQYywFwAAAAAAAAAcgLAXAAAAAAAAAByAsBcAAAAAAAAAHICwFwAAAAAAAAAcgLAXAAAAAAAAAByAsBcAAAAAAAAAHICwFwAAAAAAAAAcgLAXAAAAAAAAAIKeyP8Bpd7wmiJI4U8AAAAASUVORK5CYII=;" parent="1" vertex="1">
          <mxGeometry x="1089.54" y="873.8499999999999" width="272.46" height="170.31" as="geometry" />
        </mxCell>
        <mxCell id="a-lxkenw6U9x66Lslpul-26" value="" style="rounded=0;whiteSpace=wrap;html=1;fillColor=#000000;fontColor=#333333;strokeColor=none;" parent="1" vertex="1">
          <mxGeometry x="1640" y="980" width="10" height="20" as="geometry" />
        </mxCell>
        <mxCell id="a-lxkenw6U9x66Lslpul-27" value="" style="rounded=0;whiteSpace=wrap;html=1;fillColor=#e51400;fontColor=#ffffff;strokeColor=none;" parent="1" vertex="1">
          <mxGeometry x="1710" y="960" width="10" height="110" as="geometry" />
        </mxCell>
        <mxCell id="a-lxkenw6U9x66Lslpul-29" value="" style="shape=image;verticalLabelPosition=bottom;labelBackgroundColor=default;verticalAlign=top;aspect=fixed;imageAspect=0;image=https://kondo-robot.com/w/wp-content/uploads/ICS_adapter20170418.jpg;clipPath=inset(59.86% 32.33% 13.95% 44.33%);rotation=-180;" parent="1" vertex="1">
          <mxGeometry x="1879" y="930.35" width="103" height="113.3" as="geometry" />
        </mxCell>
        <mxCell id="a-lxkenw6U9x66Lslpul-44" value="防水タッパー TLO-10" style="text;html=1;strokeColor=none;fillColor=none;align=center;verticalAlign=middle;whiteSpace=wrap;rounded=0;" parent="1" vertex="1">
          <mxGeometry x="1605" y="880" width="150" height="30" as="geometry" />
        </mxCell>
        <mxCell id="a-lxkenw6U9x66Lslpul-45" value="" style="rounded=1;whiteSpace=wrap;html=1;fillColor=#f5f5f5;fontColor=#333333;strokeColor=#666666;" parent="1" vertex="1">
          <mxGeometry x="1550" y="930" width="20" height="70" as="geometry" />
        </mxCell>
        <mxCell id="a-lxkenw6U9x66Lslpul-46" value="ケーブルグランド&lt;br&gt;PG7" style="text;html=1;strokeColor=none;fillColor=none;align=center;verticalAlign=middle;whiteSpace=wrap;rounded=0;" parent="1" vertex="1">
          <mxGeometry x="1500" y="880" width="60" height="53.65" as="geometry" />
        </mxCell>
        <mxCell id="a-lxkenw6U9x66Lslpul-47" value="" style="rounded=1;whiteSpace=wrap;html=1;fillColor=#f5f5f5;fontColor=#333333;strokeColor=#666666;" parent="1" vertex="1">
          <mxGeometry x="1790" y="930" width="20" height="70" as="geometry" />
        </mxCell>
        <mxCell id="a-lxkenw6U9x66Lslpul-48" value="ケーブルグランド&lt;br&gt;PG7" style="text;html=1;strokeColor=none;fillColor=none;align=center;verticalAlign=middle;whiteSpace=wrap;rounded=0;" parent="1" vertex="1">
          <mxGeometry x="1800" y="880" width="60" height="53.65" as="geometry" />
        </mxCell>
        <mxCell id="a-lxkenw6U9x66Lslpul-28" value="" style="rounded=0;whiteSpace=wrap;html=1;fillColor=#000000;fontColor=#333333;strokeColor=none;" parent="1" vertex="1">
          <mxGeometry x="1510" y="980" width="110" height="10" as="geometry" />
        </mxCell>
        <mxCell id="a-lxkenw6U9x66Lslpul-43" value="" style="rounded=0;whiteSpace=wrap;html=1;fillColor=#e51400;fontColor=#ffffff;strokeColor=none;" parent="1" vertex="1">
          <mxGeometry x="1490" y="960" width="230" height="10" as="geometry" />
        </mxCell>
        <mxCell id="a-lxkenw6U9x66Lslpul-42" value="" style="rounded=0;whiteSpace=wrap;html=1;strokeColor=default;fillColor=#ffffff;" parent="1" vertex="1">
          <mxGeometry x="1390" y="940" width="330" height="10" as="geometry" />
        </mxCell>
        <mxCell id="a-lxkenw6U9x66Lslpul-30" value="" style="rounded=0;whiteSpace=wrap;html=1;fillColor=#000000;fontColor=#333333;strokeColor=none;" parent="1" vertex="1">
          <mxGeometry x="1710" y="940" width="200" height="10" as="geometry" />
        </mxCell>
        <mxCell id="a-lxkenw6U9x66Lslpul-32" value="" style="rounded=0;whiteSpace=wrap;html=1;fillColor=#e51400;fontColor=#ffffff;strokeColor=none;" parent="1" vertex="1">
          <mxGeometry x="1720" y="960" width="190" height="10" as="geometry" />
        </mxCell>
        <mxCell id="a-lxkenw6U9x66Lslpul-34" value="" style="ellipse;whiteSpace=wrap;html=1;aspect=fixed;fillColor=#f5f5f5;strokeColor=#666666;fontColor=#333333;" parent="1" vertex="1">
          <mxGeometry x="1707.5" y="957.5" width="15" height="15" as="geometry" />
        </mxCell>
        <mxCell id="a-lxkenw6U9x66Lslpul-35" value="" style="ellipse;whiteSpace=wrap;html=1;aspect=fixed;fillColor=#f5f5f5;strokeColor=#666666;fontColor=#333333;" parent="1" vertex="1">
          <mxGeometry x="1707.5" y="937.5" width="15" height="15" as="geometry" />
        </mxCell>
        <mxCell id="a-lxkenw6U9x66Lslpul-50" value="3Pトグルスイッチ レバーロック式&lt;br&gt;1回路2接点 パネル取付用" style="text;html=1;align=center;verticalAlign=middle;resizable=0;points=[];autosize=1;strokeColor=none;fillColor=none;" parent="1" vertex="1">
          <mxGeometry x="1212.5" y="1109.73" width="210" height="40" as="geometry" />
        </mxCell>
        <mxCell id="a-lxkenw6U9x66Lslpul-54" value="SM中継&lt;br&gt;コネクタ&lt;br&gt;5P" style="text;html=1;strokeColor=none;fillColor=none;align=center;verticalAlign=middle;whiteSpace=wrap;rounded=0;" parent="1" vertex="1">
          <mxGeometry x="1410" y="886.3499999999999" width="60" height="43.65" as="geometry" />
        </mxCell>
        <mxCell id="a-lxkenw6U9x66Lslpul-59" value="SM中継&lt;br&gt;コネクタ&lt;br&gt;4P" style="text;html=1;strokeColor=none;fillColor=none;align=center;verticalAlign=middle;whiteSpace=wrap;rounded=0;" parent="1" vertex="1">
          <mxGeometry x="1990" y="1350" width="60" height="43.65" as="geometry" />
        </mxCell>
        <mxCell id="a-lxkenw6U9x66Lslpul-61" value="ICS変換基板" style="text;html=1;strokeColor=none;fillColor=none;align=center;verticalAlign=middle;whiteSpace=wrap;rounded=0;" parent="1" vertex="1">
          <mxGeometry x="1880.5" y="903.65" width="100" height="30" as="geometry" />
        </mxCell>
        <mxCell id="a-lxkenw6U9x66Lslpul-62" value="LEDデジタルパネルメーター DE-2645-02" style="text;html=1;strokeColor=none;fillColor=none;align=center;verticalAlign=middle;whiteSpace=wrap;rounded=0;" parent="1" vertex="1">
          <mxGeometry x="1092.54" y="850" width="267.46" height="30" as="geometry" />
        </mxCell>
        <mxCell id="VyL4msLL5mBvCgvJJlau-1" value="" style="rounded=0;whiteSpace=wrap;html=1;fillColor=#009900;fontColor=#333333;strokeColor=none;" parent="1" vertex="1">
          <mxGeometry x="1380" y="1000" width="100" height="10" as="geometry" />
        </mxCell>
        <mxCell id="VyL4msLL5mBvCgvJJlau-2" value="" style="rounded=0;whiteSpace=wrap;html=1;fillColor=#000000;fontColor=#333333;strokeColor=none;" parent="1" vertex="1">
          <mxGeometry x="1400" y="1020" width="120" height="10" as="geometry" />
        </mxCell>
        <mxCell id="VyL4msLL5mBvCgvJJlau-3" value="" style="rounded=0;whiteSpace=wrap;html=1;fillColor=#009900;fontColor=#333333;strokeColor=none;" parent="1" vertex="1">
          <mxGeometry x="1379" y="1000" width="11" height="60" as="geometry" />
        </mxCell>
        <mxCell id="VyL4msLL5mBvCgvJJlau-4" value="" style="rounded=0;whiteSpace=wrap;html=1;fillColor=#009900;fontColor=#333333;strokeColor=none;" parent="1" vertex="1">
          <mxGeometry x="1240" y="1050" width="140" height="10" as="geometry" />
        </mxCell>
        <mxCell id="VyL4msLL5mBvCgvJJlau-9" value="" style="rounded=0;whiteSpace=wrap;html=1;fillColor=#009900;fontColor=#333333;strokeColor=none;" parent="1" vertex="1">
          <mxGeometry x="1229" y="1050" width="11" height="30" as="geometry" />
        </mxCell>
        <mxCell id="VyL4msLL5mBvCgvJJlau-10" value="" style="rounded=0;whiteSpace=wrap;html=1;fillColor=#000000;fontColor=#333333;strokeColor=none;" parent="1" vertex="1">
          <mxGeometry x="1510" y="980" width="10" height="40" as="geometry" />
        </mxCell>
        <mxCell id="qsE9WDBoIMnog5az0jkp-1" value="" style="rounded=0;whiteSpace=wrap;html=1;fillColor=#e51400;fontColor=#ffffff;strokeColor=none;" vertex="1" parent="1">
          <mxGeometry x="1290" y="980" width="210" height="10" as="geometry" />
        </mxCell>
        <mxCell id="qsE9WDBoIMnog5az0jkp-2" value="" style="rounded=0;whiteSpace=wrap;html=1;strokeColor=none;fillColor=#0000FF;" vertex="1" parent="1">
          <mxGeometry x="1301" y="920" width="89" height="10" as="geometry" />
        </mxCell>
        <mxCell id="qsE9WDBoIMnog5az0jkp-6" value="" style="rounded=0;whiteSpace=wrap;html=1;fillColor=#000000;fontColor=#333333;strokeColor=none;" vertex="1" parent="1">
          <mxGeometry x="1400" y="1020" width="10" height="50" as="geometry" />
        </mxCell>
        <mxCell id="qsE9WDBoIMnog5az0jkp-9" value="" style="rounded=0;whiteSpace=wrap;html=1;fillColor=#e51400;fontColor=#ffffff;strokeColor=none;" vertex="1" parent="1">
          <mxGeometry x="1280" y="950" width="10" height="40" as="geometry" />
        </mxCell>
        <mxCell id="qsE9WDBoIMnog5az0jkp-11" value="" style="rounded=0;whiteSpace=wrap;html=1;fillColor=#000000;fontColor=#333333;strokeColor=none;" vertex="1" parent="1">
          <mxGeometry x="1300" y="960" width="90" height="10" as="geometry" />
        </mxCell>
        <mxCell id="VyL4msLL5mBvCgvJJlau-11" value="" style="rounded=0;whiteSpace=wrap;html=1;strokeColor=none;fillColor=#0000FF;perimeterSpacing=1;" parent="1" vertex="1">
          <mxGeometry x="1390" y="960" width="90" height="10" as="geometry" />
        </mxCell>
        <mxCell id="qsE9WDBoIMnog5az0jkp-15" value="" style="rounded=0;whiteSpace=wrap;html=1;fillColor=#e51400;fontColor=#ffffff;strokeColor=none;" vertex="1" parent="1">
          <mxGeometry x="1490" y="960" width="10" height="30" as="geometry" />
        </mxCell>
        <mxCell id="qsE9WDBoIMnog5az0jkp-18" value="" style="rounded=0;whiteSpace=wrap;html=1;strokeColor=none;fillColor=#0000FF;" vertex="1" parent="1">
          <mxGeometry x="1380" y="920" width="10" height="30" as="geometry" />
        </mxCell>
        <mxCell id="qsE9WDBoIMnog5az0jkp-19" value="" style="rounded=0;whiteSpace=wrap;html=1;fillColor=#e51400;fontColor=#ffffff;strokeColor=none;" vertex="1" parent="1">
          <mxGeometry x="1280" y="940" width="25" height="10" as="geometry" />
        </mxCell>
        <mxCell id="qsE9WDBoIMnog5az0jkp-20" value="ヒューズ&lt;br&gt;MF-R300" style="rounded=1;whiteSpace=wrap;html=1;fillColor=#fff2cc;strokeColor=#d6b656;" vertex="1" parent="1">
          <mxGeometry x="1600" y="1000" width="60" height="60" as="geometry" />
        </mxCell>
        <mxCell id="qsE9WDBoIMnog5az0jkp-21" value="" style="rounded=0;whiteSpace=wrap;html=1;fillColor=#000000;fontColor=#333333;strokeColor=none;" vertex="1" parent="1">
          <mxGeometry x="1610" y="980" width="10" height="20" as="geometry" />
        </mxCell>
        <mxCell id="qsE9WDBoIMnog5az0jkp-22" value="" style="rounded=0;whiteSpace=wrap;html=1;fillColor=#000000;fontColor=#333333;strokeColor=none;" vertex="1" parent="1">
          <mxGeometry x="1640" y="980" width="40" height="10" as="geometry" />
        </mxCell>
        <mxCell id="qsE9WDBoIMnog5az0jkp-23" value="" style="rounded=0;whiteSpace=wrap;html=1;fillColor=#000000;fontColor=#333333;strokeColor=none;" vertex="1" parent="1">
          <mxGeometry x="1680" y="980" width="10" height="90" as="geometry" />
        </mxCell>
        <mxCell id="qsE9WDBoIMnog5az0jkp-24" value="" style="ellipse;whiteSpace=wrap;html=1;aspect=fixed;fillColor=#f5f5f5;strokeColor=#666666;fontColor=#333333;" vertex="1" parent="1">
          <mxGeometry x="1378" y="937.5" width="15" height="15" as="geometry" />
        </mxCell>
        <mxCell id="qsE9WDBoIMnog5az0jkp-25" value="" style="ellipse;whiteSpace=wrap;html=1;aspect=fixed;fillColor=#f5f5f5;strokeColor=#666666;fontColor=#333333;" vertex="1" parent="1">
          <mxGeometry x="1378" y="957.5" width="15" height="15" as="geometry" />
        </mxCell>
        <mxCell id="qsE9WDBoIMnog5az0jkp-26" value="" style="ellipse;whiteSpace=wrap;html=1;aspect=fixed;fillColor=#f5f5f5;strokeColor=#666666;fontColor=#333333;" vertex="1" parent="1">
          <mxGeometry x="1467.5" y="957.5" width="15" height="15" as="geometry" />
        </mxCell>
        <mxCell id="qsE9WDBoIMnog5az0jkp-27" value="" style="ellipse;whiteSpace=wrap;html=1;aspect=fixed;fillColor=#f5f5f5;strokeColor=#666666;fontColor=#333333;" vertex="1" parent="1">
          <mxGeometry x="1467.5" y="997.5" width="15" height="15" as="geometry" />
        </mxCell>
        <mxCell id="qsE9WDBoIMnog5az0jkp-28" value="" style="ellipse;whiteSpace=wrap;html=1;aspect=fixed;fillColor=#f5f5f5;strokeColor=#666666;fontColor=#333333;" vertex="1" parent="1">
          <mxGeometry x="1397.5" y="1067.5" width="15" height="15" as="geometry" />
        </mxCell>
        <mxCell id="qsE9WDBoIMnog5az0jkp-29" value="" style="ellipse;whiteSpace=wrap;html=1;aspect=fixed;fillColor=#f5f5f5;strokeColor=#666666;fontColor=#333333;" vertex="1" parent="1">
          <mxGeometry x="1227" y="1067.5" width="15" height="15" as="geometry" />
        </mxCell>
      </root>
    </mxGraphModel>
  </diagram>
</mxfile>
